<svg width="146" height="146" viewBox="0 0 146 146" fill="none" xmlns="http://www.w3.org/2000/svg">
<path d="M73 43.89C72.76 43.67 72.51 43.46 72.26 43.25C71.97 43.01 71.67 42.77 71.37 42.54C71.22 42.42 71.06 42.31 70.91 42.2C70.54 41.92 70.16 41.66 69.77 41.41C69.74 41.38 69.7 41.36 69.66 41.33C69.38 41.15 69.09 40.97 68.8 40.8C68.63 40.69 68.45 40.59 68.27 40.49C67.92 40.29 67.57 40.1 67.21 39.92C66.79 39.7 66.36 39.5 65.93 39.31C65.56 39.14 65.18 38.98 64.8 38.84C64.43 38.69 64.04 38.55 63.65 38.42C63.63 38.41 63.62 38.41 63.6 38.4C63.23 38.27 62.85 38.16 62.47 38.05C61.67 37.82 60.85 37.62 60.02 37.46C59.62 37.39 59.22 37.33 58.82 37.27C58.53 37.23 58.24 37.19 57.94 37.17L57.37 37.11C56.59 37.03 55.8 37 55 37C54.39 37 53.78 37.02 53.17 37.06C52.87 37.08 52.57 37.11 52.27 37.14C51.84 37.18 51.41 37.24 50.99 37.3C50.97 37.3 50.95 37.3 50.93 37.31C50.52 37.37 50.11 37.44 49.71 37.52C49.31 37.6 48.91 37.69 48.52 37.79C48.31 37.84 48.11 37.9 47.9 37.95C47.65 38.01 47.4 38.09 47.16 38.16C42.06 39.71 37.58 42.73 34.25 46.73C31.63 49.87 29.71 53.63 28.73 57.75C28.25 59.75 28 61.85 28 64C28 66.15 28.25 68.25 28.73 70.26C29 71.38 29.33 72.48 29.74 73.54C29.86 73.87 29.99 74.19 30.13 74.51C30.32 74.97 30.53 75.42 30.75 75.87C30.93 76.24 31.12 76.6 31.32 76.96C31.75 77.76 32.22 78.52 32.74 79.27C32.92 79.54 33.11 79.81 33.31 80.07C33.69 80.59 34.1 81.1 34.53 81.59C34.74 81.84 34.96 82.08 35.18 82.32C35.4 82.56 35.62 82.79 35.85 83.02C36.08 83.26 36.31 83.48 36.55 83.7H36.56C36.73 83.86 36.9 84.02 37.07 84.17C37.24 84.33 37.42 84.49 37.6 84.63C37.75 84.76 37.9 84.89 38.06 85.01C38.1 85.05 38.15 85.08 38.19 85.12C38.34 85.24 38.5 85.36 38.66 85.48C38.72 85.54 38.79 85.58 38.85 85.62C39.16 85.86 39.48 86.09 39.81 86.31C40.11 86.52 40.42 86.72 40.73 86.91C41.2 87.21 41.69 87.49 42.18 87.76C42.49 87.93 42.81 88.09 43.13 88.24C43.43 88.4 43.74 88.54 44.05 88.67C44.22 88.75 44.39 88.82 44.57 88.9C45.06 89.11 45.55 89.29 46.05 89.47C46.93 89.78 47.83 90.05 48.75 90.27C50.06 90.58 51.42 90.79 52.8 90.9" stroke="black" stroke-width="2" stroke-miterlimit="10"/>
<path d="M98.48 64.05C98.48 64.05 98.46 63.98 98.44 63.95C97.89 62.4 97.2 60.91 96.38 59.5C96.1 59.02 95.81 58.54 95.5 58.08C93.5 55.07 90.92 52.5 87.92 50.5C84.22 48.04 79.88 46.47 75.2 46.1C74.99 46.08 74.78 46.06 74.56 46.05C74.05 46.01 73.52 46 73 46C72.48 46 71.95 46.01 71.44 46.05C71.22 46.06 71.01 46.08 70.8 46.1C66.12 46.47 61.78 48.04 58.08 50.5C55.08 52.5 52.5 55.07 50.5 58.08C50.19 58.54 49.9 59.02 49.62 59.5C48.8 60.91 48.11 62.4 47.56 63.95C47.54 63.98 47.53 64.02 47.52 64.05C46.54 66.85 46 69.86 46 73C46 76.14 46.54 79.19 47.54 82C47.54 82.02 47.54 82.03 47.56 82.05C48.3 84.14 49.29 86.1 50.5 87.91C51.2 88.96 51.97 89.96 52.8 90.9C54.35 92.65 56.13 94.2 58.09 95.5C61.95 98.07 66.52 99.67 71.44 99.96H71.47C71.98 99.99 72.49 100 73 100C73.51 100 74.02 99.99 74.53 99.96H74.56C79.48 99.67 84.05 98.07 87.91 95.5C89.87 94.2 91.65 92.65 93.2 90.9C94.03 89.96 94.8 88.96 95.5 87.91C96.71 86.1 97.7 84.14 98.44 82.05C98.45 82.03 98.45 82.02 98.46 82C99.46 79.19 100 76.16 100 73C100 69.84 99.46 66.85 98.48 64.05ZM73 91C73 81.06 64.94 73 55 73C64.94 73 73 64.94 73 55C73 64.94 81.06 73 91 73C81.06 73 73 81.06 73 91Z" fill="black" stroke="black" stroke-width="2" stroke-miterlimit="10"/>
<path d="M118 64C118 66.16 117.75 68.25 117.27 70.26C116.59 73.11 115.47 75.78 113.96 78.2C113.71 78.6 113.45 79 113.18 79.39C113.05 79.58 112.92 79.77 112.77 79.96C112.64 80.15 112.49 80.34 112.34 80.53C112.09 80.85 111.84 81.16 111.58 81.47C110.91 82.26 110.2 83 109.45 83.7H109.44C109.27 83.87 109.11 84.02 108.93 84.17C108.76 84.33 108.58 84.49 108.4 84.63C108.25 84.76 108.1 84.89 107.94 85.01C107.9 85.05 107.85 85.08 107.81 85.12C107.66 85.24 107.5 85.36 107.34 85.48C107.28 85.54 107.21 85.58 107.15 85.62C106.84 85.86 106.52 86.09 106.19 86.31C105.89 86.52 105.58 86.72 105.27 86.91C104.8 87.21 104.31 87.49 103.82 87.76C103.51 87.92 103.19 88.09 102.87 88.24C102.6 88.38 102.33 88.51 102.05 88.63C101.84 88.72 101.64 88.81 101.43 88.9C101.37 88.92 101.31 88.95 101.26 88.97C100.83 89.15 100.39 89.31 99.9499 89.47C99.0699 89.78 98.1699 90.05 97.2499 90.27C95.9399 90.58 94.5799 90.79 93.1999 90.9C94.0299 89.96 94.7999 88.96 95.4999 87.91C96.7099 86.1 97.6999 84.14 98.4399 82.05C98.4499 82.03 98.4499 82.02 98.4599 82C99.4599 79.19 99.9999 76.16 99.9999 73C99.9999 69.84 99.4599 66.85 98.4799 64.05C98.4699 64.02 98.4599 63.98 98.4399 63.95C97.8899 62.4 97.1999 60.91 96.3799 59.5C96.0999 59.02 95.8099 58.54 95.4999 58.08C93.4999 55.07 90.9199 52.5 87.9199 50.5C84.2199 48.04 79.8799 46.47 75.1999 46.1C74.9899 46.08 74.7799 46.06 74.5599 46.05C74.0499 46.01 73.5199 46 72.9999 46C72.4799 46 71.9499 46.01 71.4399 46.05C71.5699 45.72 71.6799 45.37 71.7899 45.03C72.1799 44.64 72.5899 44.26 72.9999 43.89C73.2399 43.67 73.4899 43.46 73.7399 43.25C78.4199 39.34 84.4299 37 90.9999 37C93.4599 37 95.8399 37.33 98.0999 37.95C98.3499 38.01 98.5999 38.09 98.8399 38.16C103.94 39.71 108.42 42.73 111.75 46.73C114.37 49.87 116.29 53.63 117.27 57.75C117.75 59.75 118 61.85 118 64Z" stroke="black" stroke-width="2" stroke-miterlimit="10"/>
<path d="M71.7898 45.03C71.4498 45.38 71.1198 45.73 70.7998 46.1" stroke="black" stroke-width="2" stroke-miterlimit="10"/>
<path d="M99.95 89.47C99.99 89.98 100 90.49 100 91C100 91.69 99.97 92.37 99.92 93.04C99.61 97.2 98.36 101.09 96.38 104.51C94.01 108.6 90.59 112.02 86.5 114.38C82.94 116.45 78.88 117.72 74.53 117.95C74.02 117.99 73.51 118 73 118C72.49 118 71.98 117.99 71.47 117.95C67.12 117.72 63.06 116.45 59.5 114.38C57.71 113.35 56.05 112.11 54.55 110.71C54.34 110.5 54.13 110.3 53.92 110.09C53.49 109.67 53.07 109.22 52.68 108.77C52.49 108.56 52.31 108.35 52.14 108.14C51.38 107.22 50.69 106.25 50.06 105.24C49.91 105 49.76 104.76 49.62 104.51C49.37 104.08 49.13 103.65 48.91 103.21C48.91 103.19 48.91 103.17 48.88 103.16C48.69 102.77 48.5 102.37 48.32 101.97C48.3 101.91 48.27 101.84 48.24 101.78C48.05 101.35 47.87 100.91 47.71 100.47C47.57 100.1 47.43 99.72 47.32 99.33C47.05 98.53 46.83 97.7 46.64 96.85C46.59 96.64 46.55 96.42 46.5 96.2C46.35 95.42 46.23 94.62 46.15 93.82C46.12 93.56 46.1 93.3 46.08 93.04C46.06 92.79 46.04 92.54 46.04 92.29C46.01 91.86 46 91.43 46 91C46 90.49 46.01 89.98 46.05 89.47" stroke="black" stroke-width="2" stroke-miterlimit="10"/>
<path d="M47.9002 37.95C47.6502 38.01 47.4002 38.09 47.1602 38.16C47.2802 37.77 47.4002 37.39 47.5502 37.01C47.6502 37.33 47.7702 37.64 47.9002 37.95Z" stroke="black" stroke-width="2" stroke-miterlimit="10"/>
<path d="M98.8401 38.16C98.6001 38.09 98.3501 38.01 98.1001 37.95C98.2301 37.64 98.3501 37.33 98.4501 37.01C98.6001 37.39 98.7201 37.77 98.8401 38.16Z" stroke="black" stroke-width="2" stroke-miterlimit="10"/>
<path d="M47.55 37C47.65 37.33 47.77 37.64 47.9 37.95C47.65 38.01 47.4 38.09 47.16 38.16C42.06 39.71 37.58 42.73 34.25 46.73C31.63 49.87 29.71 53.63 28.73 57.75C25.29 54.88 22.57 51.18 20.9 46.95C19.67 43.88 19 40.52 19 37C19 22.09 31.09 10 46 10C48.15 10 50.25 10.25 52.25 10.74C58.02 12.1 63.07 15.32 66.75 19.73C57.8 21.85 50.57 28.43 47.55 37Z" stroke="black" stroke-width="2" stroke-miterlimit="10"/>
<path d="M34.25 46.73C31.63 49.87 29.71 53.63 28.73 57.75C28.25 59.75 28 61.85 28 64C28 66.15 28.25 68.25 28.73 70.26C22.78 75.2 19 82.66 19 91C19 93.73 19.4 96.36 20.16 98.84C9.07 95.48 1 85.18 1 73C1 60.82 9.43 50.06 20.9 46.95" stroke="black" stroke-width="2" stroke-miterlimit="10"/>
<path d="M145 73C145 85.18 136.93 95.48 125.84 98.84C126.6 96.36 127 93.73 127 91C127 82.66 123.22 75.1999 117.27 70.2599C117.75 68.2499 118 66.16 118 64C118 61.84 117.75 59.75 117.27 57.75C120.71 54.88 123.43 51.18 125.1 46.95C136.57 50.06 145 60.55 145 73Z" stroke="black" stroke-width="2" stroke-miterlimit="10"/>
<path d="M127 37C127 40.52 126.33 43.88 125.1 46.95C123.43 51.18 120.71 54.88 117.27 57.75C116.29 53.63 114.37 49.87 111.75 46.73C108.42 42.73 103.94 39.71 98.84 38.16C98.72 37.77 98.6 37.39 98.45 37.01C95.43 28.43 88.2 21.85 79.25 19.73C82.93 15.32 87.98 12.1 93.75 10.74C95.75 10.25 97.85 10 100 10C114.91 10 127 22.09 127 37Z" stroke="black" stroke-width="2" stroke-miterlimit="10"/>
<path d="M98.8401 38.16C98.6001 38.09 98.3501 38.01 98.1001 37.95C98.2301 37.64 98.3501 37.33 98.4501 37.01C98.6001 37.39 98.7201 37.77 98.8401 38.16Z" stroke="black" stroke-width="2" stroke-miterlimit="10"/>
<path d="M127 109C127 123.91 114.91 136 99.9998 136C97.8498 136 95.7498 135.75 93.7498 135.26C84.7798 133.15 77.5398 126.54 74.5298 117.95C78.8798 117.72 82.9398 116.45 86.4998 114.38C90.4698 116.69 95.0798 118 99.9998 118C111.75 118 121.75 110.49 125.46 100C126.46 102.81 127 105.84 127 109Z" stroke="black" stroke-width="2" stroke-miterlimit="10"/>
<path d="M96.38 104.51C94.01 108.6 90.59 112.02 86.5 114.38C82.94 116.45 78.88 117.72 74.53 117.95C74.02 117.99 73.51 118 73 118C72.49 118 71.98 117.99 71.47 117.95C67.12 117.72 63.06 116.45 59.5 114.38C55.53 116.69 50.92 118 46 118" stroke="black" stroke-width="2" stroke-miterlimit="10"/>
<path d="M52.25 135.26C57.2 141.21 64.66 145 73 145C81.34 145 88.8 141.21 93.75 135.26" stroke="black" stroke-width="2" stroke-miterlimit="10"/>
<path d="M79.2498 19.73C77.2498 19.25 75.1498 19 72.9998 19C70.8498 19 68.7498 19.25 66.7498 19.73C57.7998 21.85 50.5698 28.43 47.5498 37" stroke="black" stroke-width="2" stroke-miterlimit="10"/>
<path d="M52.25 10.74C57.2 4.79001 64.66 1 73 1C81.34 1 88.8 4.79001 93.75 10.74" stroke="black" stroke-width="2" stroke-miterlimit="10"/>
<path d="M71.47 117.95C68.46 126.54 61.22 133.15 52.25 135.26C50.25 135.75 48.15 136 46 136C31.09 136 19 123.91 19 109C19 105.84 19.54 102.81 20.54 100C24.25 110.49 34.25 118 46 118C50.92 118 55.53 116.69 59.5 114.38C63.06 116.45 67.12 117.72 71.47 117.95Z" stroke="black" stroke-width="2" stroke-miterlimit="10"/>
<path d="M91 73C81.06 73 73 81.06 73 91C73 81.06 64.94 73 55 73C64.94 73 73 64.94 73 55C73 64.94 81.06 73 91 73Z" stroke="black" stroke-width="2" stroke-miterlimit="10"/>
</svg>
