<svg width="203" height="48" viewBox="0 0 203 48" fill="none" xmlns="http://www.w3.org/2000/svg">
<path d="M79.1113 1.59711C102.166 1.59711 122.699 31.3132 110.996 44.216C101.43 54.7623 94.8082 16.5013 118.108 12.8223C141.369 9.14731 142.634 30.7265 133.56 25.8213C125.499 21.4634 131.843 4.23812 146.068 6.20023C160.293 8.16233 171.575 18.7086 178.198 15.5202C184.82 12.3318 184.084 0.431622 172.557 1.59711" stroke="black" stroke-width="2" stroke-miterlimit="10" stroke-linecap="round" stroke-linejoin="round"/>
<path d="M123 1.51709C99.9453 1.51709 79.3777 31.3132 91.0817 44.216C100.647 54.7623 107.269 16.5013 83.969 12.8223C60.7083 9.14731 59.4427 30.7265 68.5175 25.8213C76.5778 21.4634 70.2343 4.23812 56.0091 6.20022C41.7838 8.16233 30.5017 18.7086 23.8796 15.5202C17.2575 12.3318 17.9933 0.431622 29.5206 1.59711" stroke="black" stroke-width="2" stroke-miterlimit="10" stroke-linecap="round" stroke-linejoin="round"/>
<path d="M175.875 16.1013C184.795 16.1013 188.644 1.34428 197.356 4.38162C206.07 7.42092 201.07 21.4441 191.988 15.0888" stroke="black" stroke-width="2" stroke-miterlimit="10" stroke-linecap="round" stroke-linejoin="round"/>
<path d="M149.815 6.9209C165.247 11.9105 158.747 25.0173 153.312 25.1567C147.608 25.3038 144.58 16.6804 151.35 14.5279" stroke="black" stroke-width="2" stroke-miterlimit="10" stroke-linecap="round" stroke-linejoin="round"/>
<path d="M27.0101 16.1017C18.0904 16.1017 14.2407 1.34477 5.529 4.38211C-3.1847 7.42141 1.81473 21.4446 10.8973 15.0893" stroke="black" stroke-width="2" stroke-miterlimit="10" stroke-linecap="round" stroke-linejoin="round"/>
<path d="M53.066 6.9209C37.6341 11.9105 44.1345 25.0173 49.5695 25.1567C55.2734 25.3038 58.3009 16.6804 51.5316 14.5279" stroke="black" stroke-width="2" stroke-miterlimit="10" stroke-linecap="round" stroke-linejoin="round"/>
</svg>
