<svg width="343" height="63" viewBox="0 0 343 63" fill="none" xmlns="http://www.w3.org/2000/svg">
<path d="M45.6323 10.7683C45.5141 8.1224 44.3019 5.62428 42.3064 3.89481C40.4587 2.29838 38.1453 1.5519 35.795 1.7958C32.9052 2.09144 30.3184 3.57701 28.3007 6.08991C27.4803 7.10985 26.8151 8.27761 26.2756 9.52667C26.0317 7.13202 23.2305 5.98644 21.4124 6.36337C25.0561 10.0958 22.9349 17.4054 26.7264 25.7792C27.4433 27.7304 28.2785 29.4229 29.1063 30.8568C27.6725 30.029 25.9799 29.1938 24.0287 28.4769C15.6549 24.6854 8.34528 26.8066 4.61288 23.1629C4.23595 24.981 5.38153 27.7822 7.77618 28.0261C6.53451 28.5656 5.36675 29.2308 4.33942 30.0512C1.82652 32.0615 0.34095 34.6557 0.0453142 37.5455C-0.198585 39.8958 0.547895 42.2092 2.14433 44.0569C3.8664 46.0524 6.37191 47.2645 9.01785 47.3828C9.58695 47.405 10.1413 47.368 10.6734 47.2793C14.1102 46.6733 16.8078 43.7465 16.9704 40.1102C16.9926 39.6519 16.9557 39.1937 16.8744 38.7502C16.32 35.5943 14.3541 32.7636 10.3408 33.2219C6.32757 33.6727 4.50202 37.2942 6.32757 40.1102C6.99275 38.9055 7.09622 37.1316 7.31795 36.7177C8.6557 39.8367 8.47093 33.5397 12.9868 35.1287C13.5928 35.417 14.1471 35.8161 14.6128 36.326C15.5514 37.3534 16.0318 38.6837 15.9727 40.0732C15.8101 43.7243 12.7059 46.5698 9.0548 46.3998C6.68233 46.2963 4.4355 45.2025 2.89081 43.4139C1.47176 41.7731 0.813966 39.7258 1.0283 37.649C1.29437 35.0326 2.6543 32.6675 4.96025 30.8272C8.02747 28.3734 12.3733 27.2057 16.5935 27.7009C16.7487 27.7156 16.8965 27.7526 17.0517 27.7674C14.1323 28.403 13.6519 32.7267 17.4509 34.1827C16.9187 33.281 15.6031 27.7378 20.8433 28.5213C24.8861 29.6003 28.1085 31.3372 30.3258 32.8006C30.348 32.8301 30.3627 32.8523 30.3849 32.8819C26.9999 30.9233 24.2579 31.485 20.6955 32.8228C22.2623 34.2418 24.2874 33.3623 24.2874 33.3623C23.0088 35.8013 27.6946 33.3771 31.2644 34.1014L33.7256 35.4613L32.3657 33.0001C31.6414 29.4303 34.0656 24.7445 31.6266 26.0231C31.6266 26.0231 32.4987 23.998 31.087 22.4312C29.7493 25.9936 29.1876 28.743 31.1462 32.1206C31.1166 32.0984 31.0944 32.0837 31.0649 32.0615C29.6015 29.8516 27.8646 26.6218 26.7855 22.579C26.0021 17.3388 31.5453 18.6544 32.447 19.1866C30.991 15.395 26.6673 15.8681 26.0317 18.7875C26.0095 18.6322 25.9799 18.4844 25.9652 18.3292C25.47 14.109 26.6377 9.76318 29.0915 6.69596C30.9318 4.39739 33.2969 3.03747 35.9133 2.76401C37.9901 2.54967 40.0374 3.21485 41.6782 4.62651C43.4668 6.17121 44.5606 8.41804 44.6641 10.7905C44.8341 14.4416 41.9886 17.5458 38.3375 17.7084C36.948 17.7675 35.6177 17.2871 34.5903 16.3485C34.0804 15.8828 33.6739 15.3285 33.393 14.7225C31.8113 10.2066 38.101 10.3914 34.982 9.05365C35.3959 8.83193 37.1697 8.72846 38.3745 8.06328C35.5659 6.23034 31.9444 8.06328 31.4862 12.0765C31.0353 16.0898 33.8586 18.0558 37.0219 18.6101C37.4654 18.684 37.9236 18.7209 38.3818 18.6988C42.0108 18.5362 44.945 15.8459 45.551 12.4017C45.6471 11.8622 45.684 11.3079 45.6545 10.7462L45.6323 10.7683Z" fill="black"/>
<path d="M54.1818 6.53363C54.1966 7.10273 54.4036 7.64227 54.7509 8.05615C54.3666 6.68145 55.8226 5.41761 56.7169 5.31414C56.2735 7.30229 59.4515 6.03105 60.0798 7.67183C60.0206 10.0443 57.4043 11.7886 54.9283 10.9829C52.9993 10.473 51.1738 8.49222 50.1612 6.7258V6.74058C48.8974 4.62678 46.9905 2.9121 44.6328 2.04736C47.9513 3.3999 49.969 7.10273 50.8559 10.4582C51.1811 11.892 50.6786 12.8085 50.0208 14.0797C49.3112 15.4544 50.1021 16.3339 50.4273 17.8269C50.5086 17.6865 50.5973 17.5239 50.6786 17.3465C51.9054 15.0332 52.0976 12.3872 51.4694 9.91866C53.2284 11.6481 55.697 12.6533 58.1212 11.7146C60.405 10.9016 61.5653 8.03398 60.5084 5.85367C59.3259 2.78645 54.2853 2.97862 54.1818 6.54102V6.53363Z" fill="black"/>
<path d="M13.062 14.8116C13.062 14.8116 9.27048 9.39413 10.5048 5.92041C9.02658 6.45994 8.39096 7.12512 8.25054 8.17463C7.42276 7.00687 5.00593 6.7408 5.00593 6.7408C5.00593 6.7408 5.27201 9.16501 6.43977 9.9854C5.38287 10.1332 4.71769 10.7614 4.18555 12.2396C7.65926 11.0053 13.0768 14.7969 13.0768 14.7969L13.062 14.8116Z" fill="black"/>
<path d="M13.3281 15.0777C14.2002 16.3489 14.5107 17.7163 14.1485 18.7066C15.1389 18.3445 16.5062 18.6475 17.7774 19.5196C16.9053 18.2484 16.5949 16.8811 16.9644 15.8907C15.9741 16.2529 14.6067 15.9498 13.3355 15.0703L13.3281 15.0777Z" fill="black"/>
<path d="M20.7243 9.05371C15.6467 16.3633 21.9511 23.1186 24.9962 25.8162C19.8152 18.8466 24.8262 10.8719 21.1825 13.9095C22.2468 12.6531 22.0177 10.3028 20.7243 9.05371Z" fill="black"/>
<path d="M19.9113 2.87549C14.2647 4.60496 14.7894 10.7024 15.2699 13.3558C15.4251 7.60566 21.3008 5.49925 18.1597 5.59534C19.224 5.37361 20.0739 4.05803 19.9113 2.87549Z" fill="black"/>
<path d="M1.125 21.6623C2.85447 16.0157 8.95195 16.5404 11.6053 17.0208C5.85517 17.176 3.74877 23.0518 3.84485 19.9107C3.62312 20.975 2.30754 21.8249 1.125 21.6623Z" fill="black"/>
<path d="M12.3273 51.7805C11.0634 52.4383 10.147 52.9409 8.70575 52.6157C5.35029 51.7288 1.64745 49.7111 0.294922 46.3926C1.15966 48.7503 2.87434 50.6571 4.98813 51.9136H4.97335C6.74717 52.9409 8.72793 54.7591 9.2305 56.6881C10.0361 59.164 8.29186 61.7804 5.91939 61.8395C4.27861 61.2113 5.54245 58.0332 3.56169 58.4767C3.66517 57.5824 4.92901 56.1264 6.30371 56.5107C5.89721 56.1633 5.35029 55.9564 4.78119 55.9416C1.22617 56.0451 1.03401 61.0857 4.09384 62.2682C6.27415 63.3251 9.13442 62.1647 9.95481 59.8809C10.8935 57.4567 9.88829 54.9882 8.15883 53.2291C10.6274 53.85 13.2733 53.6578 15.5867 52.4383C15.764 52.357 15.9266 52.2757 16.0671 52.187C14.5815 51.8692 13.702 51.071 12.3199 51.7805H12.3273Z" fill="black"/>
<path d="M12.1585 22.9344C9.12089 26.5782 17.0957 21.5671 24.0653 26.7481C21.3676 23.7031 14.6197 17.3987 7.30273 22.4762C8.55179 23.7696 10.9021 23.9987 12.1585 22.9344Z" fill="black"/>
<path d="M297.366 10.7688C297.484 8.12289 298.696 5.62477 300.692 3.8953C302.54 2.29887 304.853 1.55239 307.203 1.79629C310.093 2.09193 312.68 3.57749 314.698 6.0904C315.518 7.11034 316.183 8.2781 316.723 9.52716C316.967 7.13251 319.768 5.98692 321.586 6.36386C317.942 10.0963 320.064 17.4058 316.272 25.7797C315.555 27.7309 314.72 29.4234 313.892 30.8573C315.326 30.0295 317.018 29.1943 318.97 28.4774C327.344 24.6859 334.653 26.8071 338.386 23.1633C338.762 24.9815 337.617 27.7827 335.222 28.0266C336.464 28.5661 337.632 29.2313 338.659 30.0517C341.172 32.062 342.657 34.6562 342.953 37.546C343.197 39.8963 342.451 42.2097 340.854 44.0574C339.132 46.0529 336.626 47.265 333.981 47.3833C333.411 47.4055 332.857 47.3685 332.325 47.2798C328.888 46.6738 326.191 43.747 326.028 40.1107C326.006 39.6524 326.043 39.1942 326.124 38.7507C326.678 35.5948 328.644 32.7641 332.658 33.2223C336.671 33.6732 338.496 37.2947 336.671 40.1107C336.006 38.9059 335.902 37.1321 335.68 36.7182C334.343 39.8372 334.527 33.5402 330.012 35.1292C329.406 35.4174 328.851 35.8165 328.386 36.3265C327.447 37.3539 326.967 38.6842 327.026 40.0737C327.188 43.7248 330.293 46.5703 333.944 46.4003C336.316 46.2968 338.563 45.203 340.108 43.4144C341.527 41.7736 342.184 39.7263 341.97 37.6495C341.704 35.0331 340.344 32.668 338.038 30.8277C334.971 28.3739 330.625 27.2062 326.405 27.7014C326.25 27.7161 326.102 27.7531 325.947 27.7679C328.866 28.4035 329.346 32.7272 325.548 34.1832C326.08 33.2815 327.395 27.7383 322.155 28.5217C318.112 29.6008 314.89 31.3377 312.673 32.8011C312.65 32.8306 312.636 32.8528 312.613 32.8824C315.999 30.9238 318.741 31.4855 322.303 32.8232C320.736 34.2423 318.711 33.3628 318.711 33.3628C319.99 35.8018 315.304 33.3776 311.734 34.1019L309.273 35.4618L310.633 33.0006C311.357 29.4308 308.933 24.745 311.372 26.0236C311.372 26.0236 310.5 23.9985 311.911 22.4317C313.249 25.9941 313.811 28.7435 311.852 32.1211C311.882 32.0989 311.904 32.0842 311.934 32.062C313.397 29.8521 315.134 26.6223 316.213 22.5795C316.996 17.3393 311.453 18.6549 310.551 19.187C312.007 15.3955 316.331 15.8685 316.967 18.7879C316.989 18.6327 317.018 18.4849 317.033 18.3297C317.528 14.1095 316.361 9.76367 313.907 6.69645C312.067 4.39788 309.702 3.03796 307.085 2.7645C305.008 2.55016 302.961 3.21534 301.32 4.627C299.532 6.1717 298.438 8.41853 298.334 10.791C298.164 14.4421 301.01 17.5463 304.661 17.7089C306.05 17.768 307.381 17.2876 308.408 16.3489C308.918 15.8833 309.325 15.329 309.605 14.723C311.187 10.2071 304.897 10.3919 308.016 9.05414C307.602 8.83242 305.829 8.72894 304.624 8.06376C307.432 6.23082 311.054 8.06376 311.512 12.077C311.963 16.0903 309.14 18.0562 305.976 18.6106C305.533 18.6845 305.075 18.7214 304.617 18.6993C300.988 18.5367 298.053 15.8464 297.447 12.4022C297.351 11.8627 297.314 11.3084 297.344 10.7467L297.366 10.7688Z" fill="black"/>
<path d="M288.816 6.53412C288.802 7.10322 288.595 7.64275 288.247 8.05664C288.632 6.68194 287.176 5.4181 286.281 5.31462C286.725 7.30277 283.547 6.03154 282.919 7.67232C282.978 10.0448 285.594 11.789 288.07 10.9834C289.999 10.4735 291.825 8.49271 292.837 6.72628V6.74106C294.101 4.62727 296.008 2.91259 298.365 2.04785C295.047 3.40038 293.029 7.10322 292.142 10.4587C291.817 11.8925 292.32 12.809 292.977 14.0802C293.687 15.4549 292.896 16.3344 292.571 17.8274C292.49 17.687 292.401 17.5244 292.32 17.347C291.093 15.0336 290.901 12.3877 291.529 9.91915C289.77 11.6486 287.301 12.6538 284.877 11.7151C282.593 10.9021 281.433 8.03447 282.49 5.85416C283.672 2.78694 288.713 2.9791 288.816 6.54151V6.53412Z" fill="black"/>
<path d="M329.939 14.8116C329.939 14.8116 333.73 9.39413 332.496 5.92041C333.974 6.45994 334.61 7.12512 334.75 8.17463C335.578 7.00687 337.995 6.7408 337.995 6.7408C337.995 6.7408 337.729 9.16501 336.561 9.9854C337.618 10.1332 338.283 10.7614 338.815 12.2396C335.341 11.0053 329.924 14.7969 329.924 14.7969L329.939 14.8116Z" fill="black"/>
<path d="M329.672 15.0777C328.8 16.3489 328.489 17.7163 328.852 18.7066C327.861 18.3445 326.494 18.6475 325.223 19.5196C326.095 18.2484 326.405 16.8811 326.036 15.8907C327.026 16.2529 328.393 15.9498 329.665 15.0703L329.672 15.0777Z" fill="black"/>
<path d="M322.274 9.05371C327.351 16.3633 321.047 23.1186 318.002 25.8162C323.183 18.8466 318.172 10.8719 321.816 13.9095C320.751 12.6531 320.98 10.3028 322.274 9.05371Z" fill="black"/>
<path d="M323.086 2.87549C328.733 4.60496 328.208 10.7024 327.728 13.3558C327.573 7.60566 321.697 5.49925 324.838 5.59534C323.774 5.37361 322.924 4.05803 323.086 2.87549Z" fill="black"/>
<path d="M341.875 21.6628C340.145 16.0162 334.048 16.5409 331.395 17.0213C337.145 17.1765 339.251 23.0523 339.155 19.9112C339.377 20.9754 340.692 21.8254 341.875 21.6628Z" fill="black"/>
<path d="M330.671 51.781C331.935 52.4388 332.852 52.9414 334.293 52.6162C337.648 51.7293 341.351 49.7116 342.704 46.3931C341.839 48.7508 340.124 50.6576 338.011 51.9141H338.025C336.252 52.9414 334.271 54.7596 333.768 56.6886C332.963 59.1645 334.707 61.7809 337.079 61.84C338.72 61.2118 337.456 58.0337 339.437 58.4772C339.334 57.5829 338.07 56.1269 336.695 56.5112C337.102 56.1638 337.648 55.9569 338.218 55.9421C341.773 56.0456 341.965 61.0861 338.905 62.2687C336.725 63.3256 333.864 62.1652 333.044 59.8814C332.105 57.4572 333.11 54.9887 334.84 53.2296C332.371 53.8505 329.725 53.6583 327.412 52.4388C327.235 52.3575 327.072 52.2762 326.932 52.1875C328.417 51.8697 329.297 51.0715 330.679 51.781H330.671Z" fill="black"/>
<path d="M330.842 22.9344C333.88 26.5782 325.905 21.5671 318.936 26.7481C321.633 23.7031 328.381 17.3987 335.698 22.4762C334.449 23.7696 332.099 23.9987 330.842 22.9344Z" fill="black"/>
<path d="M164.702 15.5728C168.723 12.6978 170.881 8.58105 170.881 8.58105C170.4 15.2402 168.294 19.9335 162.736 21.079C160.866 18.4922 162.677 17.0141 164.702 15.5728Z" fill="black"/>
<path d="M163.993 9.08299C159.713 9.62992 158.819 4.00545 160.578 5.13626C164.754 7.81176 169.462 4.5376 169.462 4.5376C168.501 6.31141 166.543 8.75779 163.985 9.08299H163.993Z" fill="black"/>
<path d="M170.727 15.8086C170.727 15.8086 170.675 17.8707 170.35 19.2749C170.024 20.6792 170.941 20.997 171.503 19.7775C172.057 20.997 172.973 20.6792 172.656 19.2749C172.338 17.8707 172.279 15.8086 172.279 15.8086C173.232 19.8662 175.634 21.8987 175.634 21.8987C174.607 22.2756 173.099 22.453 172.685 21.8987C172.863 22.5417 171.894 24.8107 171.503 24.9511C171.111 24.8107 170.135 22.5417 170.32 21.8987C169.906 22.453 168.398 22.2756 167.371 21.8987C167.371 21.8987 169.781 19.8662 170.727 15.8086Z" fill="black"/>
<path d="M172.121 8.58105C172.121 8.58105 174.279 12.6978 178.3 15.5728C180.318 17.0141 182.128 18.4922 180.266 21.079C174.708 19.9261 172.602 15.2329 172.121 8.58105Z" fill="black"/>
<path d="M179.012 9.08299C176.455 8.75779 174.496 6.31141 173.535 4.5376C173.535 4.5376 178.243 7.81176 182.419 5.13626C184.185 4.00545 183.291 9.62992 179.004 9.08299H179.012Z" fill="black"/>
<path d="M191.139 15.432C193.164 15.8828 193.179 18.2923 191.878 19.1866C192.226 17.1689 184.118 16.6219 179.794 13.8873C176.956 12.483 174.022 10.214 171.494 6.69597C168.967 10.214 166.032 12.483 163.194 13.8873C158.871 16.6145 150.77 17.1615 151.11 19.1866C149.809 18.2923 149.824 15.8828 151.849 15.432C147.947 14.1977 145.515 10.9605 145.877 7.33159C146.04 5.68342 146.831 4.20524 148.109 3.15573C149.225 2.23926 150.6 1.75146 152.027 1.75146C152.234 1.75146 152.433 1.75886 152.64 1.78103C155.227 2.03232 157.171 4.21263 157.185 6.7551C157.185 6.78466 157.185 6.82162 157.185 6.85857C157.185 6.95465 157.185 7.05812 157.171 7.1616C157.171 7.20594 157.171 7.2429 157.171 7.28724C157.171 7.33159 157.156 7.37593 157.148 7.42028C157.141 7.49418 157.126 7.56809 157.119 7.642C157.119 7.66418 157.119 7.68635 157.104 7.71591C156.808 9.45277 155.685 11.6035 153.106 11.7735C149.307 12.0248 147.607 7.1542 151.938 6.186C150.401 7.1542 151.258 10.3692 153.586 10.081C153.734 10.0588 153.882 10.0367 154.03 9.99231C154.03 9.99231 154.03 9.99231 154.037 9.99231C155.242 9.61537 156.173 8.54369 156.306 7.20594C156.528 4.91477 154.85 2.86749 152.559 2.64576C151.147 2.51273 149.758 2.92662 148.664 3.82831C147.563 4.72999 146.883 6.00862 146.742 7.42028C146.35 11.4483 149.536 14.0425 152.869 14.8186C154.126 15.1142 155.892 15.299 158.013 14.922C155.811 14.4564 155.146 10.4431 159.225 9.85927C157.658 10.3988 158.294 14.0942 160.267 14.3381C163.438 13.2665 167.163 10.9088 171.102 6.17861L170.504 5.38778L171.494 4.0722L172.485 5.38778L171.886 6.17861C175.818 10.9162 179.55 13.2665 182.721 14.3381C184.694 14.0942 185.33 10.3988 183.763 9.85927C187.843 10.4431 187.178 14.449 184.975 14.922C187.104 15.2916 188.87 15.1068 190.119 14.8186C193.453 14.0351 196.638 11.4483 196.246 7.42028C196.106 6.00862 195.426 4.72999 194.325 3.82831C193.223 2.92662 191.841 2.50534 190.43 2.64576C188.138 2.86749 186.461 4.91477 186.682 7.20594C186.816 8.54369 187.739 9.60798 188.951 9.99231C188.951 9.99231 188.951 9.99231 188.959 9.99231C189.099 10.0367 189.247 10.0588 189.402 10.081C191.738 10.3618 192.595 7.1542 191.05 6.186C195.382 7.1542 193.682 12.0248 189.883 11.7735C187.311 11.6035 186.187 9.45277 185.884 7.71591C185.884 7.69374 185.884 7.67157 185.869 7.642C185.855 7.56809 185.847 7.49418 185.84 7.42028C185.84 7.37593 185.825 7.33159 185.818 7.28724C185.818 7.2429 185.818 7.20594 185.818 7.1616C185.81 7.05812 185.803 6.95465 185.803 6.85857C185.803 6.82162 185.803 6.79205 185.803 6.7551C185.818 4.21263 187.762 2.03232 190.348 1.78103C190.555 1.75886 190.762 1.75146 190.962 1.75146C192.388 1.75146 193.763 2.23926 194.879 3.15573C196.158 4.20524 196.948 5.69081 197.111 7.33159C197.466 10.9605 195.042 14.1977 191.132 15.432H191.139Z" fill="black"/>
<path d="M140.306 4.7893C140.306 4.7893 138.273 6.42268 136.765 6.164C137.453 7.07308 137.475 8.05607 136.765 9.57859C135.583 7.09525 131.843 5.75011 129.685 5.15884H126.898C126.647 5.79446 125.76 6.26747 124.703 6.26747C123.646 6.26747 122.767 5.79446 122.508 5.15884H65.1328V4.41975H122.508C122.76 3.78413 123.646 3.31112 124.703 3.31112C125.76 3.31112 126.64 3.78413 126.898 4.41975H129.685C131.843 3.82848 135.59 2.48334 136.765 0C137.475 1.52252 137.453 2.50551 136.765 3.41459C138.273 3.15591 140.306 4.7893 140.306 4.7893Z" fill="black"/>
<path d="M202.699 4.7893C202.699 4.7893 204.732 6.42268 206.239 6.164C205.552 7.07308 205.53 8.05607 206.239 9.57859C207.422 7.09525 211.162 5.75011 213.32 5.15884H216.106C216.358 5.79446 217.244 6.26747 218.301 6.26747C219.358 6.26747 220.238 5.79446 220.496 5.15884H277.872V4.41975H220.496C220.245 3.78413 219.358 3.31112 218.301 3.31112C217.244 3.31112 216.365 3.78413 216.106 4.41975H213.32C211.162 3.82848 207.415 2.48334 206.239 0C205.53 1.52252 205.552 2.50551 206.239 3.41459C204.732 3.15591 202.699 4.7893 202.699 4.7893Z" fill="black"/>
</svg>
