<svg width="155" height="47" viewBox="0 0 155 47" fill="none" xmlns="http://www.w3.org/2000/svg">
<path d="M76.3755 13.4593C76.3755 13.4593 76.2956 10.4293 75.8256 8.37933C75.3556 6.32933 76.6956 5.84934 77.5056 7.63934C78.3256 5.84934 79.6655 6.31933 79.1855 8.37933C78.7155 10.4293 78.6356 13.4593 78.6356 13.4593C80.0356 7.50934 83.5555 4.53934 83.5555 4.53934C82.0555 3.98934 79.8455 3.71934 79.2355 4.53934C79.4956 3.58934 78.0756 0.279336 77.4956 0.0693359C76.9156 0.279336 75.4956 3.59934 75.7556 4.53934C75.1456 3.71934 72.9355 3.98934 71.4355 4.53934C71.4355 4.53934 74.9656 7.50934 76.3556 13.4593H76.3755Z" fill="black"/>
<path d="M77.5059 15.5293C76.5459 15.5293 75.7559 16.0593 75.7559 16.7193C75.7559 17.3793 76.5359 17.9093 77.5059 17.9093C78.4759 17.9093 79.2559 17.3793 79.2559 16.7193C79.2559 16.0593 78.4759 15.5293 77.5059 15.5293Z" fill="black"/>
<path d="M76.5549 32.3195C76.8749 23.4295 73.8549 8.18945 59.2549 6.43945C55.1249 18.8195 72.9049 18.9795 76.5549 32.3195Z" fill="black"/>
<path d="M74.1355 35.4091L75.3155 34.5891C75.0755 34.2391 70.6755 28.0291 62.0655 23.0291C51.0755 15.5291 40.1255 16.7191 35.7155 10.5991C34.7255 13.0991 35.6455 17.3791 39.0055 18.3291C37.0955 18.7891 35.2655 19.4491 33.6055 20.3591C29.5155 22.5991 26.7555 25.9191 25.6055 29.9691C24.6755 33.2591 25.1555 36.7391 26.9655 39.7791C28.9255 43.0591 32.1855 45.4091 35.9255 46.2391C36.7255 46.4191 37.5255 46.4991 38.3155 46.4991C43.3755 46.4991 47.9455 42.9891 49.0855 37.8591C49.2255 37.2091 49.2955 36.5491 49.2955 35.8991C49.2955 31.2591 47.1955 26.7391 41.3655 26.3791C35.5355 26.0191 32.0155 30.7291 33.9255 35.1891C35.1755 33.6391 35.7755 31.1391 36.1855 30.6091C37.3155 35.3891 38.6255 26.3691 44.6655 29.7591C45.4555 30.3191 46.1455 31.0291 46.6855 31.8791C47.7655 33.5791 48.1255 35.5891 47.6855 37.5591C46.5355 42.7291 41.3955 45.9991 36.2355 44.8491C32.8755 44.1091 29.9455 41.9891 28.1955 39.0491C26.5855 36.3491 26.1555 33.2691 26.9755 30.3691C28.0155 26.6991 30.5455 23.6791 34.2855 21.6291C39.2755 18.8991 45.7655 18.3191 51.6555 20.0891C51.8755 20.1591 52.0755 20.2291 52.2855 20.2991C47.9655 20.4791 46.1955 26.5191 51.2455 29.5491C50.7155 28.1291 50.2255 19.8991 57.5055 22.3291C68.4055 27.3791 74.0755 35.3391 74.1355 35.4391V35.4091Z" fill="black"/>
<path d="M31.2351 18.2993C31.4151 18.4293 31.6251 18.5193 31.8651 18.5193C32.4751 18.5193 32.9751 18.0193 32.9751 17.4093C32.9751 16.7993 32.4751 16.2993 31.8651 16.2993C31.4451 16.2993 31.0851 16.5493 30.8951 16.8893C26.4851 17.8793 22.6951 20.4993 19.9551 23.9893V23.9593C17.7151 26.8893 14.0051 29.9993 10.4451 30.4593C5.84514 31.3293 1.57513 27.6093 2.01513 23.3593C3.51513 20.5793 8.88513 23.5693 8.56514 19.9293C10.1451 20.3193 12.4451 22.9093 11.4451 25.2793C12.1651 24.6293 12.6551 23.6993 12.8151 22.6993C13.4551 16.3293 4.50513 14.8193 1.68513 20.0093C-0.71487 23.6493 0.695139 29.0293 4.58514 31.0193C8.69514 33.2593 13.3351 32.0393 16.8751 29.3593C15.1851 33.6293 14.9151 38.3893 16.5651 42.8093C16.6751 43.1493 16.7851 43.4593 16.8951 43.7193C17.8051 41.1393 19.4351 39.7493 18.4851 37.1293C17.6051 34.7193 16.9251 32.9693 17.8351 30.4793C20.1951 24.6993 24.9951 19.9693 31.2351 18.3193V18.2993Z" fill="black"/>
<path d="M55.4355 32.0596C57.1055 35.4796 61.0756 35.3796 61.0756 35.3796C56.4756 39.2896 70.1256 36.5896 74.9656 43.0996C68.2156 33.6496 64.1855 32.2596 55.4355 32.0596Z" fill="black"/>
<path d="M78.4558 32.3195C82.1058 18.9895 99.8858 18.8295 95.7558 6.43945C81.1558 8.18945 78.1358 23.4295 78.4558 32.3195Z" fill="black"/>
<path d="M121.405 20.3494C119.745 19.4394 117.905 18.7794 116.005 18.3194C119.365 17.3694 120.285 13.0894 119.295 10.5894C114.895 16.7194 103.935 15.5294 92.9453 23.0194C84.3253 28.0294 79.9353 34.2394 79.6953 34.5794L80.8753 35.3994C80.9453 35.3094 86.6153 27.3494 97.5053 22.2894C104.785 19.8594 104.295 28.0894 103.765 29.5094C108.805 26.4794 107.045 20.4394 102.725 20.2594C102.935 20.1894 103.135 20.1094 103.355 20.0494C109.245 18.2794 115.735 18.8594 120.725 21.5894C124.465 23.6394 126.995 26.6594 128.035 30.3294C128.855 33.2294 128.425 36.3194 126.815 39.0094C125.065 41.9494 122.125 44.0694 118.775 44.8094C113.615 45.9594 108.475 42.6894 107.325 37.5194C106.885 35.5594 107.245 33.5394 108.325 31.8394C108.865 30.9994 109.545 30.2794 110.345 29.7194C116.385 26.3294 117.695 35.3494 118.825 30.5694C119.245 31.1094 119.835 33.6094 121.085 35.1494C122.985 30.6894 119.475 25.9794 113.645 26.3394C107.815 26.6994 105.715 31.2194 105.715 35.8594C105.715 36.5094 105.775 37.1594 105.925 37.8194C107.065 42.9494 111.635 46.4594 116.695 46.4594C117.485 46.4594 118.285 46.3694 119.085 46.1994C122.825 45.3694 126.085 43.0094 128.045 39.7394C129.855 36.6994 130.345 33.2194 129.405 29.9294C128.255 25.8894 125.495 22.5594 121.405 20.3194V20.3494Z" fill="black"/>
<path d="M153.315 19.9893C150.495 14.7993 141.545 16.3093 142.185 22.6793C142.345 23.6793 142.845 24.6093 143.555 25.2593C142.555 22.8993 144.855 20.2993 146.435 19.9093C146.105 23.5593 151.485 20.5593 152.985 23.3393C153.425 27.5893 149.155 31.3093 144.555 30.4393C140.995 29.9793 137.285 26.8693 135.055 23.9393V23.9693C132.315 20.4893 128.515 17.8593 124.105 16.8693C123.915 16.5193 123.565 16.2793 123.135 16.2793C122.525 16.2793 122.025 16.7793 122.025 17.3893C122.025 17.9993 122.525 18.4993 123.135 18.4993C123.375 18.4993 123.575 18.4093 123.765 18.2793C130.005 19.9293 134.805 24.6593 137.165 30.4393C138.075 32.9293 137.395 34.6793 136.515 37.0893C135.565 39.7093 137.185 41.0993 138.105 43.6793C138.225 43.4093 138.335 43.0993 138.435 42.7693C140.085 38.3593 139.815 33.5893 138.125 29.3193C141.665 31.9993 146.315 33.2193 150.415 30.9793C154.305 28.9893 155.715 23.6093 153.315 19.9693V19.9893Z" fill="black"/>
<path d="M80.0449 43.0996C84.8849 36.5896 98.5349 39.2896 93.9349 35.3796C93.9349 35.3796 97.9049 35.4796 99.5749 32.0596C90.8249 32.2596 86.7949 33.6496 80.0449 43.0996Z" fill="black"/>
<path d="M77.505 33.3394C77.095 35.5294 76.015 37.2394 74.625 37.8894C76.015 38.5294 77.095 40.2394 77.505 42.4394C77.915 40.2494 78.995 38.5394 80.385 37.8894C78.995 37.2494 77.915 35.5394 77.505 33.3394Z" fill="black"/>
</svg>
