<svg width="416" height="257" viewBox="0 0 416 257" fill="none" xmlns="http://www.w3.org/2000/svg">
<path d="M207.988 256.043C176.245 256.043 145.483 248.974 118.946 235.581H99.2292C78.2951 235.581 61.2495 218.535 61.2495 197.576V196.607H43.4462V170.269H42.2783C18.9712 170.269 0 151.31 0 128.015C0 116.71 4.39805 106.087 12.399 98.1235C20.3875 90.135 30.9975 85.737 42.2783 85.737H43.4462V59.3984H61.2495V58.4666C61.2495 37.5076 78.2826 20.4621 99.2292 20.4621H118.946C145.483 7.08159 176.245 0 207.988 0C239.73 0 270.517 7.06917 297.054 20.4621H316.771C337.73 20.4621 354.775 37.5076 354.775 58.4666V59.3984H372.579V85.737H373.759C397.054 85.737 416 104.708 416 128.015C416 139.309 411.602 149.919 403.601 157.87C395.65 165.858 385.04 170.256 373.759 170.256H372.579V196.595H354.775V197.564C354.775 218.523 337.73 235.569 316.771 235.569H297.054C270.517 248.949 239.743 256.031 207.988 256.031V256.043ZM50.6023 189.464H68.4057V197.576C68.4057 214.597 82.2334 228.437 99.2292 228.437H120.66L121.431 228.822C147.136 241.954 177.065 248.887 207.988 248.887C238.91 248.887 268.864 241.942 294.582 228.822L295.352 228.437H316.783C333.804 228.437 347.644 214.597 347.644 197.576V189.464H365.447V163.125H373.771C383.151 163.125 391.947 159.472 398.557 152.826C405.204 146.204 408.869 137.395 408.869 128.015C408.869 108.647 393.128 92.8807 373.771 92.8807H365.447V66.5421H347.644V58.4542C347.644 41.4335 333.804 27.5934 316.783 27.5934H295.352L294.582 27.2083C268.877 14.0762 238.935 7.14371 207.988 7.14371C177.04 7.14371 147.136 14.0887 121.431 27.2083L120.66 27.5934H99.2292C82.2334 27.5934 68.4057 41.4335 68.4057 58.4542V66.5421H50.6023V92.8807H42.2783C32.9108 92.8807 24.0898 96.5457 17.4555 103.18C10.8087 109.802 7.15615 118.61 7.15615 128.003C7.15615 147.359 22.9096 163.1 42.2908 163.1H50.6147V189.439L50.6023 189.464Z" fill="#1A1A1A"/>
<path d="M207.986 236.898C179.175 236.898 151.358 230.45 127.541 218.262L124.721 216.859H101.427C90.0464 216.859 80.7781 207.578 80.7781 196.173V178.668H63.3351V152.863H45.6311C31.9276 152.863 20.771 141.719 20.771 128.028C20.771 121.381 23.3551 115.132 28.0514 110.448C32.7724 105.752 39.0216 103.168 45.6311 103.168H63.3351V77.3637H80.7781V59.8833C80.7781 48.4782 90.0464 39.1976 101.427 39.1976H124.721L127.541 37.7564C151.383 25.5811 179.2 19.1455 207.986 19.1455C236.772 19.1455 264.614 25.5811 288.455 37.7564L291.25 39.1976H314.57C325.975 39.1976 335.243 48.4782 335.243 59.8833V77.3637H352.686V103.168H370.39C384.081 103.168 395.226 114.325 395.226 128.028C395.226 134.675 392.629 140.899 387.92 145.583C383.261 150.267 377.037 152.863 370.403 152.863H352.699V178.668H335.256V196.173C335.256 207.578 325.975 216.859 314.582 216.859H291.263L288.468 218.275C264.651 230.463 236.822 236.911 207.998 236.911L207.986 236.898ZM66.4907 175.524H83.9338V196.173C83.9338 205.839 91.7857 213.703 101.439 213.703H125.479L128.97 215.455C152.364 227.431 179.684 233.755 207.998 233.755C236.312 233.755 263.657 227.431 287.039 215.467L290.518 213.715H314.595C324.261 213.715 332.125 205.851 332.125 196.185V175.537H349.568V149.733H370.428C376.23 149.733 381.659 147.471 385.721 143.384C389.846 139.284 392.107 133.842 392.107 128.053C392.107 116.076 382.379 106.336 370.415 106.336H349.556V80.5317H332.113V59.9081C332.113 50.2424 324.248 42.3781 314.582 42.3781H290.505L287.039 40.6015C263.645 28.6498 236.312 22.3384 207.998 22.3384C179.684 22.3384 152.389 28.6498 128.983 40.6015L125.479 42.3781H101.427C91.7733 42.3781 83.9214 50.2424 83.9214 59.9081V80.5317H66.4783V106.336H45.6187C39.8416 106.336 34.3875 108.597 30.2504 112.697C26.1505 116.797 23.9018 122.251 23.9018 128.053C23.9018 140.017 33.6421 149.745 45.6187 149.745H66.4783V175.549L66.4907 175.524Z" fill="#1A1A1A"/>
</svg>
