<svg width="416" height="70" viewBox="0 0 416 70" fill="none" xmlns="http://www.w3.org/2000/svg">
<path d="M193.18 25.3826C194.592 27.145 195.236 28.9073 195.529 30.9295C196.309 36.3181 192.852 42.2151 187.847 44.3729C170.563 51.8402 157.255 32.9403 167.276 18.8756C172.156 12.0296 182.131 8.52756 190.129 11.1711C212.113 18.4237 210.069 46.4741 192.988 53.546C175.827 60.6518 155.03 40.0574 142.942 31.3926C135.836 26.309 124.358 27.5291 122.856 37.5382C122.302 41.2323 124.855 45.5026 128.052 47.0841C132.198 49.1402 139.406 48.9594 140.106 42.9833C140.423 40.3172 138.796 38.4532 136.164 38.1143C135.508 38.0352 134.48 38.1708 134.085 37.4817C133.306 36.0922 135.475 34.7591 136.48 35.0077C143.428 36.6909 142.795 44.1695 139.553 47.2423C138.344 48.3946 136.299 49.2871 134.616 49.4678C130.538 49.8971 125.567 47.9766 123.376 44.3842C122.302 42.6218 121.24 39.2779 121.557 37.1993C123.251 25.8571 136.265 24.4676 144.331 30.2291C158.046 40.0461 175.421 59.3753 194.129 49.7164C209.492 41.7859 205.414 17.52 190.389 13.2158C164.09 5.68072 156.216 41.3453 178.9 44.5875C184.526 45.3896 191.112 41.9666 192.999 36.657C193.925 34.0361 194.411 30.5905 192.705 28.1956C191.609 26.6479 189.61 25.473 187.667 25.8458C185.712 26.2186 183.656 29.8675 181.544 27.9922C179.024 25.7554 182.594 22.8069 184.594 22.2082C187.87 21.2367 191.248 22.9425 193.213 25.3826H193.18Z" fill="black"/>
<path fill-rule="evenodd" clip-rule="evenodd" d="M172.042 51.4222C159.818 44.034 146.861 46.5871 147.595 56.7657C148.069 63.0694 153.097 65.148 156.576 64.9108C160.055 64.6284 163.309 61.2619 163.072 57.7711C162.789 54.2916 159.999 51.9193 157.751 52.0887C153.729 52.3824 153.277 55.7716 154.689 56.7092C155.367 57.2063 155.435 56.4042 155.424 56.0088C155.412 55.6247 156.034 54.8339 157.322 54.7435C158.564 54.6757 159.445 55.9862 159.536 57.1498C159.604 58.3585 158.395 59.6803 156.734 59.8159C155.107 59.9062 153.187 58.0648 153.017 55.6586C152.848 53.2184 154.972 51.6594 157.728 51.49C160.473 51.2753 163.445 53.8397 163.738 57.7146C163.998 61.5895 160.394 65.3288 156.565 65.6112C152.769 65.8936 149.707 63.7359 149.357 63.2389C148.996 62.7418 148.386 62.6514 148.533 63.5664C149.018 66.9103 147.233 69.407 145.641 69.4974C144.093 69.6103 142.5 68.4355 142.398 67.3961C142.319 66.3116 142.861 65.6225 143.517 65.5773C144.172 65.5321 144.816 65.8823 144.861 66.5376C144.906 67.1928 144.533 67.5995 144.002 67.656C143.494 67.656 143.325 68.0966 143.935 68.5033C144.556 68.9438 146.691 69.1585 147.267 67.3509C147.866 65.5095 147.505 63.1146 146.725 60.4711C145.912 57.8389 144.997 51.3657 150.848 46.8695C156.723 42.3281 164.71 44.9038 167.195 48.1009C167.082 48.4059 172.042 51.1285 172.03 51.4109L172.042 51.4222Z" fill="black"/>
<path fill-rule="evenodd" clip-rule="evenodd" d="M175.34 47.0843C165.986 45.8304 153.13 33.4489 156.327 22.0277C157.875 16.4808 162.992 19.3955 162.642 23.2364C161.942 30.8845 163.128 40.4643 175.091 47.0731H175.34V47.0843Z" fill="black"/>
<path fill-rule="evenodd" clip-rule="evenodd" d="M159.785 38.1822C155.424 34.2282 153.605 26.2639 153.899 20.83C154.193 15.5656 157.311 12.4703 159.163 10.9226C160.7 9.63475 161.954 7.51089 159.209 6.41508C154.43 4.4833 152.103 16.4468 151.911 19.0564C151.369 26.1396 154.611 33.5052 159.785 38.1935V38.1822Z" fill="black"/>
<path fill-rule="evenodd" clip-rule="evenodd" d="M147.266 31.2232C144.578 27.1901 138.342 24.75 133.879 24.332C129.564 23.9253 126.661 26.083 125.181 27.4048C123.949 28.5006 122.074 29.2575 121.509 26.8964C120.526 22.773 130.524 22.3437 132.671 22.5019C138.489 22.9199 144.081 26.4558 147.266 31.2344V31.2232Z" fill="black"/>
<path fill-rule="evenodd" clip-rule="evenodd" d="M147.357 14.0404C147.413 15.0798 147.526 16.0287 147.503 16.6049C147.187 24.0044 150.701 31.596 155.739 36.9055C151.367 32.3077 136.387 17.0454 142.307 10.335C144.826 7.47689 147.21 11.2614 147.368 14.0404H147.357Z" fill="black"/>
<path fill-rule="evenodd" clip-rule="evenodd" d="M149.269 16.6275C147.688 12.6962 147.981 7.07026 149.473 3.19539C150.184 1.35398 152.952 -1.18783 154.929 0.619682C157.358 2.84519 153.381 6.01966 152.466 7.88367C151.133 10.6175 149.755 14.5037 150.037 18.5706C150.037 18.5706 149.258 16.6501 149.258 16.6388L149.269 16.6275Z" fill="black"/>
<path fill-rule="evenodd" clip-rule="evenodd" d="M182.244 21.7449C179.498 22.1968 176.742 24.2528 175.443 26.388C174.821 27.4047 174.799 29.7997 176.629 30.2854C178.888 30.8842 178.685 27.6081 179.216 26.4784C180.007 24.8177 181.362 22.7391 183.577 21.5303C183.577 21.5303 182.232 21.7449 182.232 21.7562L182.244 21.7449Z" fill="black"/>
<path fill-rule="evenodd" clip-rule="evenodd" d="M196.985 22.8969C192.15 15.0004 182.13 14.5824 175.792 17.2598C171.432 19.1012 167.907 24.0492 167.907 29.8898C167.907 41.5596 182.898 49.3319 192.478 37.696L190.862 40.9043C182.209 49.8628 167.41 42.4972 166.834 29.9576C166.574 24.23 170.144 18.8074 174.572 16.2656C182.593 11.6565 195.709 16.0171 197.991 22.6371L196.974 22.8857L196.985 22.8969Z" fill="black"/>
<path fill-rule="evenodd" clip-rule="evenodd" d="M142.057 22.9651C139.052 21.2141 136.398 17.407 135.415 14.1422C134.952 12.5945 135.46 9.54435 137.652 9.71381C140.352 9.92845 139.369 13.9954 139.719 15.6673C140.239 18.1187 141.301 21.3271 143.537 23.8237C143.537 23.8237 142.069 22.9651 142.057 22.9651Z" fill="black"/>
<path fill-rule="evenodd" clip-rule="evenodd" d="M141.471 24.3659C137.856 21.1462 131.191 20.3554 126.774 21.0671C122.492 21.7676 120.233 24.5805 119.137 26.2412C118.222 27.6081 116.595 28.8169 115.454 26.6704C113.466 22.9311 123.023 19.9939 125.147 19.5985C130.886 18.5366 137.189 20.5475 141.482 24.3659H141.471Z" fill="black"/>
<path fill-rule="evenodd" clip-rule="evenodd" d="M121.657 29.9806C118.742 31.8785 116.268 35.7985 115.444 39.1085C115.048 40.6788 115.715 43.7064 117.895 43.424C120.572 43.0738 119.409 39.0633 119.68 37.3801C120.075 34.906 120.99 31.6525 123.103 29.0542L121.668 29.9806H121.657Z" fill="black"/>
<path d="M34.207 22.4676C36.6811 14.5259 45.8542 8.17693 54.3721 9.15977C61.9072 10.0296 66.5164 12.7861 70.9109 17.5535C76.6611 23.7894 81.1008 28.3421 88.3196 32.8947C93.6517 36.2612 105.638 40.78 113.365 33.2562L113.602 32.7366C105.886 40.2604 93.9003 35.7416 88.5568 32.3751C81.338 27.8224 76.887 23.2697 71.1482 17.0338C66.7649 12.2664 62.1558 9.50999 54.6094 8.64012C46.0915 7.65728 36.7827 13.6334 34.3087 21.5639L34.207 22.4563V22.4676Z" fill="black"/>
<path fill-rule="evenodd" clip-rule="evenodd" d="M114.924 29.246C110.021 39.9781 93.1662 37.8204 91.2118 26.2297C90.0143 19.0448 95.403 15.2829 99.3682 14.6051C103.333 13.9612 107.897 16.8419 108.587 20.8072C109.23 24.7724 106.745 28.1954 104.192 28.6246C99.6054 29.3928 98.1707 25.7326 99.5038 24.2866C100.125 23.541 100.43 24.4222 100.509 24.8628C100.6 25.3034 101.515 26.015 102.972 25.7552C104.384 25.4954 105.005 23.7783 104.791 22.4678C104.531 21.1009 102.825 19.9486 100.927 20.2423C99.0745 20.5812 97.4364 23.1795 97.9109 25.9134C98.3854 28.6924 101.198 29.8447 104.328 29.2912C107.457 28.7715 110.066 25.0887 109.343 20.6829C108.575 16.2771 103.525 13.08 99.1649 13.8143C94.8494 14.5486 92.0139 17.7908 91.7427 18.4461C91.4716 19.1013 90.8164 19.3611 90.726 18.3105C90.3532 14.4356 87.6758 12.131 85.8683 12.4813C84.106 12.7863 82.6487 14.5373 82.8181 15.7235C83.0328 16.9549 83.8236 17.5762 84.5692 17.452C85.3148 17.3164 85.9361 16.7515 85.8118 16.0059C85.6876 15.2603 85.1566 14.8988 84.5353 14.9892C83.9591 15.1247 83.6541 14.6729 84.2302 14.0629C84.8064 13.4076 87.1449 12.5829 88.2746 14.4356C89.4494 16.3335 89.7093 19.1126 89.5624 22.2758C89.3704 25.4502 90.1273 32.9288 97.9109 36.3631C105.728 39.8313 113.456 34.3635 115.376 30.1046C115.161 29.7995 115.026 29.5736 114.935 29.2686L114.924 29.246Z" fill="black"/>
<path fill-rule="evenodd" clip-rule="evenodd" d="M114.067 35.6064C111.661 39.8202 105.606 42.6897 101.189 43.4127C96.9073 44.1131 93.8684 42.1587 92.2981 40.9499C90.9989 39.9445 89.0671 39.3119 88.6718 41.7181C87.9713 45.898 97.9805 45.6382 100.104 45.3332C105.877 44.5085 111.221 40.5997 114.056 35.6178L114.067 35.6064Z" fill="black"/>
<path fill-rule="evenodd" clip-rule="evenodd" d="M108.745 42.8477C105.356 46.3158 98.7699 47.5585 94.3189 47.1518C90.0035 46.7564 87.552 44.0904 86.3433 42.5201C85.3378 41.2209 83.632 40.1251 82.6378 42.3393C80.9094 46.2142 90.6587 48.4849 92.7938 48.7221C98.5892 49.3773 104.746 46.9485 108.756 42.8364L108.745 42.8477Z" fill="black"/>
<path d="M66.3272 34.6689C66.2143 41.2776 57.9901 44.0341 51.4265 42.814C52.4658 43.7064 53.042 44.5424 54.1265 45.175C45.281 45.4914 39.5647 37.6061 39.2936 29.4948C38.9434 19.1355 49.6077 12.4251 59.1198 15.0799C73.5121 19.0903 77.7824 37.9111 96.637 38.3969C101.958 38.5324 105.211 37.832 112.566 32.8952C103.664 44.3504 88.5258 39.3571 81.6685 34.3412C72.6309 27.7099 70.541 22.9878 63.1867 18.3786C55.8549 13.7694 46.7157 16.7744 44.2416 25.2698C42.1065 32.5789 46.919 42.6107 56.5779 42.3395C61.8423 42.1927 67.7845 36.6006 65.5703 30.8166C66.1126 32.2287 66.3385 33.5166 66.3159 34.6802L66.3272 34.6689Z" fill="black"/>
<path d="M35.7323 27.0994H0V30.5562H35.7323V27.0994Z" fill="black"/>
<path d="M222.819 25.3826C221.407 27.145 220.763 28.9073 220.47 30.9295C219.69 36.3181 223.147 42.2151 228.151 44.3729C245.436 51.8402 258.755 32.9403 248.735 18.8756C243.854 12.0296 233.879 8.52756 225.881 11.1711C203.897 18.4237 205.942 46.4741 223.023 53.546C240.183 60.6518 260.981 40.0574 273.08 31.3926C280.185 26.309 291.663 27.5291 293.166 37.5382C293.719 41.2323 291.166 45.5026 287.969 47.0841C283.823 49.1402 276.616 48.9594 275.915 42.9833C275.599 40.3172 277.226 38.4532 279.858 38.1143C280.513 38.0352 281.541 38.1708 281.936 37.4817C282.716 36.0922 280.547 34.7591 279.541 35.0077C272.594 36.6909 273.226 44.1695 276.469 47.2423C277.677 48.3946 279.722 49.2871 281.405 49.4678C285.484 49.8971 290.454 47.9766 292.646 44.3842C293.719 42.6218 294.781 39.2779 294.465 37.1993C292.77 25.8571 279.756 24.4676 271.69 30.2291C257.987 40.0461 240.601 59.3753 221.893 49.7164C206.529 41.7859 210.607 17.52 225.632 13.2158C251.932 5.68072 259.806 41.3453 237.121 44.5875C231.495 45.3896 224.909 41.9666 223.023 36.657C222.096 34.0361 221.611 30.5905 223.316 28.1956C224.412 26.6479 226.412 25.473 228.355 25.8458C230.309 26.2186 232.365 29.8675 234.478 27.9922C236.997 25.7554 233.427 22.8069 231.428 22.2082C228.151 21.2367 224.774 22.9425 222.808 25.3826H222.819Z" fill="black"/>
<path fill-rule="evenodd" clip-rule="evenodd" d="M243.969 51.4224C256.192 44.0342 269.15 46.5873 268.415 56.7659C267.941 63.0696 262.914 65.1483 259.434 64.911C255.955 64.6286 252.701 61.2621 252.939 57.7714C253.221 54.2919 256.011 51.9195 258.259 52.0889C262.281 52.3827 262.733 55.7718 261.321 56.7094C260.643 57.2065 260.575 56.4044 260.587 56.009C260.598 55.6249 259.977 54.8341 258.689 54.7437C257.446 54.676 256.565 55.9864 256.475 57.15C256.407 58.3588 257.616 59.6805 259.276 59.8161C260.903 59.9065 262.823 58.0651 262.993 55.6588C263.174 53.2187 261.039 51.6597 258.282 51.4902C255.537 51.2756 252.566 53.84 252.272 57.7149C252.012 61.5897 255.605 65.329 259.434 65.6114C263.23 65.8939 266.292 63.7362 266.653 63.2391C267.015 62.742 267.625 62.6516 267.478 63.5667C266.992 66.9106 268.777 69.4072 270.37 69.4976C271.917 69.6106 273.51 68.4357 273.612 67.3964C273.691 66.3119 273.149 65.6227 272.494 65.5775C271.838 65.5324 271.194 65.8826 271.149 66.5378C271.104 67.193 271.477 67.5997 272.008 67.6562C272.516 67.6562 272.686 68.0968 272.076 68.5035C271.454 68.9441 269.308 69.1587 268.743 67.3512C268.144 65.5098 268.506 63.1148 269.285 60.4713C270.099 57.8391 271.014 51.3659 265.162 46.8697C259.287 42.3284 251.3 44.9041 248.815 48.1011C248.928 48.4061 243.969 51.1287 243.98 51.4112L243.969 51.4224Z" fill="black"/>
<path fill-rule="evenodd" clip-rule="evenodd" d="M240.668 47.0843C250.022 45.8304 262.878 33.4489 259.681 22.0277C258.133 16.4808 253.016 19.3955 253.366 23.2364C254.066 30.8845 252.88 40.4643 240.917 47.0731H240.668V47.0843Z" fill="black"/>
<path fill-rule="evenodd" clip-rule="evenodd" d="M256.218 38.1822C260.59 34.2282 262.398 26.2639 262.104 20.83C261.821 15.5656 258.692 12.4703 256.839 10.9226C255.303 9.63475 254.049 7.51089 256.794 6.41508C261.573 4.4833 263.9 16.4468 264.092 19.0564C264.634 26.1396 261.392 33.5052 256.218 38.1935V38.1822Z" fill="black"/>
<path fill-rule="evenodd" clip-rule="evenodd" d="M268.73 31.2232C271.419 27.1901 277.666 24.75 282.117 24.332C286.433 23.9253 289.325 26.083 290.816 27.4048C292.047 28.5006 293.923 29.2575 294.488 26.8964C295.47 22.773 285.473 22.3437 283.326 22.5019C277.508 22.9199 271.916 26.4558 268.73 31.2344V31.2232Z" fill="black"/>
<path fill-rule="evenodd" clip-rule="evenodd" d="M268.656 14.0404C268.599 15.0798 268.486 16.0287 268.509 16.6049C268.825 24.0044 265.312 31.596 260.273 36.9055C264.645 32.3077 279.625 17.0454 273.706 10.335C271.186 7.47689 268.803 11.2614 268.656 14.0404Z" fill="black"/>
<path fill-rule="evenodd" clip-rule="evenodd" d="M266.73 16.6275C268.311 12.6962 268.018 7.07026 266.527 3.19539C265.815 1.35398 263.047 -1.18783 261.07 0.619682C258.641 2.84519 262.629 6.01966 263.533 7.88367C264.866 10.6175 266.244 14.5037 265.962 18.5706C265.962 18.5706 266.73 16.6501 266.73 16.6388V16.6275Z" fill="black"/>
<path fill-rule="evenodd" clip-rule="evenodd" d="M233.767 21.7449C236.512 22.1968 239.268 24.2528 240.567 26.388C241.189 27.4047 241.211 29.7997 239.381 30.2854C237.122 30.8842 237.325 27.6081 236.794 26.4784C236.003 24.8177 234.648 22.7391 232.434 21.5303C232.434 21.5303 233.778 21.7449 233.778 21.7562L233.767 21.7449Z" fill="black"/>
<path fill-rule="evenodd" clip-rule="evenodd" d="M219.025 22.8969C223.86 15.0004 233.88 14.5824 240.218 17.2598C244.578 19.1012 248.092 24.0492 248.092 29.8898C248.092 41.5596 233.101 49.3319 223.521 37.696L225.136 40.9043C233.79 49.8628 248.6 42.4972 249.165 29.9576C249.425 24.23 245.855 18.8074 241.426 16.2656C233.406 11.6565 220.29 16.0171 218.008 22.6371L219.025 22.8857V22.8969Z" fill="black"/>
<path fill-rule="evenodd" clip-rule="evenodd" d="M273.941 22.9651C276.946 21.2141 279.601 17.407 280.583 14.1422C281.047 12.5945 280.538 9.54435 278.347 9.71381C275.647 9.92845 276.63 13.9954 276.279 15.6673C275.76 18.1187 274.698 21.3271 272.461 23.8237C272.461 23.8237 273.93 22.9651 273.941 22.9651Z" fill="black"/>
<path fill-rule="evenodd" clip-rule="evenodd" d="M274.543 24.3659C278.169 21.1462 284.823 20.3554 289.24 21.0671C293.521 21.7676 295.781 24.5805 296.877 26.2412C297.792 27.6081 299.418 28.8169 300.559 26.6704C302.548 22.9311 292.979 19.9939 290.867 19.5985C285.128 18.5366 278.824 20.5475 274.531 24.3659H274.543Z" fill="black"/>
<path fill-rule="evenodd" clip-rule="evenodd" d="M294.353 29.9806C297.267 31.8785 299.741 35.7985 300.566 39.1085C300.961 40.6788 300.295 43.7064 298.126 43.424C295.448 43.0738 296.612 39.0633 296.341 37.3801C295.946 34.906 295.031 31.6525 292.918 29.0542L294.353 29.9806Z" fill="black"/>
<path d="M381.805 22.4676C379.331 14.5259 370.158 8.17693 361.64 9.15977C354.105 10.0296 349.485 12.7861 345.101 17.5535C339.351 23.7894 334.912 28.3421 327.681 32.8947C322.349 36.2612 310.363 40.78 302.647 33.2562L302.41 32.7366C310.126 40.2604 322.112 35.7416 327.444 32.3751C334.663 27.8224 339.114 23.2697 344.853 17.0338C349.236 12.2664 353.845 9.50999 361.392 8.64012C369.91 7.65728 379.218 13.6334 381.692 21.5639L381.794 22.4563L381.805 22.4676Z" fill="black"/>
<path fill-rule="evenodd" clip-rule="evenodd" d="M301.089 29.246C305.991 39.9781 322.847 37.8204 324.801 26.2297C325.998 19.0448 320.61 15.2829 316.645 14.6051C312.679 13.9612 308.115 16.8419 307.426 20.8072C306.782 24.7724 309.268 28.1954 311.821 28.6246C316.396 29.3928 317.842 25.7326 316.509 24.2866C315.888 23.541 315.583 24.4222 315.504 24.8628C315.413 25.3034 314.498 26.015 313.041 25.7552C311.629 25.4954 311.007 23.7783 311.222 22.4678C311.482 21.1009 313.188 19.9486 315.086 20.2423C316.938 20.5812 318.576 23.1795 318.102 25.9134C317.627 28.6924 314.814 29.8447 311.696 29.2912C308.567 28.7715 305.958 25.0887 306.681 20.6829C307.449 16.2771 312.499 13.08 316.859 13.8143C321.175 14.5486 324.01 17.7908 324.27 18.4461C324.53 19.1013 325.196 19.3611 325.287 18.3105C325.66 14.4356 328.337 12.131 330.144 12.4813C331.907 12.7863 333.364 14.5373 333.195 15.7235C332.98 16.9549 332.189 17.5762 331.444 17.452C330.698 17.3164 330.077 16.7515 330.201 16.0059C330.325 15.2603 330.856 14.8988 331.466 14.9892C332.042 15.1247 332.347 14.6729 331.771 14.0629C331.195 13.4076 328.857 12.5829 327.727 14.4356C326.552 16.3335 326.292 19.1126 326.439 22.2758C326.631 25.4502 325.874 32.9288 318.102 36.3631C310.284 39.8313 302.546 34.3635 300.637 30.1046C300.851 29.7995 300.987 29.5736 301.077 29.2686L301.089 29.246Z" fill="black"/>
<path fill-rule="evenodd" clip-rule="evenodd" d="M301.945 35.6064C304.34 39.8202 310.407 42.6897 314.824 43.4127C319.105 44.1131 322.144 42.1587 323.715 40.9499C325.014 39.9445 326.946 39.3119 327.341 41.7181C328.041 45.898 318.032 45.6382 315.908 45.3332C310.124 44.5085 304.792 40.5997 301.945 35.6178V35.6064Z" fill="black"/>
<path fill-rule="evenodd" clip-rule="evenodd" d="M307.253 42.8477C310.643 46.3158 317.229 47.5585 321.68 47.1518C325.995 46.7564 328.447 44.0904 329.655 42.5201C330.661 41.2209 332.367 40.1251 333.361 42.3393C335.089 46.2142 325.34 48.4849 323.205 48.7221C317.409 49.3773 311.253 46.9485 307.242 42.8364L307.253 42.8477Z" fill="black"/>
<path d="M349.676 34.6689C349.789 41.2776 358.002 44.0341 364.577 42.814C363.537 43.7064 362.961 44.5424 361.877 45.175C370.722 45.4914 376.439 37.6061 376.71 29.4948C377.06 19.1355 366.396 12.4251 356.872 15.0799C342.48 19.0903 338.21 37.9111 319.355 38.3969C314.045 38.5324 310.781 37.832 303.438 32.8952C312.34 44.3504 327.477 39.3571 334.323 34.3412C343.361 27.7099 345.451 22.9878 352.794 18.3786C360.126 13.7694 369.265 16.7744 371.739 25.2698C373.874 32.5789 369.062 42.6107 359.403 42.3395C354.138 42.1927 348.207 36.6006 350.41 30.8166C349.868 32.2287 349.642 33.5166 349.665 34.6802L349.676 34.6689Z" fill="black"/>
<path d="M415.998 27.0996H380.266V30.5565H415.998V27.0996Z" fill="black"/>
</svg>
