<svg width="218" height="235" viewBox="0 0 218 235" fill="none" xmlns="http://www.w3.org/2000/svg">
<path d="M134.654 176.984C134.332 177.642 135.305 178.157 135.661 177.52C137.474 174.259 139.175 170.934 140.884 167.614C141.228 166.958 140.221 166.423 139.868 167.074C138.098 170.359 136.32 173.639 134.654 176.984Z" fill="#232321"/>
<path d="M124.953 156.904C129.365 158.642 133.417 160.924 137.177 163.811C137.482 164.044 137.906 163.608 137.594 163.37C133.834 160.403 129.761 158.017 125.329 156.173C124.835 155.969 124.454 156.708 124.945 156.899L124.953 156.904Z" fill="#232321"/>
<path d="M110.102 164.449C114.321 165.822 118.191 167.618 121.868 170.11C122.268 170.376 122.594 169.733 122.212 169.455C118.554 166.869 114.6 164.818 110.306 163.516C109.716 163.337 109.517 164.262 110.102 164.449Z" fill="#232321"/>
<path d="M185.854 122.863C185.893 122.736 185.918 122.531 185.942 122.21C185.929 122.433 185.884 122.65 185.854 122.863Z" fill="#232321"/>
<path d="M52.8001 39.0586C52.8634 39.049 52.9353 39.0443 53.0073 39.0397C61.4848 43.5762 67.8645 50.1463 73.4493 57.493C70.225 56.7977 66.9957 56.111 63.78 55.4207C63.2051 55.2966 63.0126 56.1901 63.5875 56.3142C67.128 57.0419 70.6771 57.7746 74.2126 58.511C75.3148 60.0019 76.4021 61.5187 77.452 63.0602C74.1705 61.8238 70.766 61.2207 67.2292 61.3265C66.7355 61.3417 66.7792 62.106 67.2643 62.0858C71.0009 61.9338 74.5878 62.5612 78.0411 63.9199C79.3707 65.8769 80.6717 67.8636 81.9626 69.8675C78.0333 68.4534 74.0052 67.4903 69.826 67.0289C69.2829 66.9694 69.0931 67.8182 69.6411 67.869C74.0612 68.2732 78.3449 69.2337 82.5121 70.7159C83.5776 72.3703 84.6345 74.0197 85.705 75.6655C81.4131 74.6194 77.0908 73.7058 72.7237 73.0898C72.1994 73.018 72.0136 73.7998 72.5452 73.8989C77.1817 74.7283 81.7846 75.596 86.3567 76.6768C87.7402 78.7804 89.1338 80.8667 90.566 82.906C85.5225 81.8417 80.567 80.5048 75.6119 79.0874C75.1275 78.9463 74.9654 79.7072 75.4447 79.8569C80.5157 81.4336 85.7225 82.6153 90.9349 83.6271C90.9882 83.6348 91.0255 83.6101 91.0665 83.5991C91.4918 84.2026 91.917 84.8061 92.3522 85.3922C93.6443 87.1543 94.9973 88.8708 96.3704 90.5527C91.2061 89.8574 86.1703 88.7397 81.1468 87.3406C80.6575 87.2081 80.5003 87.9603 80.9797 88.1101C86.1563 89.6439 91.4867 90.6314 96.8485 91.2444C96.8658 91.2544 96.8895 91.2335 96.9082 91.2211C98.4873 93.1259 100.114 94.9887 101.783 96.8182C96.4341 96.2821 91.1907 95.264 86.0341 93.6956C85.5411 93.5495 85.3639 94.3364 85.8569 94.4824C91.3024 96.0906 96.8287 97.0988 102.468 97.5717C104.075 99.3079 105.711 101.015 107.39 102.665C102.783 102.465 98.1849 102.27 93.5815 102.083C93.0049 102.062 93.0355 102.969 93.6259 102.986C98.4478 103.114 103.266 103.229 108.089 103.335C109.681 104.877 111.288 106.394 112.943 107.869C109.291 107.573 105.6 107.406 101.958 107.254C101.404 107.234 101.457 108.062 102.002 108.099C105.95 108.381 109.957 108.639 113.93 108.739C117.363 111.772 120.908 114.673 124.573 117.424C124.542 117.418 124.516 117.403 124.48 117.405C118.49 117.48 112.565 117.003 106.772 115.437C103.527 114.557 100.307 113.414 97.2873 111.924C95.6598 111.123 92.6483 110.539 96.2931 110.126C96.7039 110.075 96.819 109.576 96.4653 109.348C91.948 106.532 87.5567 103.558 83.4514 100.149C82.6531 99.4916 72.5641 90.8262 77.4258 90.6655C77.8972 90.649 78.066 90.0767 77.7673 89.7541C72.6835 84.3595 67.6843 78.8983 62.8235 73.2975C61.9436 72.2814 58.248 69.3625 59.2606 67.8687C59.2406 67.9033 64.7773 67.3934 65.4813 67.234C65.7582 67.1745 65.8702 66.8004 65.7224 66.5765C60.1901 58.2787 55.5622 49.3944 53.2253 39.6621C53.0353 38.8711 51.7759 39.2525 52.0205 40.0288C53.5285 44.837 55.1307 49.6418 57.2301 54.2256C58.2718 56.5014 59.4291 58.7168 60.7257 60.8511C61.5714 62.2862 62.5004 63.6771 63.4904 65.0223C62.0498 67.3775 59.9745 67.9922 57.2693 66.8576C57.0201 66.8292 56.7075 67.1106 56.9073 67.3646C60.7141 72.0912 64.5234 76.7731 68.5517 81.3159C71.1953 84.297 77.7592 87.9481 73.3546 91.017C73.0884 91.1982 73.0596 91.528 73.2831 91.7609C77.2965 96.0295 81.5319 100.034 86.2071 103.576C87.7969 104.782 89.4716 105.842 91.09 107.019C92.5279 108.068 96.3697 109.374 92.3825 109.52C91.7808 109.542 91.7042 110.295 92.1396 110.581C101.743 116.806 113.161 119.311 124.514 118.406C124.924 118.377 125.059 117.982 124.946 117.697C127.232 119.398 129.542 121.078 131.91 122.676C143.409 130.459 156.083 137.568 169.398 142.865C168.992 143.289 168.552 143.67 168.142 144.08C167.944 144.023 167.727 144.06 167.642 144.287C167.579 144.436 167.538 144.586 167.476 144.734C166.867 145.33 166.224 145.882 165.603 146.459C153.022 139.53 138.553 138.971 125.444 144.855C124.98 145.06 124.695 145.692 125.16 146.088C124.998 145.948 116.471 147.618 115.002 147.902C110.229 148.829 105.727 150.387 101.302 152.371C100.681 152.647 100.642 153.514 101.356 153.718C105.119 154.759 99.3523 156.268 98.4096 156.821C96.3664 158.02 94.4569 159.527 92.7923 161.21C89.4581 164.585 87.2351 168.555 86.1269 173.135C85.4454 172.695 84.5816 173.651 85.2477 174.198C88.6499 177.005 92.0962 179.376 96.1504 181.174C99.0174 182.448 106.999 183.684 104.053 187.965C103.705 188.468 104.255 189.017 104.737 189.041C111.214 189.363 117.39 188.425 123.179 185.659C122.392 186.982 121.732 188.426 122.26 189.77C122.38 190.082 122.621 190.244 122.948 190.259C127.131 190.354 132.124 187.486 135.716 185.484C139.906 183.146 143.889 180.168 147.187 176.656C146.9 177.992 146.623 179.333 146.336 180.669C146.216 181.258 146.924 181.851 147.463 181.458C153.197 177.286 158.167 172.038 161.298 165.635C161.645 167.094 161.997 168.545 162.344 170.004C162.491 170.608 163.448 170.711 163.702 170.13C166.97 162.71 166.135 154.457 167.915 146.674C168.976 145.635 170.017 144.573 171.028 143.483C179.808 146.854 188.866 149.405 198.036 150.843C195.872 151.21 193.899 151.988 191.912 153.23C191.46 153.513 191.593 154.202 192.101 154.322C192.274 154.363 192.446 154.405 192.627 154.452C189.173 156.153 186.863 159.034 185.854 162.943C185.76 163.305 186.093 163.728 186.477 163.684C187.139 163.616 187.68 163.5 188.193 163.312C187.015 166.731 187.397 170.231 189.343 173.34C189.336 173.371 189.33 173.402 189.323 173.433C189.256 173.81 189.529 174.037 189.814 174.063C189.86 174.124 189.896 174.202 189.941 174.263C190.285 174.727 191.038 174.284 190.719 173.777C190.629 173.632 190.561 173.489 190.48 173.35C190.534 173.197 190.574 173.047 190.62 172.888C190.378 173.326 191.052 173.819 191.368 173.412C192.37 172.097 192.707 171.634 193.666 170.271C194.196 169.514 196.071 165.366 196.732 168.161C196.825 168.561 197.375 168.648 197.638 168.372C198.817 167.09 199.915 165.807 200.872 164.351C202.105 162.476 202.313 160.055 203.285 163.411C203.385 163.758 203.93 163.934 204.16 163.616C206.862 160.015 207.674 155.969 206.399 151.838C214.492 152.48 222.65 152.19 230.767 150.711C231.437 150.59 231.238 149.435 230.56 149.529C222.226 150.745 213.891 150.84 205.652 150.032C205.464 149.877 205.2 149.875 204.997 149.966C192.935 148.718 181.07 145.528 169.659 140.972C169.801 141.008 169.958 140.995 170.113 140.887C175.839 136.988 184.854 130.254 185.83 122.803C185.554 123.741 184.894 119.884 184.807 120.376C185.174 118.279 187.474 116.236 188.599 114.448C192.005 109.048 193.928 103.138 194.826 96.8431C194.891 96.3497 194.3 95.9737 193.922 96.3677C187.885 102.824 191.586 93.4139 191.641 89.6584C191.713 84.954 190.754 80.6358 189.155 76.2254C189.016 75.8452 188.542 75.6062 188.178 75.8576C186.335 77.1493 184.33 69.5022 183.942 68.6546C182.58 65.7324 180.862 63.089 178.938 60.5005C178.71 60.1956 178.34 60.0972 178.019 60.2123C177.822 59.9138 177.442 59.7521 177.064 60.0072C173.253 62.5875 169.828 65.4598 166.916 69.0439C165.015 71.376 162.516 78.5242 160.213 74.8735C159.944 74.4407 159.258 74.4488 159.024 74.9141C157.151 78.6368 155.446 82.4098 154.041 86.3442C153.276 88.4891 152.709 90.6907 151.993 92.8519C151.321 94.8546 151.728 97.6298 149.291 95.4719C148.78 95.0157 148.137 95.4295 148.084 96.0222C147.741 100.016 147.658 103.94 148.054 107.933C148.121 108.618 149.539 115.822 148.035 115.127C147.485 114.879 146.91 115.355 147.059 115.938C149.508 125.596 155.016 132.795 163.425 138.031C163.857 138.303 164.226 137.604 163.794 137.332C159.517 134.62 156.04 131.342 153.226 127.096C152.154 125.473 151.32 123.837 150.536 122.056C150.472 121.927 147.563 116.425 150.11 117.653C150.689 117.93 151.276 117.414 151.128 116.809C150.084 112.558 149.355 108.28 149.215 103.904C149.152 101.893 147.974 96.2127 150.93 98.8319C151.334 99.1922 151.995 99.0078 152.113 98.4638C153.083 94.0239 154.278 89.714 155.865 85.4456C156.735 83.1188 158.584 74.8563 161.227 79.0382C161.493 79.4574 162.177 79.4716 162.408 78.9926C165.837 71.8733 170.413 66.4671 176.785 61.9706C174.842 65.4561 173.004 69.0598 171.309 72.7349C170.938 72.0585 170.617 71.3538 170.38 70.6048C170.245 70.2383 169.697 70.407 169.805 70.7809C170.084 71.7161 170.484 72.6047 170.99 73.4281C170.169 75.2292 169.383 77.0502 168.651 78.879C168.008 77.5725 167.321 76.2633 166.557 75.0258C166.337 74.6676 165.833 75.0002 166.012 75.3694C166.705 76.8089 167.525 78.229 168.38 79.5885C167.498 81.816 166.699 84.0798 165.962 86.3563C164.925 84.9724 164.133 83.4643 163.531 81.8467C163.396 81.4802 162.821 81.6562 162.951 82.0314C163.544 83.7247 164.426 85.2964 165.524 86.7153C165.603 86.8186 165.723 86.8303 165.819 86.8047C164.073 92.2284 162.77 97.746 162.051 103.29C160.621 101.586 159.433 99.7454 158.386 97.7785C158.188 97.4217 157.698 97.7507 157.86 98.1099C158.892 100.322 160.291 102.319 161.91 104.155C161.927 104.165 161.936 104.17 161.945 104.175C161.625 106.889 161.453 109.607 161.433 112.32C158.982 109.947 156.948 107.329 154.9 104.576C154.593 104.168 153.948 104.546 154.216 105.001C156.089 108.138 158.723 110.894 161.423 113.319C161.434 114.699 161.476 116.086 161.576 117.472C161.558 117.485 161.539 117.497 161.526 117.501C161.143 117.684 161.306 118.24 161.65 118.346C161.731 119.305 161.848 120.262 161.965 121.219C159.699 118.605 157.458 115.926 155.048 113.46C154.697 113.108 154.234 113.649 154.536 114.008C156.924 116.911 159.592 119.629 162.136 122.403C162.435 124.365 162.811 126.314 163.317 128.258C163.126 128.448 162.949 128.634 162.75 128.819C162.703 128.861 162.7 128.906 162.698 128.951C160.004 126.276 157.543 123.458 155.403 120.305C155.09 119.847 154.364 120.305 154.677 120.763C157.076 124.227 159.808 127.456 162.978 130.244C163.323 130.547 163.802 130.038 163.467 129.718C163.289 129.546 163.116 129.366 162.938 129.194C162.997 129.193 163.046 129.187 163.094 129.145C163.221 129.045 163.335 128.926 163.453 128.821C163.964 130.698 164.537 132.565 165.254 134.422C165.253 134.444 165.265 134.463 165.278 134.482C165.401 134.807 165.553 135.125 165.676 135.451C163.343 133.492 161 131.55 158.649 129.604C158.282 129.299 157.761 129.842 158.136 130.151C160.811 132.318 163.472 134.49 166.17 136.636C166.696 137.864 167.255 139.076 167.886 140.283C152.516 133.926 138.021 125.131 125.091 115.367C122.523 113.435 120.064 111.414 117.643 109.347C116.231 104.132 115.218 98.9284 114.717 93.5356C114.659 92.9362 113.73 92.9656 113.769 93.5772C114.119 98.4906 115.024 103.424 116.455 108.165C116.388 108.161 116.321 108.157 116.259 108.144C114.548 106.648 112.879 105.119 111.239 103.56C110.509 97.2032 109.33 90.9453 107.703 84.7635C107.531 84.1215 106.536 84.4247 106.717 85.0717C108.336 90.8677 109.541 96.7598 110.371 102.723C108.261 100.697 106.214 98.603 104.223 96.4719C103.514 89.5388 102.188 82.5956 100.346 75.8858C100.158 75.2114 99.14 75.5356 99.3056 76.2086C100.934 82.5876 102.236 88.9738 103.28 95.4655C101.248 93.2647 99.3056 90.9887 97.392 88.683C97.4494 88.6237 97.4821 88.5271 97.4664 88.4142C96.3387 81.2275 94.4627 74.1168 91.4795 67.4639C91.2351 66.9071 90.3149 67.161 90.5529 67.7488C93.2193 74.2304 95.3124 80.7851 96.5605 87.6833C93.9193 84.4379 91.3778 81.1 88.9459 77.6521C89.0679 77.5609 89.1442 77.4086 89.1103 77.2274C89.1116 77.2051 89.0993 77.1864 89.0957 77.1728C89.3036 76.9926 89.3067 76.5672 88.9536 76.4788C87.5783 69.4609 85.1809 62.4533 81.4213 56.3452C81.0703 55.7731 80.2406 56.3102 80.5419 56.8883C83.8271 63.1382 86.445 69.3839 88.0319 76.2353C88.0059 76.2203 87.9786 76.2276 87.9526 76.2126C87.3635 75.3529 86.7658 74.4882 86.1904 73.6248C84.1908 70.5882 82.1789 67.5329 80.1197 64.5196C80.4122 64.573 80.7617 64.3475 80.6356 63.986C78.8027 58.6208 76.2737 53.5811 73.1293 48.8674C72.751 48.3026 71.8393 48.8616 72.2263 49.4314C75.2638 53.9102 77.7046 58.7027 79.6009 63.7582C77.2803 60.3976 74.865 57.121 72.2641 54.0259C72.4247 53.8877 72.5051 53.6685 72.3349 53.4432C69.8777 50.1193 67.4491 46.7657 64.9546 43.4664C64.5526 42.9226 63.6459 43.473 64.0515 44.0305C65.3609 45.8026 66.6753 47.566 68.0033 49.3258C63.9878 45.2408 59.5088 41.6387 54.2633 38.8642C63.5451 37.9877 72.6749 40.3143 79.7663 46.6717C80.1703 47.032 80.7005 46.6337 80.5997 46.1483C79.4591 40.4437 87.5969 48.0288 89.6592 49.4966C95.1886 53.4396 101.241 58.2159 103.32 64.9355C103.44 65.3279 103.845 65.3657 104.112 65.1846C104.166 65.4701 104.234 65.752 104.289 66.0375C104.375 66.4683 105.095 66.3412 105.045 65.9081C104.917 64.8297 103.694 59.8281 103.825 59.6612C103.868 59.6056 110.578 68.7447 111.206 69.6963C115.327 76.0591 119.397 83.1895 120.169 90.8521C119.949 91.4527 119.756 92.0683 119.595 92.7262C119.441 93.3532 120.396 93.5584 120.568 92.9414C120.605 92.7779 120.654 92.6329 120.69 92.4694C120.965 92.5128 121.28 92.348 121.298 91.9772C121.308 91.5791 121.279 91.1696 121.272 90.7615C121.573 90.0807 121.939 89.4262 122.375 88.8116C125.021 97.429 125.775 105.982 125.162 115.004C125.116 115.624 126.167 115.723 126.263 115.097C127.615 105.775 126.385 96.1265 123.219 87.2897C123.023 86.7493 122.386 86.7514 122.078 87.1854C121.725 87.6974 121.426 88.1947 121.145 88.702C119.877 77.058 110.494 65.2899 103.116 57.2083C102.704 56.7624 101.934 57.2762 102.125 57.8253C102.611 59.2031 103.017 60.5804 103.373 61.9638C99.3046 52.4904 87.6079 45.8297 78.8237 41.9244C78.3483 41.7077 77.8165 42.2089 78.1145 42.6927C80.5369 46.597 74.9038 41.9937 74.3099 41.6624C72.4713 40.647 70.5486 39.8372 68.5583 39.1846C63.3217 37.4545 58.1074 37.146 52.6725 37.8995C51.9539 38.0042 51.9935 39.1357 52.7208 39.0359L52.8001 39.0586ZM204.706 151.749C204.88 151.769 205.05 151.775 205.215 151.789C205.888 153.702 206.204 155.674 205.833 157.758C205.505 159.566 204.326 163.308 203.251 159.57C203.124 159.15 202.471 159.061 202.284 159.485C201.482 161.273 198.473 168.785 196.847 165.202C196.653 164.778 196.228 164.695 195.908 164.949C195.976 163.51 196.329 162.12 196.936 160.808C197.095 160.472 196.6 160.21 196.424 160.535C195.676 161.951 195.277 163.441 195.191 165.031C195.176 165.277 195.376 165.369 195.575 165.345C193.862 167.832 192.18 170.325 190.653 172.93C192.4 166.965 195.023 161.782 198.848 157.316C198.38 158.547 198.167 159.856 198.199 161.179C198.208 161.704 199.012 161.672 199.017 161.143C199.015 159.468 199.338 157.888 199.951 156.325C199.984 156.228 199.976 156.143 199.935 156.073C200.591 155.378 201.272 154.697 201.988 154.037C201.522 155.165 201.471 156.452 201.889 157.629C202.051 158.068 202.713 157.862 202.579 157.415C202.155 155.888 202.421 154.448 203.266 153.124C203.306 153.054 203.315 152.979 203.297 152.91C203.764 152.522 204.218 152.114 204.711 151.741L204.706 151.749ZM201.365 151.356C202.032 151.441 202.703 151.54 203.366 151.611C202.87 151.971 202.401 152.382 201.929 152.779C201.89 152.768 201.86 152.739 201.806 152.754C200.555 152.979 199.307 153.182 198.059 153.443C197.651 153.53 197.853 154.12 198.246 154.059C199.188 153.887 200.123 153.688 201.063 153.48C200.132 154.293 199.225 155.143 198.369 156.046C198.397 155.878 198.275 155.669 198.051 155.736C196.52 156.168 194.905 156.506 193.419 157.08C193.001 157.243 193.185 157.845 193.625 157.742C195.161 157.382 196.677 156.756 198.177 156.259C197.124 157.383 196.126 158.551 195.223 159.796C195.166 159.694 195.04 159.632 194.902 159.691C193.639 160.278 192.341 160.846 191.123 161.516C190.766 161.714 191.099 162.218 191.458 162.056C192.634 161.499 193.77 160.851 194.911 160.216C192.462 163.698 190.637 167.598 189.682 171.792C188.393 168.704 188.459 165.51 190.007 162.269C190.257 161.756 189.658 161.074 189.137 161.455L187.879 160.775C188.34 159.736 188.968 158.829 189.746 158.042C191.17 156.555 192.777 155.612 194.736 154.919C195.298 154.724 195.276 153.903 194.689 153.76C194.432 153.704 194.172 153.635 193.916 153.579C196.087 152.478 198.294 151.916 200.841 151.804C201.146 151.796 201.311 151.59 201.36 151.365L201.365 151.356ZM86.8613 173.663C90.6333 165.009 96.3795 158.697 105.421 155.476C106.044 155.258 106.024 154.531 105.543 154.184C101.551 151.36 108.129 151.185 110.781 150.453C116.202 148.964 121.652 148.404 127.255 148.359C127.882 148.352 128.084 147.683 127.861 147.209C126.054 143.279 139.985 142.35 142.289 142.259C150.124 141.968 157.57 143.911 164.438 147.576C163.33 148.576 162.197 149.538 161.051 150.482C158.239 147.993 154.888 146.277 151.175 145.508C150.618 145.394 150.428 146.242 150.984 146.379C154.534 147.25 157.621 148.744 160.383 151.02C158.914 152.204 157.408 153.332 155.891 154.42C152.464 151.356 148.617 149.019 144.294 147.366C143.707 147.143 143.242 148.029 143.834 148.244C148.047 149.787 151.806 152.015 155.227 154.89C153.533 156.084 151.812 157.226 150.066 158.308C145.185 154.543 139.727 151.796 133.728 150.226C133.107 150.064 132.891 151.036 133.513 151.199C139.32 152.762 144.536 155.208 149.365 158.723C147.849 159.649 146.291 160.528 144.73 161.371C141.561 158.64 137.982 156.458 134.004 155.109C133.561 154.956 133.264 155.732 133.711 155.897C137.527 157.327 140.957 159.146 144.101 161.7C140.45 163.645 136.712 165.378 132.861 166.85C132.937 166.617 133.005 166.379 133.082 166.146C133.253 165.61 132.42 165.452 132.233 165.956C132.174 166.119 132.115 166.281 132.061 166.434C128.38 164.17 124.498 162.414 120.353 161.153C119.803 160.985 119.602 161.874 120.157 162.033C124.28 163.212 128.139 164.909 131.811 167.087L131.762 167.232C126.008 169.359 120.043 170.95 113.955 172.054C110.56 169.655 107.035 167.401 103.298 165.613C102.711 165.331 102.241 166.204 102.823 166.516C106.207 168.355 109.533 170.194 112.756 172.251C110.466 172.638 108.14 172.946 105.814 173.196C105.93 173.056 105.959 172.865 105.771 172.71C102.675 170.333 99.331 168.565 95.6341 167.308C94.9666 167.084 94.7174 168.176 95.3986 168.396C98.9213 169.494 102.18 171.11 105.183 173.248C99.202 173.848 93.1311 174.003 86.9893 173.621C86.9446 173.619 86.9036 173.63 86.8626 173.64L86.8613 173.663ZM163.179 167.437C162.936 166.558 162.701 165.684 162.445 164.808C162.268 164.175 161.51 164.268 161.267 164.729C161.108 164.683 160.927 164.717 160.813 164.894C157.263 170.384 153.339 175.14 148.209 179.106L148.941 175.498C149.108 174.648 147.904 174.334 147.6 175.059C147.484 175.061 147.37 175.099 147.256 175.196C143.445 178.676 139.578 181.894 135.042 184.391C132.837 185.611 130.529 186.669 128.173 187.549C126.876 188.036 125.659 189.042 124.741 187.773C123.914 186.626 124.991 185.481 125.547 184.278C125.886 183.55 124.836 182.989 124.439 183.696C124.334 183.878 124.219 184.077 124.104 184.276C119.665 185.985 115.322 187.347 110.487 187.661C106.237 187.944 106.834 187.688 107.735 184.409C107.814 184.132 107.644 183.826 107.402 183.686C104.562 182.104 101.131 181.867 98.1101 180.619C94.5816 179.171 91.394 177.192 88.4001 174.898C91.5898 175.273 94.8003 175.452 97.9892 175.469C97.2894 176.081 96.6019 176.712 96.0666 177.419C95.6974 177.898 96.2098 178.691 96.7846 178.295C97.9019 177.52 98.8718 176.44 99.8275 175.445C102.648 175.399 105.457 175.254 108.253 174.951C107.316 177.054 105.776 178.602 103.681 179.61C103.077 179.896 103.555 180.968 104.176 180.692C106.594 179.605 108.407 177.684 109.322 175.199C109.37 175.077 109.359 174.955 109.33 174.846C111.329 174.603 113.319 174.297 115.299 173.927C115.342 173.952 115.377 173.972 115.42 173.997C115.618 174.134 115.823 173.999 115.92 173.812C116.128 173.771 116.341 173.743 116.563 173.698C115.679 176.548 113.941 178.72 111.604 180.547C111.054 180.979 111.574 181.88 112.193 181.487C114.941 179.748 116.737 176.997 117.621 173.905C117.671 173.738 117.635 173.601 117.57 173.494C119.575 173.082 121.569 172.628 123.541 172.092C121.87 174.707 120.106 177.361 118.748 180.133C118.416 180.808 119.345 181.24 119.747 180.663C121.603 178.028 123.133 175.078 124.682 172.255C124.787 172.073 124.766 171.91 124.688 171.785C126.762 171.192 128.825 170.559 130.863 169.83C129.754 172.85 128.649 175.884 127.716 178.96C127.537 179.55 128.523 179.922 128.747 179.335C129.995 176.073 131.057 172.713 132.109 169.372C137.415 167.401 142.563 165.004 147.464 162.175C146.123 164.738 145.248 167.454 144.813 170.367C144.71 171.046 145.77 171.289 145.862 170.591C146.328 167.223 147.438 164.1 149.128 161.173C150.881 160.118 152.617 159.03 154.313 157.873C152.765 160.894 151.644 164.196 150.936 167.482C150.807 168.066 151.695 168.267 151.847 167.685C152.8 163.974 154.107 160.491 155.589 156.982C157.405 155.698 159.196 154.376 160.92 152.97C158.299 156.468 156.807 160.733 156.541 165.095C156.507 165.653 157.452 165.736 157.521 165.176C158.078 160.613 159.533 156.672 161.94 152.762C162.055 152.563 161.932 152.376 161.758 152.299C163.361 150.961 164.944 149.6 166.455 148.163C164.914 154.491 165.247 161.195 163.197 167.425L163.179 167.437ZM166.292 134.086C169.337 130.751 171.711 126.718 173.712 122.712C173.983 122.164 173.149 121.729 172.878 122.277C170.94 126.215 168.515 129.734 166.033 133.313C165.45 131.544 164.965 129.763 164.54 127.959C170.77 122.388 175.761 115.604 179.012 107.874C179.262 107.28 178.386 106.797 178.108 107.399C174.598 114.898 170.156 121.433 164.402 127.279C163.714 124.191 163.27 121.06 163.028 117.918C169.666 114.961 174.682 109.173 176.763 102.188C176.882 101.783 176.198 101.527 176.057 101.931C173.573 108.694 169.191 113.543 162.972 116.835C162.769 113.507 162.809 110.158 163.059 106.804C163.119 107.001 163.321 107.152 163.569 107.041C169.818 103.998 174.347 98.1138 176.214 91.4787C176.271 91.2805 175.934 91.1438 175.864 91.3457C173.346 97.9865 169.176 102.669 163.202 106.437C163.132 106.477 163.111 106.534 163.085 106.6C163.433 102.136 164.176 97.6691 165.296 93.2696C166.928 86.9026 169.247 80.7471 171.988 74.7783C172.247 74.9506 172.652 74.6883 172.423 74.4057C172.36 74.3347 172.329 74.2477 172.271 74.1681C173.126 72.3287 174.023 70.5144 174.951 68.7063C176.674 65.3824 177.41 61.7886 180.387 65.2513C183.235 68.5584 184.67 73.9938 185.777 78.1552C185.88 78.5377 186.401 78.7348 186.728 78.508C189.793 76.4205 190.309 87.3069 190.343 88.5276C190.453 92.656 189.717 96.5722 188.606 100.515C188.465 101 189.036 101.271 189.41 101.083C193.331 99.1323 194.262 97.199 192.466 103.171C190.514 109.631 187.266 115.076 182.792 120.126C182.484 120.479 182.666 120.965 183.088 121.093C190.15 123.242 170.42 139.275 169.504 139.901C169.028 140.226 169.258 140.867 169.667 140.999C169.453 140.91 169.233 140.83 169.028 140.746C169.021 140.719 169.013 140.691 169.006 140.664C167.966 138.505 167.082 136.297 166.31 134.073L166.292 134.086Z" fill="#232321"/>
<path d="M166.558 98.1655C170.421 95.5345 173.386 91.4384 175.114 87.1247C175.198 86.9192 174.908 86.7629 174.806 86.9584C172.625 91.2763 169.783 94.5196 166.186 97.7086C165.931 97.9308 166.283 98.3417 166.554 98.1518L166.558 98.1655Z" fill="#232321"/>
<path d="M170.186 87.2011C169.926 87.5708 170.42 88.0753 170.716 87.7033C172.541 85.3622 173.954 82.7141 175.086 79.973C175.218 79.6449 174.745 79.3835 174.6 79.7153C173.403 82.4078 171.897 84.8173 170.194 87.2061L170.186 87.2011Z" fill="#232321"/>
<path d="M171.754 79.7458C171.467 80.1229 171.974 80.6237 172.301 80.258C173.935 78.4073 175.167 76.1739 176.153 73.9258C176.319 73.5594 175.763 73.2617 175.598 73.6281C174.563 75.8599 173.225 77.7777 171.759 79.7372L171.754 79.7458Z" fill="#232321"/>
<path d="M159.658 88.6163C160.875 90.6472 162.015 92.5525 162.959 94.7373C163.109 95.0778 163.642 94.9351 163.535 94.5612C162.88 92.3356 161.711 89.9402 160.18 88.1907C159.916 87.8881 159.462 88.2954 159.653 88.6249L159.658 88.6163Z" fill="#232321"/>
<path d="M59.2978 50.9631C62.73 51.4782 65.9929 52.4267 69.133 53.9279C69.7692 54.226 70.2796 53.262 69.6484 52.9553C66.434 51.4228 63.0735 50.3833 59.5407 49.9024C58.8564 49.8076 58.6099 50.8546 59.3064 50.9681L59.2978 50.9631Z" fill="#232321"/>
</svg>
