<svg width="416" height="77" viewBox="0 0 416 77" fill="none" xmlns="http://www.w3.org/2000/svg">
<path d="M15.5849 21.5123C15.5849 21.5123 16.0519 22.1691 16.913 23.4242C17.8178 24.5334 19.1313 26.2263 21.2329 28.0069C23.3054 29.802 26.0637 31.7285 29.5664 33.3485C33.0691 34.9393 37.2431 36.3112 41.9571 37.0263C46.6566 37.7706 51.8522 37.7852 57.3251 37.2598C62.7981 36.7344 68.5045 35.596 74.3569 34.1657C80.2385 32.6771 86.3244 31.1593 92.4979 29.5977C98.7005 28.0653 105.035 26.6204 111.383 25.2777C117.732 23.935 124.124 22.7529 130.429 21.6729C136.719 20.5929 142.951 19.6296 149.095 19.0313C155.225 18.4183 161.253 18.2578 166.974 18.6518C169.834 18.8707 172.622 19.221 175.278 19.7464C176.737 20.0237 177.832 20.2572 179.16 20.6221C180.473 20.9723 181.714 21.3518 182.911 21.7604C187.712 23.3804 191.857 25.555 195.272 27.861C198.658 30.2107 201.314 32.6771 203.226 34.9247C205.197 37.143 206.379 39.1425 207.196 40.4852C207.926 41.8863 208.305 42.6306 208.305 42.6306C208.582 43.1706 208.378 43.8273 207.838 44.1046C207.357 44.3527 206.758 44.2068 206.452 43.7835L206.408 43.7106C206.408 43.7106 205.955 43.083 205.08 41.8862C204.613 41.3171 204.058 40.6165 203.358 39.8139C202.628 39.0403 201.825 38.1354 200.818 37.216C198.833 35.3625 196.25 33.3047 192.996 31.4074C189.756 29.4809 185.844 27.7442 181.408 26.3869C180.284 26.0512 179.16 25.7447 178.007 25.482C176.883 25.2339 175.468 24.8982 174.358 24.7231C171.877 24.2707 169.28 23.9788 166.594 23.8037C161.223 23.395 155.488 23.5556 149.533 24.0518C143.593 24.548 137.405 25.3653 131.115 26.1972C124.825 27.0436 118.461 28.0507 112.098 29.1161C105.735 30.1961 99.4011 31.3782 93.1838 32.6625C86.9665 33.9614 80.8952 35.4355 74.9261 36.7198C68.9715 37.9749 63.1191 39.0111 57.5148 39.5073C51.9106 39.9744 46.5106 39.8868 41.636 39.0549C36.7469 38.296 32.3831 36.8657 28.7199 35.1874C25.0713 33.4652 22.1086 31.4658 19.8902 29.5831C17.6427 27.7296 16.1686 25.9053 15.1616 24.6648C14.286 23.4242 13.8043 22.7674 13.8043 22.7674C13.4541 22.2712 13.5708 21.5999 14.0524 21.2496C14.5487 20.8994 15.22 21.0161 15.5703 21.4977L15.5849 21.5123Z" fill="#1D262D"/>
<path d="M209.009 45.5635C209.009 45.5635 209.462 46.4246 210.148 48.103C210.79 49.7522 211.695 52.1311 212.366 55.1084C213.096 58.0564 213.563 61.6029 213.548 65.4558C213.534 67.3531 213.373 69.3964 212.775 71.4396C212.483 72.4612 212.06 73.4828 211.476 74.4461C211.184 74.9277 210.819 75.4531 210.235 75.9201C209.914 76.1536 209.666 76.3434 209.141 76.5185C208.995 76.5623 208.98 76.5915 208.659 76.6352C208.396 76.679 208.163 76.6936 207.958 76.679C207.097 76.6498 206.382 76.3142 205.813 75.9347C205.244 75.5407 204.791 75.0882 204.397 74.592C204.018 74.0958 203.697 73.5996 203.434 73.0012C203.23 72.5634 203.026 72.111 202.821 71.5418C202.048 69.4694 201.756 67.3677 201.697 65.3683C201.581 61.3694 202.252 57.8375 202.763 54.9478C203.244 51.9852 204.033 49.3435 205.069 47.6798C205.55 46.8333 206.09 46.2641 206.455 45.8846C206.849 45.5344 207.054 45.3592 207.054 45.3592C207.375 45.0674 207.871 45.1111 208.163 45.4322C208.382 45.6803 208.411 46.0452 208.265 46.3225L208.207 46.4247C208.207 46.4247 208.104 46.6144 207.886 46.9938C207.71 47.3733 207.448 47.9279 207.214 48.6868C206.733 50.19 206.455 52.4813 206.193 55.4294C205.93 58.4505 205.288 61.8218 205.288 65.3099C205.288 67.0466 205.463 68.8272 205.915 70.491C206.003 70.8558 206.163 71.3228 206.353 71.7899C206.47 72.1109 206.645 72.4758 206.849 72.7823C207.258 73.4099 207.827 73.8477 208.119 73.8769C208.177 73.8769 208.192 73.8769 208.163 73.9061C208.104 73.9499 208.323 73.8915 208.411 73.8623C208.367 73.8915 208.542 73.8331 208.63 73.7747C208.849 73.6434 209.111 73.3807 209.36 73.0304C209.885 72.3445 210.294 71.5564 210.629 70.7245C211.257 69.0315 211.534 67.1926 211.68 65.3683C212.001 61.7343 211.534 58.3046 210.95 55.4294C210.323 52.5543 209.476 50.2484 208.79 48.6868C208.104 47.1544 207.623 46.2641 207.623 46.2641C207.419 45.8846 207.55 45.403 207.929 45.1987C208.309 44.9944 208.79 45.1257 208.995 45.5052L209.024 45.549L209.009 45.5635Z" fill="#1D262D"/>
<path d="M209.374 45.8555C209.374 45.8555 209.593 46.629 210.06 47.8988C210.512 49.1831 211.301 50.9782 212.424 53.0361C213.008 54.0577 213.665 55.1376 214.424 56.2468C215.183 57.3706 216.029 58.4944 217.007 59.5014C217.97 60.5376 219.123 61.4425 220.378 62.0846C221.006 62.3911 221.663 62.61 222.319 62.7414C222.626 62.7998 223.02 62.8581 223.253 62.8581C223.356 62.8581 223.414 62.829 223.385 62.829C223.341 62.829 223.268 62.8435 223.195 62.9165C223.166 62.9457 223.195 62.9019 223.21 62.7852V62.7414L223.239 62.5954L223.312 62.3035C223.356 62.1284 223.341 62.0555 223.356 61.9241V61.5008C223.356 60.9171 223.224 60.3187 222.991 59.7203C222.524 58.5382 221.779 57.3852 220.933 56.3344L220.276 55.5609C220.028 55.269 219.795 55.0209 219.576 54.7874C219.138 54.3058 218.656 53.8241 218.189 53.3863C217.284 52.4669 216.35 51.6933 215.489 50.949C213.752 49.4896 212.22 48.3658 211.125 47.5485C210.016 46.7458 209.389 46.2788 209.389 46.2788H209.374C209.024 46.0015 208.936 45.5053 209.199 45.155C209.389 44.8923 209.71 44.7755 210.016 44.8485L210.6 44.9799C210.979 45.0674 211.534 45.2134 212.22 45.4469C213.592 45.9139 215.533 46.7458 217.591 48.1761C218.642 48.862 219.678 49.7523 220.743 50.7301C221.269 51.2409 221.765 51.7517 222.29 52.3355C222.553 52.6274 222.816 52.9193 223.034 53.1966C223.268 53.4593 223.545 53.8242 223.779 54.1306C224.742 55.4441 225.647 56.9474 226.114 58.7571C226.347 59.6473 226.479 60.6252 226.406 61.6322C226.377 61.8803 226.347 62.1284 226.304 62.3911C226.245 62.6538 226.172 62.9749 226.099 63.1792L225.851 63.836C225.734 64.0987 225.574 64.4052 225.282 64.7408C224.961 65.1057 224.523 65.3392 224.1 65.4414C223.691 65.5435 223.341 65.5289 223.049 65.4997C222.48 65.4268 222.1 65.31 221.648 65.1786C220.772 64.9013 219.97 64.5073 219.24 64.0403C217.78 63.1062 216.613 61.9241 215.62 60.7273C214.628 59.5306 213.811 58.2901 213.066 57.1225C212.322 55.9549 211.68 54.802 211.125 53.722C209.972 51.5912 209.199 49.7231 208.674 48.4096C208.177 47.0961 207.885 46.3371 207.885 46.3371C207.725 45.9139 207.929 45.4615 208.338 45.3156C208.746 45.155 209.199 45.3593 209.345 45.768C209.345 45.7972 209.359 45.8117 209.374 45.8409V45.8555Z" fill="#1D262D"/>
<path d="M207.78 46.3663C207.78 46.3663 207.488 47.1252 206.992 48.4387C206.452 49.7376 205.679 51.6057 204.54 53.7511C203.986 54.8311 203.344 55.9694 202.599 57.1516C201.855 58.3192 201.038 59.5451 200.045 60.7564C199.053 61.9532 197.885 63.1354 196.426 64.0694C195.696 64.5364 194.879 64.9305 194.018 65.2078C193.565 65.3391 193.186 65.4559 192.617 65.5289C192.325 65.5581 191.989 65.5726 191.566 65.4705C191.143 65.3683 190.705 65.1348 190.384 64.7699C190.092 64.4488 189.931 64.1278 189.814 63.8651L189.566 63.2083C189.493 63.004 189.42 62.6829 189.362 62.4202C189.318 62.1575 189.289 61.924 189.26 61.6613C189.172 60.6543 189.304 59.6765 189.552 58.7862C190.033 56.9765 190.924 55.4732 191.887 54.1597C192.12 53.8533 192.398 53.4884 192.631 53.2257C192.85 52.9484 193.113 52.6711 193.375 52.3646C193.901 51.7808 194.397 51.27 194.922 50.7592C195.988 49.7814 197.024 48.9057 198.075 48.2052C200.147 46.7749 202.074 45.9284 203.446 45.476C204.132 45.2425 204.686 45.0966 205.066 45.009C205.445 44.9214 205.649 44.8776 205.649 44.8776C206.073 44.79 206.511 45.0528 206.598 45.4906C206.671 45.8117 206.54 46.1182 206.292 46.3079H206.277C206.277 46.3079 205.649 46.7895 204.54 47.5922C203.446 48.3949 201.913 49.5333 200.176 50.9927C199.33 51.737 198.396 52.5252 197.477 53.43C197.01 53.8679 196.528 54.3495 196.09 54.8311C195.871 55.0646 195.638 55.3127 195.39 55.6046L194.733 56.3781C193.886 57.4143 193.127 58.5673 192.675 59.764C192.456 60.3624 192.31 60.9608 192.295 61.5446V61.9678C192.339 62.0992 192.325 62.1721 192.354 62.3472L192.427 62.6391L192.456 62.7851V62.8289C192.5 62.9456 192.529 62.9894 192.485 62.9602C192.412 62.9018 192.339 62.8873 192.295 62.8727C192.266 62.8727 192.325 62.9018 192.427 62.9018C192.646 62.9018 193.04 62.8435 193.361 62.7851C194.018 62.6537 194.674 62.4348 195.302 62.1283C196.542 61.4862 197.695 60.5813 198.673 59.5451C199.666 58.5235 200.512 57.3997 201.256 56.2905C202.015 55.1813 202.687 54.1014 203.256 53.0798C204.365 51.0219 205.153 49.2268 205.62 47.9425C206.087 46.6727 206.306 45.8992 206.306 45.8992C206.423 45.476 206.861 45.2425 207.269 45.3593C207.693 45.476 207.926 45.9139 207.809 46.3225C207.809 46.3517 207.809 46.3663 207.78 46.3955V46.3663Z" fill="#1D262D"/>
<path d="M186.389 25.2053C176.976 20.8707 169.489 12.5518 166.146 2.74433C169.459 2.62757 172.845 3.00704 175.896 4.30595C180.464 6.24702 183.996 10.1438 186.404 14.4929C188.812 18.8421 190.257 23.6437 191.658 28.4015" fill="#1D262D"/>
<path d="M186.167 25.658L184.431 24.7823L182.709 23.8045L181.045 22.7537L179.439 21.6299L177.892 20.4331L176.404 19.1489L174.974 17.7915L173.616 16.3759L172.332 14.8873L171.121 13.3402L169.968 11.7494L168.888 10.1003L167.895 8.39269L166.99 6.64138L166.173 4.84624L165.443 3.00736C165.297 2.6279 165.472 2.20466 165.852 2.04412C165.925 2.01493 165.998 2.00034 166.071 2.00034H166.129C169.501 1.78142 173.018 2.07328 176.287 3.38679C177.061 3.72246 177.892 4.08734 178.651 4.53977C179.41 4.9776 180.14 5.45923 180.826 6.01382C182.198 7.09382 183.438 8.33435 184.533 9.66245C185.627 10.9905 186.605 12.4354 187.423 13.9386C187.817 14.6829 188.225 15.4565 188.561 16.23C188.911 17.0035 189.232 17.7916 189.524 18.5797C190.123 20.1705 190.59 21.7759 191.027 23.3959C191.451 25.0159 191.816 26.6358 192.137 28.2704C192.195 28.5331 192.005 28.7958 191.743 28.8542C191.509 28.898 191.276 28.7666 191.188 28.5477C190.867 27.7742 190.575 27.0007 190.283 26.2272L189.393 23.9213C188.824 22.3742 188.196 20.871 187.539 19.3824C186.883 17.8792 186.182 16.4781 185.394 15.0478C184.591 13.6759 183.745 12.3186 182.738 11.0927C181.745 9.85215 180.651 8.71378 179.425 7.72135C178.812 7.22514 178.184 6.75811 177.528 6.34947C176.871 5.91163 176.214 5.57598 175.484 5.22571C172.638 3.94139 169.398 3.47438 166.173 3.50357L166.874 2.49655L167.487 4.29164L168.202 6.05761L169.019 7.77975L169.924 9.4581L170.902 11.0927L171.967 12.6835L173.135 14.2013L174.375 15.6608L175.689 17.0618L177.061 18.3899L178.505 19.6451L180.009 20.8272C181.045 21.5861 182.096 22.3159 183.19 22.958L184.854 23.8775L186.605 24.7239C186.853 24.8407 186.956 25.1326 186.839 25.3807C186.722 25.6288 186.43 25.731 186.182 25.6142L186.167 25.658Z" fill="#1D262D"/>
<path d="M173.167 22.3296C167.694 22.4172 162.236 24.0225 157.58 26.9122C156.412 27.642 155.274 28.4593 154.428 29.5393C153.406 30.8236 152.851 32.4144 152.311 33.9614C151.64 35.8879 150.969 37.8143 150.297 39.7408C156.865 38.3251 163.87 36.6614 168.409 31.7138C168.409 31.7138 171.737 27.8463 173.152 23.1469" fill="#1D262D"/>
<path d="M173.184 22.8263C171.856 22.8263 170.601 22.9285 169.302 23.1036C168.017 23.2933 166.748 23.5852 165.507 23.9355C163.011 24.6652 160.618 25.7014 158.4 27.0295C157.276 27.6863 156.24 28.4452 155.393 29.3355C154.561 30.2257 154.007 31.3349 153.569 32.5317C153.131 33.7284 152.766 35.0127 152.357 36.2678L151.175 40.0332L150.124 38.8511C152.547 38.2673 154.955 37.6543 157.261 36.8808C159.582 36.1365 161.829 35.2171 163.843 33.9619C164.325 33.6263 164.85 33.3344 165.303 32.9695C165.784 32.6338 166.222 32.2544 166.66 31.8603C166.879 31.6706 167.083 31.4663 167.302 31.2619L167.594 30.9846L167.871 30.6636C168.251 30.2111 168.616 29.7295 168.981 29.2479C169.696 28.2847 170.382 27.2776 171.009 26.2414C171.651 25.2198 172.191 24.1252 172.688 23.0014C172.804 22.7387 173.096 22.622 173.344 22.7388C173.563 22.8409 173.665 23.0598 173.636 23.2787C173.14 25.8182 172.06 28.2263 170.688 30.4009C170.352 30.9555 169.973 31.4809 169.579 32.0063L169.272 32.4003L168.908 32.7943C168.674 33.0279 168.455 33.2906 168.207 33.5095C167.711 33.9619 167.215 34.3998 166.689 34.7938C166.178 35.2171 165.609 35.5673 165.055 35.9176C162.792 37.2749 160.355 38.2089 157.918 38.9532C155.451 39.6538 152.97 40.1354 150.518 40.6024H150.475C149.993 40.7046 149.526 40.3835 149.439 39.9019C149.409 39.7414 149.439 39.5662 149.482 39.4203L150.883 35.7279C151.365 34.4873 151.803 33.276 152.314 32.0063C152.824 30.7657 153.525 29.4814 154.547 28.489C155.554 27.4966 156.721 26.7814 157.874 26.1101C160.195 24.7528 162.676 23.702 165.259 23.0014C166.543 22.6366 167.857 22.3739 169.185 22.1695C170.498 21.9652 171.87 21.8339 173.169 21.8047H173.184C173.461 21.8047 173.68 22.009 173.695 22.2863C173.695 22.5636 173.49 22.7826 173.213 22.7971L173.184 22.8263Z" fill="#1D262D"/>
<path d="M160.959 21.1188C160.959 21.1188 160.273 21.0605 159.091 20.9437C158.507 20.8999 157.763 20.7832 156.931 20.6519C156.084 20.5497 155.15 20.3745 154.143 20.1702C153.122 19.9805 152.042 19.6886 150.889 19.4405C149.75 19.1194 148.525 18.8421 147.299 18.4335C144.832 17.6746 142.234 16.7259 139.68 15.7189C137.126 14.6973 134.645 13.5151 132.325 12.4059C130.004 11.2822 127.903 10.1292 126.107 9.12217C124.312 8.12974 122.853 7.22493 121.831 6.61196C120.81 5.9844 120.24 5.6195 120.24 5.6195C119.905 5.40058 119.803 4.96274 120.007 4.61248C120.211 4.2914 120.62 4.18925 120.941 4.34978C120.941 4.34978 123.364 5.56115 127.012 7.38546C128.822 8.30492 130.982 9.29734 133.273 10.3919C134.426 10.9319 135.608 11.4719 136.834 12.0119C138.046 12.5519 139.301 13.0627 140.541 13.5735C143.037 14.6097 145.547 15.5876 147.941 16.3611C150.334 17.1638 152.582 17.8643 154.537 18.3605C156.508 18.8713 158.099 19.2362 159.281 19.4551C160.448 19.6886 161.12 19.8054 161.12 19.8054C161.484 19.8783 161.718 20.2286 161.645 20.5789C161.587 20.9145 161.266 21.148 160.93 21.1188H160.959Z" fill="#1D262D"/>
<path d="M142.717 23.8042C142.717 23.8042 142.177 23.9939 141.243 24.315C140.309 24.6361 139.039 25.1469 137.478 25.7745C136.704 26.1101 135.858 26.4458 134.997 26.8545C134.121 27.2485 133.216 27.701 132.267 28.1534C130.385 29.0874 128.414 30.1236 126.517 31.3058C124.591 32.4442 122.723 33.6409 121.03 34.8815C119.337 36.0928 117.775 37.275 116.505 38.355C115.849 38.8804 115.294 39.4058 114.769 39.8436C114.243 40.2814 113.82 40.6901 113.47 41.0257C112.755 41.6971 112.346 42.0765 112.346 42.0765L112.317 42.1057C112.025 42.383 111.558 42.3684 111.295 42.0619C111.047 41.7846 111.032 41.376 111.281 41.0987C111.281 41.0987 111.66 40.6609 112.302 39.902C112.638 39.5225 113.032 39.0555 113.528 38.5593C114.024 38.0631 114.55 37.4647 115.192 36.8955C115.834 36.3117 116.505 35.6549 117.279 35.0274C118.023 34.3706 118.84 33.7139 119.716 33.0863C120.563 32.415 121.497 31.8166 122.431 31.1598C123.394 30.5469 124.328 29.8902 125.335 29.321C127.32 28.1534 129.378 27.1172 131.333 26.2123C132.311 25.7453 133.274 25.3658 134.194 25.001C135.113 24.6215 136.004 24.3442 136.806 24.0377C138.441 23.4831 139.857 23.1183 140.82 22.8702C141.783 22.6513 142.338 22.5345 142.338 22.5345C142.702 22.4615 143.053 22.6804 143.126 23.0453C143.199 23.381 143.009 23.7021 142.688 23.8188L142.717 23.8042Z" fill="#1D262D"/>
<path d="M97.6163 29.6997C91.8222 29.6705 85.9407 28.5614 80.8326 25.8176C75.7245 23.0884 71.4045 18.6517 69.4197 13.1934C75.5202 13.6896 81.6353 15.0177 87.0498 17.8782C92.4644 20.7387 97.1492 25.2192 99.4989 30.8819C98.0395 30.3711 96.58 29.8603 95.1206 29.3495" fill="#1D262D"/>
<path d="M97.6154 30.196C96.1706 30.1814 94.6819 30.0938 93.2371 29.9333C91.7776 29.7581 90.3328 29.5538 88.8879 29.2473C86.0128 28.6344 83.2107 27.6565 80.5983 26.2847C79.9415 25.9344 79.3285 25.5695 78.6864 25.1755C78.0734 24.7668 77.4604 24.3582 76.8621 23.9204C75.6799 23.0447 74.5561 22.0522 73.5199 20.9868C72.4983 19.9069 71.5643 18.7393 70.747 17.4842C70.3383 16.8566 69.9589 16.2145 69.6086 15.5431C69.2729 14.8718 68.9518 14.1858 68.6746 13.4853C68.514 13.0767 68.7037 12.6242 69.1124 12.4637C69.2146 12.4199 69.3313 12.4053 69.4481 12.4053H69.4918C72.5859 12.5804 75.6799 12.9745 78.7302 13.6896C80.248 14.0399 81.7658 14.4631 83.2544 14.9885C84.7285 15.5285 86.1879 16.1561 87.589 16.8858L88.6106 17.4404L89.6468 18.0534C90.3182 18.4766 90.9749 18.9145 91.6317 19.3815C92.916 20.3155 94.1128 21.3809 95.2219 22.5193C96.3165 23.6869 97.3235 24.9274 98.17 26.2847C98.5933 26.9706 98.9727 27.6565 99.3376 28.3717C99.6878 29.0868 99.9943 29.8165 100.286 30.5608L100.315 30.6338C100.476 31.0425 100.257 31.5095 99.8484 31.67C99.6441 31.743 99.4252 31.7284 99.25 31.67C97.8198 31.0571 96.3895 30.4879 94.9738 29.8311C94.7257 29.7143 94.6236 29.4225 94.7403 29.1744C94.8425 28.9555 95.076 28.8533 95.3095 28.8971C96.8273 29.2619 98.3014 29.6998 99.8046 30.1084L98.7684 31.2176C98.4473 30.5463 98.1117 29.9041 97.7322 29.2766C97.3527 28.649 96.9441 28.036 96.5062 27.4522C96.0538 26.8685 95.616 26.2992 95.1344 25.7301C94.6527 25.1755 94.1419 24.6501 93.6311 24.1247C92.5949 23.0885 91.4712 22.1398 90.289 21.2641C89.6906 20.8263 89.0923 20.4031 88.4647 20.009L87.5452 19.4398L86.5674 18.8852C81.328 16.1123 75.4026 14.6382 69.4043 14.0107L70.2216 12.9307C70.6594 14.2442 71.2578 15.5285 71.9729 16.7398C72.688 17.9366 73.5345 19.075 74.4832 20.1404C75.4172 21.1912 76.4534 22.169 77.5772 23.0447C78.1318 23.4825 78.7156 23.9058 79.2993 24.2852C79.8831 24.6647 80.5107 25.0295 81.1382 25.3798C83.6485 26.7371 86.3631 27.7003 89.1506 28.3279C91.9382 28.97 94.8133 29.2182 97.6884 29.2182C97.9657 29.2182 98.1846 29.4371 98.1846 29.7144C98.1846 29.9917 97.9657 30.2106 97.6884 30.2106H97.6738L97.6154 30.196Z" fill="#1D262D"/>
<path d="M87.3517 32.5317C83.1923 34.8669 79.0474 37.3334 75.5594 40.5879C72.0713 43.8425 69.2545 48.0019 68.3643 52.6867C73.3994 49.6657 79.7334 48.6149 83.7615 44.3241C86.6074 41.2885 87.8625 36.8079 86.9868 32.7361" fill="#1D262D"/>
<path d="M87.6049 32.9695C83.4162 35.2317 79.359 37.7565 75.9293 40.9819C74.2217 42.5873 72.7622 44.4408 71.5801 46.4402C70.3979 48.4397 69.5806 50.6288 69.2304 52.8618L67.9461 51.9715C70.1498 50.5705 72.5287 49.578 74.7909 48.5564C77.053 47.5348 79.3152 46.557 81.1541 45.1267C81.6211 44.7764 82.0589 44.397 82.4676 44.003L82.7741 43.711L82.9054 43.5943L83.066 43.4191C83.2849 43.1856 83.4892 42.9521 83.6352 42.7478C84.3211 41.8867 84.9487 40.8797 85.3865 39.8143C85.8389 38.7489 86.1892 37.6251 86.3643 36.4576C86.5686 35.29 86.5832 34.0933 86.4957 32.8965C86.4811 32.6046 86.6854 32.3711 86.9481 32.3419C87.1816 32.3273 87.3859 32.4733 87.4589 32.6776C88.2762 35.1733 88.2324 38.0046 87.3276 40.5586C87.1086 41.2008 86.8313 41.8138 86.5249 42.4267C86.1892 43.0251 85.8681 43.6089 85.4157 44.1635C85.1968 44.47 84.9924 44.7035 84.7881 44.937L84.6276 45.1121L84.4232 45.3164L84.0584 45.6813C83.5768 46.1629 83.0514 46.5861 82.5114 46.9802C81.4314 47.7683 80.2784 48.4397 79.1108 49.0089C77.9433 49.578 76.7611 50.0888 75.5936 50.5413C73.2293 51.4461 70.9233 52.3072 68.8071 53.4602L68.7488 53.4894C68.3401 53.7083 67.8293 53.5623 67.5958 53.1537C67.4936 52.964 67.4644 52.7596 67.5082 52.5699C68.0482 50.118 69.1136 47.8413 70.4417 45.7835C71.7698 43.7111 73.4336 41.9013 75.1995 40.2522C78.7606 36.9392 82.993 34.5603 87.1086 32.1376C87.3421 32.0063 87.6486 32.0792 87.78 32.3127C87.9113 32.5463 87.8384 32.8527 87.6049 32.9841C87.6049 32.9841 87.6048 32.9841 87.5902 32.9841L87.6049 32.9695Z" fill="#1D262D"/>
<path d="M133.39 12.4642C133.477 11.9242 133.477 11.5302 133.419 11.0485C133.346 10.5815 133.215 10.1291 133.04 9.67665C132.66 8.78639 132.076 7.9837 131.405 7.26857C131.055 6.9183 130.704 6.56803 130.31 6.26155C129.931 5.95506 129.522 5.69237 129.084 5.40048C128.238 4.87508 127.362 4.40805 126.428 4.02859C124.575 3.26968 122.59 2.87565 120.62 2.77349C118.635 2.68592 116.65 2.97779 114.796 3.57617L115.424 2.52536C115.672 3.41562 116.037 4.27668 116.519 5.06479C117 5.85289 117.584 6.59721 118.241 7.25396C118.897 7.92531 119.613 8.52371 120.386 9.06371C120.78 9.32641 121.174 9.57452 121.583 9.79344C121.992 10.0124 122.444 10.2313 122.823 10.3918C123.305 10.5961 123.757 10.7567 124.166 10.9172C124.619 11.0777 125.071 11.2091 125.538 11.3404C126.457 11.6031 127.406 11.7929 128.369 11.9534C130.296 12.2599 132.266 12.4496 134.28 12.581C134.557 12.5956 134.762 12.8291 134.747 13.1064C134.733 13.3399 134.557 13.515 134.353 13.5588C132.324 13.9674 130.237 14.1572 128.136 13.9967C127.085 13.9237 126.034 13.7631 124.983 13.5296C124.458 13.3983 123.947 13.2523 123.436 13.0918C122.896 12.9166 122.4 12.7123 121.948 12.5226C121.408 12.2745 120.955 12.041 120.474 11.7637C120.007 11.4864 119.54 11.1945 119.102 10.888C118.226 10.2605 117.394 9.54531 116.665 8.72802C115.22 7.09344 114.125 5.09398 113.702 2.91939V2.86105C113.6 2.40862 113.892 1.9708 114.329 1.86863C116.446 1.35783 118.606 1.24106 120.736 1.44538C122.867 1.6497 124.925 2.21888 126.866 3.07996C127.348 3.29887 127.829 3.53237 128.282 3.79507C128.749 4.04318 129.216 4.34968 129.639 4.62697C130.048 4.91886 130.5 5.22534 130.909 5.5756C131.317 5.91128 131.711 6.27614 132.076 6.67019C132.806 7.4437 133.448 8.34858 133.886 9.34101C134.105 9.85182 134.265 10.3772 134.353 10.9318C134.441 11.4718 134.426 12.1139 134.353 12.5956V12.6248C134.309 12.8875 134.061 13.0772 133.784 13.048C133.521 13.0042 133.331 12.7561 133.361 12.4934L133.39 12.4642Z" fill="#1D262D"/>
<path d="M121.394 34.2394C120.489 34.0788 119.701 34.0496 118.826 34.0934C117.965 34.1518 117.118 34.3123 116.301 34.5604C114.652 35.0567 113.134 35.9615 111.908 37.129C111.601 37.4209 111.295 37.7566 111.047 38.0777C110.784 38.4134 110.536 38.7637 110.317 39.1139C109.865 39.8291 109.5 40.6026 109.222 41.4053C108.668 42.9961 108.507 44.7182 108.726 46.3528L107.953 45.5501C109.587 45.6669 111.237 45.4042 112.74 44.8204C113.119 44.6598 113.484 44.5139 113.849 44.3387C114.214 44.1636 114.564 43.9593 114.9 43.755C115.235 43.536 115.571 43.3025 115.878 43.0544C116.184 42.8063 116.505 42.5144 116.739 42.2809L117.191 41.7993L117.556 41.3761C117.804 41.0696 118.052 40.7485 118.271 40.4128C118.49 40.0771 118.709 39.7415 118.899 39.3766C119.088 39.0263 119.249 38.6469 119.424 38.282C119.745 37.5377 120.008 36.7496 120.198 35.9469C120.3 35.5383 120.387 35.1296 120.446 34.721L120.592 33.4513C120.621 33.1594 120.869 32.955 121.146 32.9842C121.351 33.0134 121.526 33.1594 121.569 33.3491C121.818 34.2539 121.876 35.2026 121.861 36.1659C121.818 37.1145 121.657 38.0631 121.365 38.9826C121.073 39.902 120.679 40.7923 120.183 41.6242C119.92 42.0328 119.643 42.4269 119.351 42.8209L118.855 43.4047L118.388 43.8717C117.979 44.2512 117.644 44.5431 117.249 44.8496C116.855 45.1414 116.461 45.4041 116.038 45.6668C115.206 46.1631 114.316 46.5717 113.397 46.8636C111.558 47.4182 109.587 47.5933 107.69 47.3014H107.617C107.223 47.2284 106.931 46.8928 106.902 46.4987C106.8 44.5723 107.194 42.6604 107.909 40.9236C108.274 40.048 108.726 39.2307 109.266 38.4572C109.544 38.0777 109.835 37.7128 110.142 37.3626C110.478 36.9977 110.784 36.6766 111.134 36.3702C112.521 35.1004 114.199 34.2248 115.965 33.6702C116.855 33.3929 117.775 33.2323 118.694 33.1593C119.161 33.1302 119.628 33.1156 120.081 33.1156C120.562 33.1302 121.029 33.174 121.453 33.2323H121.482C121.759 33.2761 121.934 33.5242 121.905 33.7869C121.876 34.0496 121.613 34.2393 121.351 34.2102C121.351 34.2102 121.351 34.2102 121.336 34.2102L121.394 34.2394Z" fill="#1D262D"/>
<path d="M12.6423 20.5647C12.6423 20.5647 12.219 20.1998 11.5185 19.4701C10.8326 18.7404 9.85473 17.6896 8.8915 16.2739C7.88448 14.8874 6.89204 13.1361 6.10394 11.122C5.70989 10.1296 5.37421 9.02041 5.25746 7.82366C5.19908 7.22529 5.19909 6.59774 5.30125 5.97018C5.35963 5.66369 5.4326 5.31341 5.63692 4.94854C5.75367 4.75882 5.84125 4.59828 6.08936 4.40856C6.13314 4.36477 6.46881 4.13124 6.65854 4.07287C7.59259 3.76638 8.3661 4.08748 8.94987 4.40856C9.25636 4.58369 9.51905 4.788 9.79635 5.03611C10.0007 5.22584 10.205 5.41555 10.4239 5.66366C11.2704 6.58311 11.8542 7.61935 12.3066 8.65556C13.2115 10.7134 13.6055 12.7128 13.9412 14.3328C14.3061 15.982 14.4666 17.529 14.2623 18.609C14.1747 19.149 14.0288 19.5722 13.9266 19.8349C13.7952 20.0976 13.7223 20.2436 13.7223 20.2436C13.6055 20.4625 13.3428 20.55 13.1239 20.4333C12.9488 20.3457 12.8612 20.1706 12.8904 19.9809V19.9225C12.8904 19.9225 12.9196 19.7912 12.9488 19.5576C12.9488 19.3241 12.9925 18.9739 12.9488 18.536C12.8758 17.6458 12.5401 16.3906 12.0585 14.7998C11.5623 13.1652 11.1828 11.2679 10.4531 9.44363C10.0882 8.53877 9.62122 7.63394 9.03744 6.87503C8.90609 6.69989 8.73095 6.49558 8.54122 6.29126C8.40987 6.14531 8.24933 5.99937 8.0742 5.88261C7.72393 5.63451 7.32988 5.53231 7.16934 5.5761C6.81908 5.47394 6.4688 6.83122 6.51259 7.76527C6.54177 8.78689 6.77529 9.79392 7.09637 10.7863C7.69474 12.7566 8.65799 14.4496 9.57744 15.8215C10.5115 17.1933 11.4309 18.2295 12.1315 18.9009C12.8028 19.5576 13.2552 19.9225 13.2552 19.9225C13.445 20.0831 13.4742 20.3603 13.3136 20.5355C13.1531 20.7252 12.8758 20.7544 12.7007 20.5938H12.6715L12.6423 20.5647Z" fill="#1D262D"/>
<path d="M12.4047 20.4769C12.4047 20.4769 12.1274 20.1266 11.6166 19.5574C11.1058 18.9737 10.3177 18.2001 9.29607 17.3683C8.25986 16.5656 6.99014 15.6023 5.53069 14.9601C4.80096 14.6245 4.01286 14.391 3.22475 14.318C2.8307 14.2888 2.43666 14.318 2.0718 14.3764C1.89666 14.4056 1.67774 14.4639 1.56098 14.5077C1.42963 14.5807 1.5318 14.5661 1.57558 14.4785C1.57558 14.858 1.83827 15.6169 2.33449 16.0985C2.8307 16.624 3.45827 17.0617 4.12962 17.4266C4.80096 17.7915 5.5161 18.1272 6.18744 18.3899C6.85879 18.6817 7.51554 18.8861 8.11392 19.105C9.32526 19.4991 10.3615 19.7618 11.1058 19.9661C11.8501 20.1558 12.2879 20.2579 12.2879 20.2579C12.5361 20.3163 12.682 20.5644 12.6236 20.7979C12.5798 20.9731 12.4485 21.0898 12.2879 21.1336C12.2879 21.1336 11.8355 21.2358 11.0036 21.2796C10.1863 21.338 9.00418 21.2942 7.6177 20.9877C6.91716 20.8417 6.18744 20.6082 5.42852 20.3163C4.66961 19.9953 3.91069 19.645 3.12259 19.178C2.33449 18.6963 1.56099 18.098 0.918831 17.2515C0.320457 16.405 -0.234142 15.3542 0.101532 13.9532C0.29126 13.4132 0.816665 13.1504 1.10856 13.0775C1.41504 12.9899 1.64856 12.9753 1.91126 12.9461C2.42206 12.9023 2.93287 12.9461 3.41449 13.0337C4.37773 13.2088 5.2388 13.5737 6.01231 13.9969C7.54473 14.8726 8.78526 15.8212 9.83607 16.7115C10.8869 17.5872 11.675 18.4045 12.2442 18.9591C12.7987 19.5428 13.0906 19.8785 13.0906 19.8785C13.2512 20.0828 13.222 20.3601 13.0469 20.5207C12.8571 20.6812 12.5798 20.652 12.4193 20.4769H12.4047Z" fill="#1D262D"/>
<path d="M13.1188 19.8781C13.1188 19.8781 13.0896 19.4403 13.0896 18.6376C13.0896 17.8349 13.1042 16.6965 13.2647 15.3392C13.3961 13.9673 13.6442 12.4203 14.1404 10.7274C14.4031 9.89546 14.7826 9.0344 15.3518 8.2317C15.629 7.83765 15.9793 7.45818 16.3734 7.12251C16.5777 6.96197 16.7528 6.81606 17.0447 6.65552C17.2928 6.50957 17.862 6.33441 18.3728 6.58252C19.5842 7.35603 19.9198 8.50902 20.0658 9.53064C20.1971 10.5814 20.0512 11.5447 19.8177 12.4349C19.5842 13.3106 19.2777 14.0987 18.942 14.843C18.5917 15.5727 18.2269 16.2587 17.8328 16.8424C17.0447 18.0246 16.2274 18.8711 15.5999 19.3965C14.9869 19.9365 14.5782 20.1846 14.5782 20.1846C14.3593 20.3159 14.082 20.2576 13.9653 20.0386C13.8777 19.8927 13.8777 19.703 13.9653 19.557C13.9653 19.557 14.1988 19.1776 14.6074 18.5354C15.0015 17.8787 15.5707 16.9592 16.169 15.8354C16.4609 15.2662 16.782 14.6679 17.0593 13.9965C17.3658 13.3544 17.6431 12.6101 17.8766 11.8803C18.0955 11.1652 18.256 10.3917 18.2415 9.67654C18.256 8.97601 17.9204 8.26087 17.6723 7.98358C17.7744 8.01277 17.8474 7.95439 17.7015 7.98358C17.5847 8.02736 17.395 8.14414 17.2344 8.2317C16.9134 8.43603 16.6215 8.68412 16.3588 8.9906C15.848 9.58898 15.4539 10.3041 15.1474 11.0484C14.5491 12.5225 14.2864 14.0987 14.0966 15.3976C13.9507 16.7111 13.9069 17.8203 13.9507 18.5792C13.9799 19.3381 14.0236 19.7906 14.0236 19.7906C14.0528 20.0387 13.8631 20.243 13.6296 20.2722C13.3961 20.3014 13.1772 20.1116 13.148 19.8781H13.1188Z" fill="#1D262D"/>
<path d="M29.1872 34.8228C28.691 34.2683 28.1947 33.6699 27.7277 33.0277C27.2899 32.4001 26.8666 31.7434 26.4872 31.072C26.1223 30.3861 25.7866 29.7002 25.4802 28.985C25.1883 28.2699 24.9402 27.5402 24.7213 26.7959C24.5169 26.0516 24.3272 25.2927 24.1959 24.5337C24.0645 23.7602 23.9769 22.9867 23.9332 22.2132C23.904 21.4397 23.8894 20.6516 23.9332 19.8635C23.9915 19.0754 24.0791 18.3019 24.225 17.5137C24.2834 17.1635 24.6337 16.9154 24.984 16.9884C25.0569 16.9884 25.1153 17.0176 25.1737 17.0468L25.2175 17.0759C26.6769 17.8348 27.7277 19.1483 28.4283 20.5348C28.6034 20.8851 28.7493 21.25 28.8807 21.6148C29.0266 22.0235 29.1142 22.3008 29.2309 22.6948C29.4499 23.4683 29.5812 24.1981 29.698 24.9424C30.0774 27.9634 29.6542 30.9261 28.9391 33.7429C28.8807 33.9472 28.691 34.0639 28.4866 34.0056C28.3261 33.9618 28.2093 33.8158 28.2093 33.6553C28.1218 30.7364 28.3261 27.8905 27.9758 25.1613C27.8883 24.4899 27.7715 23.7894 27.611 23.1619C27.538 22.8554 27.4066 22.4321 27.3191 22.1694C27.2023 21.8483 27.0856 21.5419 26.9542 21.2354C26.4288 20.024 25.6407 18.9148 24.5607 18.2581L25.5531 17.8203C25.3634 18.5208 25.2175 19.2505 25.1153 19.9802C25.0277 20.7099 24.9548 21.4397 24.9548 22.184C24.9548 22.9283 24.9986 23.658 25.0861 24.4024C25.1883 25.1321 25.305 25.8764 25.4802 26.5915C25.6699 27.3067 25.9034 28.0218 26.1661 28.7224C26.4434 29.4229 26.7499 30.0942 27.1002 30.751C27.465 31.4077 27.8591 32.0353 28.2969 32.6337C28.7347 33.2174 29.2164 33.7867 29.7564 34.3412C29.9023 34.4872 29.8877 34.7207 29.7418 34.8666C29.5958 35.0126 29.3623 34.998 29.2164 34.852L29.1872 34.8228Z" fill="#1D262D"/>
<path d="M23.0448 31.9041C21.7313 31.3057 20.4324 30.8095 19.0605 30.4592C17.6887 30.0944 16.3022 29.8462 14.8865 29.7003C13.4854 29.5398 12.0698 29.5252 10.6541 29.6273C9.25304 29.7149 7.85197 29.9192 6.48008 30.2549L6.74279 29.2333C8.12926 30.3133 9.54493 31.3203 11.0628 32.1522C11.8071 32.5755 12.5952 32.9111 13.3833 33.2322C14.186 33.5533 14.9595 33.8014 15.7914 33.9765C17.426 34.3268 19.1043 34.3997 20.7243 34.1224C21.133 34.0495 21.527 33.9765 21.8919 33.8597C22.2713 33.7284 22.5924 33.597 22.9427 33.3489C23.2929 33.1154 23.7016 32.8673 24.1832 32.663C24.6356 32.4587 25.3508 32.3419 25.8762 32.7068C26.0513 32.8235 26.0805 33.0571 25.9637 33.2322C25.8762 33.3635 25.701 33.4219 25.5551 33.3781H25.5405C24.9859 33.203 24.4021 33.816 23.7162 34.4143C23.3659 34.7208 22.8989 35.0127 22.4611 35.217C22.0086 35.4213 21.5416 35.5965 21.0746 35.7132C19.2065 36.1803 17.2508 36.1073 15.4265 35.6694C14.5216 35.4651 13.6022 35.1441 12.7557 34.7938C11.8946 34.4289 11.0774 33.9765 10.3038 33.4949C8.74224 32.517 7.32656 31.3641 5.99846 30.1527L5.96928 30.1236C5.73577 29.9046 5.72117 29.5398 5.9255 29.3063C6.01306 29.2041 6.12981 29.1457 6.26116 29.1311C7.70602 28.8976 9.16547 28.7662 10.6249 28.7371C11.3546 28.7371 12.0844 28.7371 12.7995 28.7808C13.5292 28.8246 14.2444 28.883 14.9741 28.9706C16.4189 29.1457 17.8492 29.423 19.2357 29.8171C19.9362 30.0068 20.6221 30.2403 21.3081 30.4738C21.994 30.7219 22.68 30.9846 23.3367 31.2619C23.5265 31.3495 23.614 31.5684 23.5265 31.7581C23.4535 31.9479 23.2346 32.0354 23.0448 31.9479V31.9041Z" fill="#1D262D"/>
<path d="M7.39879 30.1088C7.39879 30.1088 8.37663 30.1088 9.83608 30.1672C11.2955 30.2548 13.2366 30.4299 15.1631 30.8094C17.0749 31.1888 18.9722 31.7726 20.3149 32.371C21.6576 32.9548 22.4895 33.5093 22.4895 33.5093C22.5479 33.5385 22.5625 33.6261 22.5333 33.6845C22.5041 33.7283 22.4311 33.7574 22.3873 33.7283C22.3873 33.7283 21.4825 33.3926 20.1252 32.8672C18.7679 32.3564 16.9582 31.6996 15.0901 31.2326C13.222 30.7656 11.2955 30.4591 9.85067 30.4007C8.40581 30.2985 7.42799 30.3423 7.42799 30.3423C7.35501 30.3423 7.29663 30.2986 7.29663 30.2256C7.29663 30.1526 7.34042 30.0942 7.41339 30.0942L7.39879 30.1088Z" fill="#1D262D"/>
<path d="M26.2887 19.0169C26.2887 19.0169 26.245 19.9217 26.2887 21.2498C26.3179 22.5925 26.5077 24.3731 26.8141 26.1244C27.1206 27.8903 27.5439 29.6125 27.8358 30.9114C28.1422 32.2103 28.3174 33.1006 28.3174 33.1006C28.3174 33.1735 28.2882 33.2319 28.2152 33.2465C28.1568 33.2465 28.0985 33.2319 28.0839 33.1735C28.0839 33.1735 27.7044 32.3563 27.3104 31.0573C26.9163 29.7584 26.5806 27.9779 26.3763 26.1974C25.9531 22.6071 26.026 19.0169 26.026 19.0169C26.026 18.9439 26.0844 18.8855 26.1428 18.8855C26.2158 18.8855 26.2741 18.9439 26.2741 19.0023L26.2887 19.0169Z" fill="#1D262D"/>
<path d="M73.893 15.2075C73.893 15.2075 75.3087 15.6161 77.4249 16.3313C78.4903 16.6815 79.6724 17.1924 80.9859 17.6886C82.2702 18.214 83.6275 18.8416 84.9556 19.5129C86.2691 20.1989 87.5827 20.914 88.7502 21.7021C89.9178 22.461 90.9832 23.2345 91.8296 23.9788C92.6907 24.694 93.3475 25.3653 93.7999 25.8323C94.2377 26.3139 94.4858 26.6058 94.4858 26.6058C94.5734 26.708 94.5588 26.8685 94.4567 26.9561C94.3691 27.029 94.2523 27.0291 94.1648 26.9707C94.1648 26.9707 93.8437 26.7664 93.3329 26.3869C92.8075 26.0075 92.0778 25.4674 91.1875 24.8253C90.3118 24.1685 89.261 23.4388 88.1518 22.6361C87.0135 21.8772 85.8021 21.0453 84.547 20.301C83.2919 19.5567 81.993 18.8561 80.7524 18.2578C79.5119 17.6594 78.3151 17.1924 77.2789 16.8129C76.2427 16.4335 75.3817 16.1416 74.7541 15.981C74.1265 15.8059 73.7762 15.7037 73.7762 15.7037C73.6449 15.6599 73.5719 15.5286 73.6011 15.3973C73.6303 15.2659 73.7763 15.1929 73.9076 15.2221L73.893 15.2075Z" fill="white"/>
<path d="M84.4678 37.9904L82.556 40.1941C81.3884 41.4931 79.7684 43.186 78.0755 44.8206C77.2144 45.6233 76.3387 46.4114 75.463 47.0681C74.5874 47.7395 73.7555 48.3525 72.9966 48.7903C71.4933 49.7098 70.355 50.0892 70.355 50.0892C70.2236 50.133 70.0777 50.06 70.0339 49.9433C70.0047 49.8411 70.0339 49.739 70.1069 49.666C70.1069 49.666 70.9971 48.8925 72.3982 47.8709C73.7993 46.8492 75.6966 45.5503 77.5209 44.1347C79.3598 42.7336 81.0527 41.1282 82.2203 39.8439C83.4171 38.5888 84.1176 37.6547 84.1176 37.6547C84.2052 37.5526 84.3511 37.5234 84.4678 37.6109C84.57 37.6985 84.5992 37.8444 84.5116 37.9612L84.4678 37.9904Z" fill="white"/>
<path d="M170.084 4.62727C170.084 4.62727 171.325 5.284 173.105 6.43697C174.01 6.99156 174.973 7.76509 176.039 8.55319C177.09 9.37048 178.155 10.3045 179.162 11.297C180.155 12.304 181.118 13.3548 181.92 14.4348C182.723 15.5002 183.409 16.551 183.891 17.4996C184.168 17.9521 184.358 18.4191 184.533 18.8131C184.708 19.2072 184.869 19.5574 184.956 19.8493C185.16 20.4331 185.263 20.7834 185.263 20.7834C185.306 20.9147 185.219 21.0607 185.087 21.0899C184.985 21.119 184.869 21.0898 184.81 20.9877C184.81 20.9877 184.606 20.6812 184.285 20.1704C183.964 19.6596 183.511 18.9153 182.957 18.0396C182.417 17.1639 181.745 16.1569 181.016 15.0915C180.242 14.0553 179.425 12.9461 178.52 11.8953C177.6 10.8591 176.623 9.88128 175.659 9.00561C174.696 8.12995 173.704 7.41483 172.843 6.83105C171.982 6.24727 171.252 5.79483 170.697 5.50294C170.157 5.21105 169.851 5.05052 169.851 5.05052C169.734 4.99214 169.69 4.83159 169.749 4.71483C169.807 4.59807 169.968 4.55428 170.084 4.61266V4.62727Z" fill="white"/>
<path d="M168.285 26.3875C168.285 26.3875 167.468 27.1319 166.271 28.2702C165.06 29.394 163.44 30.9118 161.761 32.3858C160.9 33.101 160.039 33.8161 159.163 34.3853C158.288 34.9691 157.456 35.4945 156.682 35.8448C155.923 36.2096 155.252 36.4432 154.785 36.5745C154.303 36.7059 154.026 36.7642 154.026 36.7642C153.895 36.7934 153.763 36.7058 153.734 36.5599C153.72 36.4577 153.763 36.3556 153.836 36.2972C153.836 36.2972 154.77 35.6842 156.157 34.8669C157.558 34.0496 159.412 32.9405 161.221 31.6853C163.031 30.4448 164.724 29.0291 165.935 27.9054C167.176 26.8108 167.935 26.0227 167.935 26.0227C168.037 25.9205 168.183 25.9205 168.285 26.0227C168.387 26.1248 168.387 26.2708 168.285 26.3729V26.3875Z" fill="white"/>
<path d="M402.182 21.4842C402.182 21.4842 401.715 22.141 400.825 23.3815C399.818 24.6221 398.344 26.4464 396.096 28.2999C393.863 30.1826 390.915 32.1674 387.267 33.9042C383.603 35.5825 379.24 37.0128 374.35 37.7717C369.461 38.6036 364.076 38.6911 358.472 38.2241C352.853 37.7279 347.015 36.7063 341.06 35.4366C335.091 34.1523 329.02 32.6782 322.803 31.3793C316.585 30.095 310.237 28.9128 303.888 27.8328C297.525 26.7674 291.162 25.7604 284.872 24.9139C278.581 24.0821 272.393 23.2648 266.453 22.7685C260.499 22.2723 254.763 22.1118 249.392 22.5205C246.707 22.6956 244.109 22.9875 241.628 23.4399C240.519 23.6151 239.089 23.9507 237.979 24.1988C236.841 24.4615 235.703 24.768 234.579 25.1037C230.142 26.461 226.216 28.1977 222.991 30.1242C219.736 32.0215 217.153 34.0793 215.168 35.9328C214.176 36.8523 213.358 37.7571 212.629 38.5306C211.943 39.3333 211.388 40.0338 210.907 40.603C210.046 41.7998 209.579 42.4273 209.579 42.4273L209.535 42.5003C209.184 42.982 208.499 43.0987 208.002 42.7484C207.564 42.4273 207.433 41.829 207.681 41.362C207.681 41.362 208.061 40.6176 208.79 39.2166C209.593 37.8739 210.79 35.8598 212.76 33.6561C214.687 31.4085 217.328 28.942 220.714 26.5923C224.129 24.2864 228.274 22.1118 233.076 20.4918C234.258 20.0832 235.513 19.7037 236.826 19.3534C238.155 18.9886 239.235 18.7551 240.709 18.4778C243.379 17.9524 246.152 17.6021 249.013 17.3832C254.734 17.0037 260.761 17.1497 266.891 17.7626C273.035 18.361 279.267 19.3243 285.557 20.4042C291.862 21.4842 298.255 22.6664 304.603 24.0091C310.952 25.3518 317.286 26.7966 323.489 28.329C329.662 29.8907 335.748 31.4231 341.63 32.8971C347.497 34.3274 353.203 35.4658 358.661 35.9912C364.12 36.5166 369.33 36.502 374.029 35.7576C378.743 35.0425 382.917 33.6706 386.42 32.0798C389.908 30.4599 392.681 28.5334 394.754 26.7383C396.855 24.9577 398.169 23.2648 399.073 22.1556C399.935 20.9151 400.402 20.2437 400.402 20.2437C400.752 19.7475 401.423 19.6308 401.919 19.9664C402.416 20.3167 402.532 20.988 402.197 21.4842H402.182Z" fill="#1D262D"/>
<path d="M229.582 23.9206C238.996 19.586 246.483 11.2672 249.825 1.45966C246.512 1.3429 243.126 1.72237 240.076 3.02128C235.507 4.96235 231.976 8.8591 229.568 13.2083C227.159 17.5574 225.715 22.359 224.313 27.1168" fill="#1D262D"/>
<path d="M229.364 23.4684L231.115 22.6219L232.779 21.7024C233.888 21.0603 234.939 20.3305 235.961 19.5716L237.464 18.3895L238.909 17.1344L240.281 15.8062L241.594 14.4052L242.835 12.9457L244.002 11.4279L245.068 9.83711L246.045 8.20253L246.95 6.52413L247.768 4.80199L248.483 3.03606L249.096 1.24093L249.796 2.24795C246.571 2.21876 243.331 2.67118 240.485 3.97009C239.755 4.32036 239.084 4.65606 238.442 5.09389C237.785 5.51713 237.157 5.96957 236.544 6.46578C235.318 7.44361 234.224 8.59657 233.231 9.83711C232.239 11.063 231.393 12.4203 230.575 13.7922C229.787 15.2079 229.087 16.6235 228.43 18.1268C227.773 19.6154 227.146 21.1187 226.576 22.6657L225.686 24.9716C225.394 25.7451 225.102 26.5186 224.781 27.2921C224.679 27.5402 224.387 27.6716 224.139 27.5694C223.92 27.4818 223.803 27.2483 223.833 27.0148C224.154 25.3802 224.504 23.7602 224.942 22.1403C225.394 20.5349 225.861 18.9149 226.445 17.3241C226.737 16.536 227.058 15.7479 227.408 14.9744C227.758 14.2008 228.153 13.4273 228.547 12.683C229.364 11.1798 230.342 9.73493 231.436 8.40683C232.531 7.06414 233.757 5.8382 235.143 4.7582C235.829 4.21821 236.559 3.72198 237.318 3.28415C238.077 2.83172 238.909 2.45229 239.682 2.13121C242.951 0.817708 246.469 0.525801 249.84 0.744718H249.898C250.307 0.773907 250.613 1.12419 250.584 1.53283C250.584 1.60581 250.555 1.69338 250.526 1.76635L249.796 3.60523L248.979 5.40037L248.074 7.15172L247.082 8.85925L246.002 10.5084L244.849 12.0992L243.637 13.6462L242.353 15.1349L240.996 16.5506L239.565 17.9079L238.077 19.1922L236.53 20.3889L234.924 21.5127L233.261 22.5635L231.538 23.5413L229.802 24.417C229.554 24.5337 229.262 24.4462 229.145 24.1981C229.028 23.95 229.116 23.6581 229.364 23.5413V23.4684Z" fill="#1D262D"/>
<path d="M242.804 21.0308C248.277 21.1183 253.735 22.7237 258.391 25.6135C259.558 26.3432 260.697 27.1605 261.543 28.2404C262.565 29.5248 263.12 31.1156 263.66 32.6626C264.331 34.5891 265.002 36.5156 265.674 38.442C259.106 37.0264 252.101 35.3626 247.562 30.4151C247.562 30.4151 244.234 26.5475 242.819 21.848" fill="#1D262D"/>
<path d="M242.822 20.5493C244.121 20.5785 245.507 20.7099 246.806 20.9142C248.134 21.1185 249.448 21.3812 250.732 21.7461C253.315 22.4612 255.796 23.512 258.117 24.8547C259.255 25.5261 260.437 26.2412 261.444 27.2336C262.466 28.226 263.166 29.5103 263.677 30.7509C264.188 32.0206 264.641 33.2319 265.108 34.4725L266.509 38.1649C266.684 38.6319 266.45 39.1427 265.998 39.3178C265.837 39.3762 265.677 39.3908 265.516 39.3616H265.458C262.991 38.8946 260.51 38.3984 258.058 37.6978C255.607 36.9681 253.184 36.0195 250.922 34.6622C250.367 34.3119 249.798 33.9616 249.287 33.5384C248.747 33.1444 248.251 32.7065 247.769 32.2541C247.521 32.0352 247.302 31.7725 247.069 31.539L246.704 31.1449L246.397 30.7509C246.003 30.2255 245.638 29.7 245.288 29.1455C243.902 26.9709 242.822 24.5628 242.34 22.0234C242.282 21.7607 242.471 21.4979 242.734 21.4396C242.968 21.3958 243.187 21.5125 243.274 21.7315C243.77 22.8552 244.31 23.9498 244.953 24.9861C245.565 26.0223 246.251 27.0293 246.981 27.9925C247.346 28.4741 247.711 28.9558 248.09 29.4082L248.368 29.7293L248.66 30.0066C248.878 30.2109 249.083 30.4152 249.302 30.6049C249.74 30.9844 250.177 31.3784 250.659 31.7141C251.126 32.079 251.637 32.3708 252.118 32.7065C254.132 33.9616 256.365 34.8811 258.701 35.6254C261.021 36.3989 263.415 37.0119 265.837 37.5957L264.786 38.7778L263.604 35.0125C263.196 33.7573 262.831 32.473 262.393 31.2763C261.955 30.0795 261.401 28.9703 260.569 28.0801C259.737 27.1752 258.686 26.4309 257.562 25.7741C255.344 24.446 252.95 23.3952 250.455 22.6801C249.214 22.3152 247.944 22.0379 246.66 21.8482C245.361 21.6731 244.106 21.5709 242.778 21.5709C242.501 21.5709 242.282 21.352 242.282 21.0747C242.282 20.7974 242.501 20.5785 242.778 20.5785H242.807L242.822 20.5493Z" fill="#1D262D"/>
<path d="M254.822 18.5066C254.822 18.5066 255.494 18.3752 256.661 18.1563C257.843 17.9374 259.434 17.5725 261.404 17.0617C263.36 16.5801 265.608 15.8796 268.001 15.0623C270.395 14.2888 272.919 13.3109 275.4 12.2747C276.641 11.7639 277.896 11.2532 279.107 10.7132C280.333 10.1878 281.516 9.63315 282.669 9.09315C284.96 7.99856 287.12 7.00614 288.93 6.08669C292.578 4.26238 295.001 3.05105 295.001 3.05105C295.366 2.86132 295.804 3.00727 295.979 3.37213C296.154 3.70781 296.022 4.11643 295.716 4.30616C295.716 4.30616 295.132 4.67101 294.125 5.29857C293.104 5.91154 291.644 6.8164 289.849 7.80883C288.054 8.80125 285.952 9.96881 283.632 11.0926C281.311 12.2018 278.83 13.384 276.276 14.4056C273.722 15.4126 271.139 16.3612 268.658 17.1201C267.432 17.5288 266.206 17.8061 265.068 18.1271C263.915 18.3898 262.835 18.6817 261.813 18.8569C260.806 19.0612 259.872 19.2363 259.025 19.3385C258.194 19.4552 257.449 19.572 256.865 19.6304C255.683 19.7471 254.997 19.8055 254.997 19.8055C254.632 19.8347 254.311 19.572 254.268 19.2071C254.238 18.8569 254.472 18.5504 254.808 18.492L254.822 18.5066Z" fill="#1D262D"/>
<path d="M273.617 21.235C273.617 21.235 274.172 21.3518 275.135 21.5707C276.113 21.8188 277.514 22.1837 279.149 22.7382C279.951 23.0447 280.842 23.322 281.761 23.7015C282.68 24.0518 283.658 24.4458 284.622 24.9128C286.577 25.8323 288.635 26.8539 290.62 28.0214C291.627 28.5906 292.575 29.2474 293.524 29.8604C294.458 30.5171 295.378 31.1301 296.239 31.7869C297.114 32.4144 297.917 33.0857 298.676 33.7279C299.45 34.3555 300.121 35.0122 300.763 35.596C301.42 36.1652 301.945 36.7636 302.427 37.2598C302.923 37.756 303.317 38.223 303.653 38.6025C304.309 39.3614 304.674 39.7992 304.674 39.7992C304.937 40.1057 304.893 40.5581 304.587 40.8208C304.309 41.0689 303.886 41.0543 303.624 40.8062L303.594 40.777C303.594 40.777 303.186 40.3976 302.471 39.7262C302.12 39.3905 301.697 38.9819 301.172 38.5441C300.646 38.1062 300.092 37.5808 299.435 37.0554C298.151 35.9755 296.604 34.7933 294.911 33.5819C293.218 32.356 291.35 31.1447 289.423 30.0063C287.526 28.8388 285.556 27.788 283.673 26.8539C282.724 26.4015 281.834 25.949 280.944 25.555C280.083 25.1317 279.236 24.8107 278.463 24.475C276.901 23.8474 275.617 23.3366 274.697 23.0155C273.763 22.6945 273.223 22.5047 273.223 22.5047C272.873 22.388 272.698 22.0085 272.815 21.6583C272.931 21.3372 273.267 21.1474 273.588 21.2204L273.617 21.235Z" fill="#1D262D"/>
<path d="M318.352 28.4158C324.146 28.3866 330.027 27.2775 335.135 24.5337C340.243 21.8045 344.563 17.3678 346.548 11.9094C340.448 12.4056 334.333 13.7338 328.918 16.5943C323.504 19.4548 318.819 23.9353 316.469 29.598C317.928 29.0872 319.388 28.5763 320.847 28.0655" fill="#1D262D"/>
<path d="M318.333 27.9193C321.208 27.9193 324.084 27.6713 326.871 27.0291C329.659 26.4015 332.373 25.4383 334.883 24.081C335.511 23.7453 336.139 23.3659 336.722 22.9864C337.321 22.5924 337.89 22.1837 338.445 21.7459C339.554 20.8702 340.59 19.8924 341.539 18.8416C342.473 17.7908 343.319 16.6524 344.049 15.4411C344.764 14.2297 345.348 12.96 345.8 11.6319L346.617 12.6973C340.605 13.3249 334.694 14.7989 329.454 17.5719L328.476 18.1265L327.557 18.6957C326.944 19.0897 326.331 19.5129 325.733 19.9508C324.551 20.8264 323.412 21.7751 322.391 22.8113C321.865 23.3367 321.369 23.8621 320.887 24.4167C320.406 24.9713 319.968 25.555 319.515 26.1388C319.078 26.7372 318.669 27.3356 318.29 27.9631C317.91 28.5907 317.574 29.2475 317.253 29.9042L316.217 28.795C317.72 28.3864 319.194 27.9486 320.712 27.5837C320.975 27.5253 321.252 27.6859 321.311 27.9486C321.369 28.1821 321.252 28.4156 321.033 28.5177C319.618 29.1745 318.187 29.7437 316.757 30.3566C316.348 30.5318 315.881 30.3566 315.706 29.9334C315.619 29.7291 315.619 29.5247 315.706 29.335L315.735 29.2475C316.013 28.5031 316.334 27.7734 316.684 27.0583C317.049 26.3431 317.428 25.6426 317.852 24.9713C318.698 23.614 319.705 22.3735 320.8 21.2059C321.909 20.0675 323.106 19.0021 324.39 18.0681C325.032 17.601 325.704 17.1632 326.375 16.74L327.411 16.127L328.433 15.5724C329.834 14.8427 331.293 14.2151 332.767 13.6752C334.256 13.1497 335.759 12.7265 337.292 12.3762C340.342 11.6611 343.436 11.2816 346.53 11.1065H346.574C347.011 11.0773 347.376 11.413 347.406 11.8362C347.406 11.953 347.406 12.0698 347.347 12.1719C347.07 12.8725 346.749 13.5584 346.413 14.2297C346.063 14.9011 345.683 15.5432 345.275 16.1708C344.457 17.4259 343.523 18.5935 342.502 19.6735C341.48 20.7535 340.356 21.7313 339.16 22.607C338.561 23.0448 337.948 23.4534 337.335 23.8621C336.693 24.2707 336.066 24.621 335.423 24.9713C332.811 26.3578 330.009 27.321 327.134 27.934C325.704 28.255 324.244 28.4594 322.785 28.6199C321.34 28.7804 319.851 28.868 318.406 28.8826C318.129 28.8826 317.91 28.6637 317.91 28.401C317.91 28.1237 318.129 27.9048 318.392 27.9048L318.333 27.9193Z" fill="#1D262D"/>
<path d="M328.608 31.2327C332.767 33.5678 336.912 36.0342 340.4 39.2888C343.888 42.5434 346.705 46.7028 347.595 51.3877C342.56 48.3666 336.226 47.3158 332.198 43.025C329.352 39.9893 328.097 35.5088 328.973 31.437" fill="#1D262D"/>
<path d="M328.854 30.8095C332.97 33.2176 337.188 35.6111 340.763 38.924C342.529 40.5732 344.193 42.3829 345.521 44.4553C346.849 46.5132 347.915 48.7899 348.455 51.2418C348.557 51.6942 348.265 52.1466 347.812 52.2488C347.608 52.2926 347.404 52.2488 347.229 52.1612L347.17 52.132C345.054 50.979 342.734 50.1034 340.384 49.2131C339.202 48.7607 338.034 48.2499 336.852 47.6807C335.684 47.1115 334.531 46.4548 333.451 45.6521C332.911 45.258 332.371 44.8348 331.904 44.3532L331.54 43.9883L331.335 43.784L331.175 43.6088C330.97 43.3753 330.766 43.1418 330.547 42.8353C330.095 42.2661 329.774 41.697 329.438 41.0986C329.131 40.4856 328.84 39.8726 328.635 39.2305C327.745 36.6764 327.687 33.8597 328.504 31.3495C328.591 31.0868 328.869 30.9408 329.131 31.0284C329.35 31.1014 329.482 31.3203 329.467 31.5392C329.38 32.7651 329.394 33.9619 329.598 35.1294C329.774 36.297 330.124 37.4208 330.576 38.4862C331.014 39.5516 331.642 40.5586 332.328 41.4197C332.474 41.624 332.678 41.8575 332.897 42.091L333.057 42.2662L333.189 42.3829L333.495 42.6748C333.904 43.0689 334.342 43.4483 334.809 43.7986C336.662 45.2288 338.91 46.2067 341.172 47.2283C343.449 48.2499 345.813 49.2423 348.017 50.6434L346.732 51.5337C346.382 49.2861 345.565 47.0969 344.383 45.1121C343.201 43.1126 341.741 41.2591 340.034 39.6537C336.604 36.4284 332.547 33.9035 328.358 31.6414C328.124 31.51 328.022 31.2181 328.154 30.97C328.285 30.7365 328.577 30.6343 328.825 30.7657C328.825 30.7657 328.825 30.7657 328.84 30.7657L328.854 30.8095Z" fill="#1D262D"/>
<path d="M281.6 11.282C281.527 10.815 281.527 10.1582 281.6 9.61823C281.687 9.06364 281.862 8.5382 282.067 8.02739C282.505 7.02037 283.147 6.13013 283.876 5.35662C284.241 4.97716 284.635 4.5977 285.044 4.26203C285.453 3.91176 285.905 3.60529 286.314 3.3134C286.752 3.0361 287.219 2.72961 287.671 2.4815C288.138 2.2188 288.605 1.9999 289.087 1.76638C291.028 0.905308 293.086 0.33613 295.216 0.131807C297.333 -0.0579213 299.507 0.0442081 301.623 0.555015C302.061 0.657177 302.339 1.09505 302.266 1.54747V1.60582C301.828 3.7804 300.733 5.77986 299.288 7.41445C298.559 8.23174 297.727 8.94688 296.851 9.57445C296.413 9.88093 295.946 10.1874 295.479 10.4501C294.997 10.7274 294.545 10.9609 294.005 11.209C293.553 11.4133 293.056 11.6031 292.516 11.7782C292.006 11.9387 291.495 12.0847 290.969 12.216C289.933 12.4642 288.868 12.6101 287.817 12.683C285.715 12.8436 283.614 12.6539 281.6 12.2452C281.337 12.1868 281.162 11.9242 281.206 11.6614C281.249 11.4425 281.439 11.282 281.658 11.2674C283.672 11.136 285.657 10.9463 287.569 10.6398C288.532 10.4793 289.466 10.275 290.4 10.0269C290.867 9.89552 291.32 9.76416 291.772 9.60362C292.181 9.44308 292.633 9.28252 293.115 9.0782C293.494 8.91766 293.947 8.69878 294.355 8.47986C294.764 8.24635 295.173 8.01284 295.552 7.75014C296.326 7.22473 297.041 6.61173 297.697 5.94039C298.354 5.28364 298.938 4.55391 299.42 3.75121C299.901 2.96311 300.266 2.10205 300.514 1.21179L301.142 2.26259C299.288 1.66422 297.303 1.3723 295.319 1.45987C293.334 1.56203 291.349 1.9561 289.495 2.71502C288.561 3.09447 287.686 3.5615 286.839 4.0869C286.401 4.37879 285.993 4.64149 285.613 4.94797C285.219 5.25446 284.869 5.60473 284.519 5.955C283.847 6.67013 283.263 7.47282 282.884 8.36308C282.709 8.81551 282.578 9.26794 282.505 9.73497C282.461 10.2166 282.461 10.6106 282.534 11.1506C282.578 11.4133 282.388 11.676 282.125 11.7052C281.862 11.749 281.6 11.5593 281.571 11.2966V11.2528L281.6 11.282Z" fill="#1D262D"/>
<path d="M294.442 31.9626C294.88 31.9042 295.333 31.8604 295.814 31.8458C296.281 31.8458 296.748 31.8458 297.201 31.8896C298.12 31.9626 299.04 32.1231 299.93 32.4004C301.696 32.9404 303.374 33.8307 304.761 35.1004C305.111 35.4215 305.403 35.7279 305.753 36.0928C306.059 36.4431 306.351 36.8079 306.629 37.1874C307.169 37.9463 307.621 38.7782 307.986 39.6539C308.701 41.3906 309.095 43.3025 308.993 45.229C308.978 45.6376 308.672 45.9587 308.278 46.0171H308.205C306.308 46.3236 304.352 46.1484 302.498 45.5938C301.579 45.3019 300.689 44.8933 299.857 44.3971C299.448 44.149 299.04 43.8717 298.645 43.5798C298.251 43.2733 297.916 42.996 297.507 42.6019L297.04 42.135L296.544 41.5511C296.252 41.1717 295.96 40.7631 295.712 40.3544C295.201 39.5225 294.807 38.6323 294.53 37.7128C294.253 36.7934 294.077 35.8447 294.034 34.896C294.019 33.9474 294.077 32.9988 294.326 32.0793C294.399 31.8166 294.676 31.6561 294.938 31.7291C295.143 31.7874 295.289 31.9626 295.303 32.1523L295.449 33.4366C295.508 33.8598 295.61 34.2685 295.697 34.6625C295.887 35.4652 296.15 36.2533 296.471 36.9977C296.646 37.3625 296.807 37.742 296.996 38.0922C297.186 38.4425 297.42 38.7782 297.624 39.1285C297.843 39.4642 298.091 39.7852 298.339 40.0917L298.704 40.5149L299.156 40.9966C299.39 41.2301 299.725 41.522 300.017 41.7701C300.338 42.0182 300.66 42.2517 300.995 42.4706C301.345 42.6749 301.696 42.8792 302.046 43.0544C302.411 43.2295 302.79 43.3755 303.155 43.536C304.658 44.1198 306.322 44.3825 307.942 44.2657L307.169 45.0684C307.388 43.4338 307.242 41.7263 306.672 40.1209C306.395 39.3182 306.03 38.5447 305.578 37.8296C305.344 37.4647 305.111 37.129 304.848 36.7934C304.6 36.4869 304.294 36.1512 303.987 35.8447C302.761 34.6772 301.243 33.7577 299.594 33.2761C298.777 33.028 297.916 32.8528 297.069 32.809C296.179 32.7653 295.391 32.8091 294.501 32.955C294.238 32.9988 293.975 32.8237 293.931 32.5464C293.888 32.2837 294.063 32.0209 294.34 31.9771C294.34 31.9771 294.34 31.9771 294.355 31.9771H294.384L294.442 31.9626Z" fill="#1D262D"/>
<path d="M402.732 18.6085C402.732 18.6085 403.17 18.2437 403.856 17.5869C404.542 16.9156 405.476 15.8794 406.41 14.5075C407.315 13.1356 408.293 11.4281 408.891 9.47241C409.197 8.49458 409.446 7.47296 409.475 6.45134C409.519 5.51729 409.168 4.16 408.818 4.26217C408.657 4.21838 408.263 4.32053 407.913 4.56864C407.738 4.68539 407.563 4.83134 407.446 4.97728C407.256 5.18161 407.067 5.38596 406.95 5.5611C406.366 6.33461 405.899 7.22484 405.534 8.1297C404.804 9.95401 404.425 11.8513 403.929 13.4859C403.447 15.0913 403.112 16.3318 403.039 17.2221C402.995 17.6599 403.039 18.0102 403.039 18.2437C403.068 18.4772 403.082 18.6085 403.082 18.6085V18.6669C403.126 18.915 402.951 19.1339 402.703 19.1631C402.513 19.1923 402.338 19.0902 402.25 18.9296C402.25 18.9296 402.177 18.7837 402.046 18.521C401.929 18.2437 401.798 17.835 401.71 17.295C401.506 16.215 401.652 14.668 402.032 13.0189C402.367 11.3989 402.776 9.41405 403.666 7.34163C404.119 6.30542 404.717 5.28378 405.549 4.34973C405.768 4.10162 405.972 3.89731 406.176 3.72218C406.439 3.47407 406.716 3.26976 407.023 3.09462C407.621 2.77355 408.38 2.43786 409.314 2.75894C409.519 2.81731 409.854 3.05084 409.883 3.09462C410.117 3.29895 410.219 3.44489 410.336 3.63461C410.54 3.99948 410.613 4.34972 410.671 4.6562C410.774 5.28377 410.788 5.91136 410.715 6.50973C410.599 7.70648 410.248 8.80104 409.869 9.80806C409.066 11.8221 408.074 13.5734 407.081 14.9599C406.103 16.3756 405.14 17.4264 404.454 18.1561C403.739 18.8858 403.33 19.2507 403.33 19.2507H403.301C403.112 19.4258 402.834 19.4113 402.674 19.2215C402.513 19.0318 402.542 18.7545 402.717 18.594L402.732 18.6085Z" fill="#1D262D"/>
<path d="M402.908 18.609C402.908 18.609 403.2 18.2733 403.754 17.6896C404.309 17.1204 405.112 16.3031 406.163 15.442C407.213 14.5517 408.454 13.6031 409.986 12.7274C410.76 12.3042 411.621 11.9393 412.584 11.7642C413.066 11.6766 413.577 11.6328 414.087 11.6766C414.35 11.7058 414.584 11.7204 414.89 11.808C415.167 11.8664 415.707 12.1436 415.897 12.6836C416.233 14.0847 415.678 15.1355 415.08 15.982C414.452 16.8285 413.664 17.4269 412.876 17.9085C412.088 18.3755 411.329 18.7258 410.57 19.0468C409.811 19.3387 409.081 19.5722 408.381 19.7182C406.994 20.0247 405.812 20.0685 404.995 20.0101C404.178 19.9663 403.711 19.8641 403.711 19.8641C403.463 19.8058 403.317 19.5722 403.375 19.3241C403.419 19.149 403.55 19.0176 403.711 18.9885C403.711 18.9885 404.134 18.8863 404.893 18.6966C405.637 18.4923 406.673 18.2295 407.885 17.8355C408.483 17.6311 409.14 17.4122 409.811 17.1204C410.483 16.8577 411.198 16.522 411.869 16.1571C412.526 15.7923 413.168 15.3544 413.664 14.829C414.16 14.3328 414.423 13.5885 414.423 13.209C414.467 13.2966 414.569 13.3112 414.438 13.2382C414.321 13.1944 414.102 13.1361 413.927 13.1069C413.562 13.0339 413.168 13.0047 412.774 13.0485C411.986 13.1215 411.212 13.3696 410.468 13.6906C409.008 14.3328 407.739 15.2961 406.703 16.0988C405.681 16.9452 404.893 17.7188 404.382 18.2879C403.871 18.8571 403.594 19.2074 403.594 19.2074C403.448 19.3971 403.171 19.4263 402.981 19.2804C402.791 19.1344 402.762 18.8571 402.908 18.6674V18.609Z" fill="#1D262D"/>
<path d="M401.973 18.5357C401.973 18.5357 402.017 18.0833 402.046 17.3244C402.076 16.5509 402.046 15.4563 401.9 14.1428C401.711 12.8585 401.463 11.2823 400.85 9.79366C400.558 9.04934 400.149 8.3342 399.638 7.73583C399.376 7.44394 399.084 7.18125 398.763 6.97693C398.617 6.87477 398.412 6.77259 398.296 6.7288C398.15 6.68502 398.237 6.7434 398.325 6.7288C398.077 7.0061 397.726 7.72123 397.756 8.42177C397.756 9.1369 397.902 9.89583 398.121 10.6256C398.354 11.3553 398.631 12.0996 398.938 12.7417C399.215 13.4131 399.551 14.0115 399.828 14.5806C400.426 15.7044 400.996 16.6239 401.39 17.2806C401.798 17.9374 402.032 18.3022 402.032 18.3022C402.163 18.5066 402.105 18.7984 401.886 18.9298C401.74 19.0173 401.55 19.0173 401.404 18.9298C401.404 18.9298 400.996 18.6817 400.383 18.1417C399.755 17.6163 398.923 16.7698 398.15 15.5877C397.741 15.0039 397.391 14.318 397.041 13.5882C396.719 12.8293 396.413 12.0558 396.165 11.1801C395.931 10.2898 395.785 9.31202 395.917 8.27582C396.077 7.2542 396.398 6.10125 397.61 5.32774C398.121 5.07964 398.69 5.24016 398.938 5.4007C399.215 5.56124 399.39 5.6926 399.609 5.86773C400.003 6.18881 400.353 6.56828 400.631 6.97693C401.2 7.76503 401.579 8.62609 401.842 9.47257C402.338 11.1655 402.586 12.7126 402.718 14.0844C402.864 15.4417 402.878 16.5801 402.893 17.3828C402.893 18.1855 402.864 18.6233 402.864 18.6233C402.864 18.886 402.645 19.0758 402.397 19.0612C402.149 19.0612 401.973 18.8422 401.988 18.5941C401.988 18.5941 401.988 18.5941 401.988 18.5795L401.973 18.5357Z" fill="#1D262D"/>
<path d="M386.228 33.0423C386.754 32.4878 387.235 31.9185 387.688 31.3348C388.126 30.7218 388.52 30.0943 388.884 29.4521C389.235 28.7954 389.556 28.1094 389.818 27.4235C390.081 26.7229 390.315 26.0224 390.504 25.2927C390.68 24.5629 390.811 23.8332 390.898 23.1035C390.986 22.3592 391.015 21.6295 391.03 20.8851C391.03 20.1408 390.957 19.4111 390.869 18.6814C390.767 17.9516 390.607 17.2365 390.431 16.5214L391.424 16.9592C390.344 17.6306 389.556 18.7251 389.03 19.9365C388.884 20.243 388.768 20.5495 388.665 20.8705C388.578 21.1332 388.447 21.5565 388.374 21.863C388.213 22.4905 388.096 23.191 388.009 23.8624C387.658 26.5916 387.863 29.4375 387.775 32.3564C387.775 32.5607 387.6 32.7213 387.396 32.7213C387.221 32.7213 387.089 32.6045 387.046 32.444C386.316 29.6272 385.907 26.6645 386.287 23.6435C386.403 22.8846 386.535 22.1548 386.754 21.3959C386.87 21.0165 386.958 20.7246 387.104 20.3159C387.235 19.9511 387.381 19.5862 387.556 19.236C388.257 17.8495 389.308 16.536 390.767 15.7771L390.811 15.7479C391.132 15.5873 391.526 15.7041 391.687 16.0252C391.716 16.0835 391.745 16.1565 391.745 16.2149C391.891 16.9884 391.978 17.7765 392.037 18.5646C392.081 19.3527 392.066 20.1262 392.037 20.9143C391.993 21.6878 391.905 22.4613 391.774 23.2348C391.643 24.0083 391.453 24.7526 391.249 25.497C391.03 26.2413 390.767 26.971 390.49 27.6861C390.183 28.4013 389.848 29.0872 389.483 29.7732C389.103 30.4445 388.68 31.1013 388.242 31.7288C387.775 32.371 387.294 32.9694 386.783 33.5239C386.651 33.6845 386.418 33.6991 386.257 33.5677C386.111 33.4364 386.097 33.2029 386.228 33.0423Z" fill="#1D262D"/>
<path d="M392.638 29.9339C393.295 29.6566 393.966 29.3938 394.667 29.1457C395.353 28.9268 396.039 28.6787 396.739 28.489C398.14 28.095 399.57 27.8176 401.001 27.6425C401.716 27.5549 402.446 27.5112 403.175 27.4528C403.905 27.409 404.635 27.3944 405.35 27.409C406.809 27.4382 408.269 27.5696 409.714 27.8031C410.02 27.8469 410.239 28.1533 410.195 28.4598C410.181 28.5911 410.108 28.7079 410.02 28.7955L409.991 28.8247C408.663 30.036 407.247 31.189 405.686 32.1668C404.912 32.6484 404.095 33.1009 403.234 33.4657C402.387 33.816 401.468 34.1371 400.563 34.3414C398.739 34.7939 396.783 34.8522 394.915 34.3852C394.448 34.2684 393.981 34.1079 393.528 33.889C393.09 33.6846 392.623 33.3782 392.273 33.0863C391.573 32.5025 391.003 31.8895 390.449 32.0501H390.434C390.23 32.1085 390.026 32.0063 389.967 31.802C389.923 31.6414 389.982 31.4809 390.113 31.3933C390.624 31.0284 391.354 31.1452 391.806 31.3495C392.288 31.5538 392.696 31.8166 393.047 32.0355C393.412 32.269 393.718 32.4149 394.097 32.5463C394.462 32.663 394.871 32.7506 395.265 32.809C396.885 33.0863 398.563 32.9987 400.198 32.663C401.03 32.4879 401.803 32.2398 402.606 31.9187C403.38 31.5977 404.168 31.2474 404.927 30.8387C406.43 30.0214 407.86 29.0144 409.247 27.9198L409.509 28.9414C408.152 28.6058 406.751 28.4161 405.335 28.3139C403.934 28.2117 402.504 28.2263 401.103 28.3868C399.702 28.5328 398.301 28.7955 396.929 29.1457C395.542 29.496 394.243 29.9777 392.945 30.5906C392.755 30.6782 392.536 30.5906 392.448 30.4155C392.361 30.2258 392.448 30.0068 392.623 29.9192L392.638 29.9339Z" fill="#1D262D"/>
<path d="M408.571 29.0587C408.571 29.0587 407.593 29.0149 406.148 29.1171C404.703 29.19 402.777 29.4819 400.909 29.949C399.041 30.416 397.216 31.0727 395.874 31.5835C394.516 32.0944 393.612 32.4446 393.612 32.4446C393.553 32.4738 393.48 32.4446 393.451 32.3717C393.436 32.3133 393.451 32.2549 393.495 32.2257C393.495 32.2257 394.312 31.6857 395.669 31.0873C397.012 30.4744 398.895 29.9052 400.821 29.5257C402.748 29.1463 404.689 28.9565 406.148 28.8836C407.608 28.8106 408.586 28.8252 408.586 28.8252C408.659 28.8252 408.717 28.869 408.717 28.9419C408.717 29.0149 408.673 29.0733 408.6 29.0733L408.571 29.0587Z" fill="#1D262D"/>
<path d="M389.932 17.7183C389.932 17.7183 390.005 21.3231 389.581 24.8988C389.377 26.6939 389.042 28.4744 388.647 29.7587C388.268 31.0576 387.874 31.8749 387.874 31.8749C387.845 31.9333 387.772 31.9625 387.713 31.9333C387.655 31.9041 387.626 31.8457 387.64 31.8019C387.64 31.8019 387.816 30.9117 388.122 29.6128C388.429 28.3139 388.837 26.5771 389.144 24.8258C389.45 23.0744 389.64 21.2793 389.669 19.9512C389.727 18.6085 389.669 17.7183 389.669 17.7183C389.669 17.6453 389.713 17.5869 389.786 17.5869C389.859 17.5869 389.917 17.6307 389.917 17.7037L389.932 17.7183Z" fill="#1D262D"/>
<path d="M342.21 14.3764C342.21 14.3764 341.859 14.4785 341.232 14.6537C340.604 14.8142 339.743 15.1061 338.707 15.4856C337.671 15.865 336.474 16.332 335.233 16.9304C333.993 17.5288 332.709 18.2293 331.439 18.9736C330.184 19.7179 328.972 20.5498 327.834 21.3088C326.725 22.1114 325.674 22.8412 324.798 23.4979C323.908 24.1401 323.164 24.6801 322.653 25.0595C322.128 25.439 321.821 25.6433 321.821 25.6433C321.704 25.7163 321.544 25.6871 321.471 25.5704C321.412 25.4828 321.427 25.366 321.485 25.2785C321.485 25.2785 321.719 24.9866 322.171 24.5049C322.609 24.0233 323.28 23.3666 324.142 22.6515C324.988 21.9217 326.053 21.1482 327.221 20.3747C328.389 19.6012 329.702 18.8861 331.016 18.1856C332.344 17.5142 333.701 16.9012 334.985 16.3612C336.284 15.865 337.481 15.3542 338.546 15.004C340.663 14.2888 342.078 13.8802 342.078 13.8802C342.21 13.8364 342.341 13.9094 342.385 14.0407C342.428 14.1721 342.355 14.3034 342.224 14.3472L342.21 14.3764Z" fill="white"/>
<path d="M331.882 36.3697C331.882 36.3697 332.582 37.3038 333.779 38.5589C334.946 39.8432 336.639 41.434 338.478 42.8497C340.303 44.2799 342.2 45.5788 343.601 46.5858C345.002 47.5929 345.892 48.381 345.892 48.381C345.995 48.4686 346.009 48.6291 345.922 48.7312C345.849 48.8042 345.746 48.8334 345.644 48.8042C345.644 48.8042 344.506 48.4248 343.003 47.5053C342.244 47.0675 341.412 46.4545 340.536 45.7832C339.661 45.1118 338.785 44.3237 337.924 43.5356C336.231 41.901 334.611 40.2226 333.443 38.9091C332.29 37.581 331.531 36.7054 331.531 36.7054C331.444 36.6032 331.458 36.4427 331.561 36.3551C331.663 36.2675 331.823 36.2821 331.911 36.3843L331.882 36.3697Z" fill="white"/>
<path d="M246.134 3.76581C246.134 3.76581 245.827 3.92635 245.287 4.21824C244.747 4.51013 244.003 4.94797 243.142 5.54634C242.281 6.13012 241.289 6.84524 240.325 7.72091C239.362 8.59658 238.384 9.57443 237.465 10.6106C236.56 11.6468 235.728 12.7706 234.969 13.8068C234.239 14.8722 233.568 15.8646 233.028 16.7549C232.474 17.6306 232.021 18.3749 231.7 18.8857C231.379 19.4111 231.175 19.703 231.175 19.703C231.102 19.8197 230.941 19.849 230.824 19.776C230.737 19.7176 230.693 19.6008 230.722 19.4987C230.722 19.4987 230.824 19.1484 231.029 18.5646C231.116 18.2581 231.277 17.9225 231.452 17.5284C231.627 17.1344 231.817 16.6819 232.094 16.2149C232.59 15.2663 233.262 14.2155 234.064 13.1501C234.852 12.0701 235.83 11.0339 236.823 10.0123C237.844 9.01983 238.91 8.08578 239.946 7.26848C241.011 6.48038 241.975 5.7069 242.879 5.15231C244.675 3.99934 245.9 3.34256 245.9 3.34256C246.017 3.26959 246.163 3.31337 246.236 3.43012C246.309 3.54688 246.251 3.70744 246.134 3.76581Z" fill="white"/>
<path d="M248.017 24.7236C248.017 24.7236 248.791 25.5118 250.017 26.6063C251.228 27.7301 252.921 29.1458 254.731 30.3863C256.526 31.6414 258.394 32.7506 259.795 33.5679C261.196 34.3852 262.116 34.9982 262.116 34.9982C262.233 35.0711 262.262 35.2317 262.189 35.3484C262.13 35.436 262.028 35.4798 261.926 35.4506C261.926 35.4506 261.649 35.3922 261.167 35.2609C260.686 35.1295 260.029 34.896 259.27 34.5311C258.496 34.1809 257.664 33.6555 256.789 33.0717C255.913 32.4879 255.037 31.7874 254.191 31.0723C252.513 29.5982 250.907 28.095 249.681 26.9566C248.485 25.8036 247.667 25.0739 247.667 25.0739C247.565 24.9864 247.551 24.8258 247.638 24.7236C247.726 24.6215 247.886 24.6069 247.988 24.6945L248.017 24.7236Z" fill="white"/>
</svg>
