<svg width="524" height="44" viewBox="0 0 524 44" fill="none" xmlns="http://www.w3.org/2000/svg">
<path d="M257.881 13.4811C257.881 13.4811 257.661 13.3303 257.243 13.0286C256.826 12.727 256.188 12.2861 255.364 11.7176C253.693 10.5923 251.21 8.92166 247.846 7.1002C246.152 6.19528 244.25 5.24397 242.092 4.37384C241.013 3.93298 239.876 3.5153 238.669 3.12085C237.463 2.73799 236.198 2.37831 234.875 2.07667C233.553 1.77503 232.172 1.53138 230.734 1.33415C229.295 1.16012 227.798 1.04414 226.267 1.00934C225.884 1.00934 225.501 0.997736 225.107 1.00934C224.712 1.00934 224.329 1.02096 223.935 1.03256C223.541 1.05577 223.146 1.06735 222.74 1.09056C222.346 1.10216 221.94 1.14859 221.533 1.18339C219.921 1.32261 218.273 1.55462 216.591 1.87946C214.92 2.20431 213.238 2.64514 211.579 3.22522C209.909 3.8053 208.261 4.5478 206.695 5.46433C205.918 5.9284 205.14 6.42728 204.409 6.99576C203.678 7.55264 202.982 8.16754 202.321 8.82884C201.022 10.163 199.896 11.6945 199.096 13.4115C198.295 15.1285 197.773 17.008 197.646 18.9571C197.622 19.2007 197.622 19.4443 197.611 19.688C197.599 19.9316 197.611 20.1753 197.611 20.4305V20.8017C197.611 20.9294 197.634 21.0454 197.634 21.173C197.646 21.4166 197.669 21.6603 197.68 21.9155C197.796 22.9017 197.994 23.8646 198.284 24.8275C198.597 25.7788 199.003 26.6954 199.502 27.5887C199.989 28.482 200.604 29.3058 201.289 30.0947C201.973 30.8836 202.727 31.6145 203.551 32.299C204.375 32.9718 205.256 33.5984 206.184 34.1669C208.041 35.3038 210.094 36.2088 212.229 36.9165C214.375 37.6126 216.614 38.1114 218.9 38.3087C221.209 38.5059 223.552 38.4827 225.896 38.2274C228.239 37.949 230.583 37.4501 232.892 36.7424C237.509 35.3154 241.987 33.1343 246.396 30.6515C250.804 28.1688 255.178 25.4076 259.761 22.7857C260.898 22.136 262.035 21.4978 263.172 20.8481C264.297 20.21 265.411 19.5604 266.536 18.9107C268.764 17.6113 270.991 16.3119 273.219 15.0473C277.674 12.5181 282.152 10.1166 286.735 8.08632C289.032 7.07697 291.341 6.14888 293.696 5.37157C296.051 4.59426 298.429 3.94452 300.842 3.51526C303.256 3.0744 305.692 2.84239 308.117 2.8888C308.418 2.8888 308.72 2.88882 309.022 2.91203C309.323 2.93523 309.625 2.95843 309.926 2.98163L310.379 3.0164H310.599L310.82 3.06285C311.121 3.09766 311.411 3.14404 311.713 3.17884L312.154 3.23683C312.305 3.26004 312.444 3.29485 312.595 3.31805C312.885 3.37606 313.175 3.4341 313.477 3.49211C314.068 3.59652 314.637 3.75893 315.205 3.90975C315.785 4.04897 316.342 4.25783 316.899 4.44345L317.317 4.58267C317.456 4.64067 317.595 4.69864 317.723 4.75665C317.99 4.87266 318.268 4.98867 318.535 5.10468C318.813 5.2091 319.069 5.34834 319.335 5.48756C319.602 5.62678 319.857 5.75444 320.124 5.89366C320.38 6.03288 320.623 6.19525 320.878 6.34607L321.25 6.57812L321.435 6.69417C321.493 6.72898 321.551 6.77537 321.609 6.82178C321.841 6.9958 322.085 7.16984 322.317 7.34386C322.433 7.43668 322.561 7.50626 322.665 7.61068L322.99 7.90072C323.21 8.08635 323.431 8.28356 323.651 8.46919C323.848 8.67802 324.057 8.88688 324.254 9.08411L324.556 9.39731C324.649 9.50172 324.742 9.61777 324.835 9.72219C325.02 9.94262 325.194 10.1631 325.38 10.3835C325.554 10.6155 325.705 10.8475 325.867 11.0796L326.111 11.4276C326.192 11.5436 326.25 11.6712 326.331 11.7872C326.47 12.0309 326.61 12.2745 326.749 12.5182C326.876 12.7734 326.992 13.0287 327.108 13.2723L327.283 13.6552C327.341 13.7828 327.387 13.9103 327.433 14.038C327.526 14.2932 327.631 14.5601 327.723 14.8153C327.805 15.0822 327.886 15.349 327.955 15.6042L328.071 15.9986C328.106 16.1263 328.129 16.2655 328.164 16.3931C328.222 16.66 328.28 16.9268 328.338 17.1937C328.385 17.4605 328.419 17.7273 328.454 17.9942L328.512 18.4002C328.535 18.5278 328.535 18.667 328.547 18.8062C328.57 19.0731 328.582 19.3399 328.605 19.6067C328.617 19.8736 328.605 20.1404 328.605 20.4073C328.605 20.6741 328.605 20.941 328.594 21.1962C328.582 21.4631 328.559 21.7183 328.547 21.9851C328.535 22.252 328.489 22.5072 328.466 22.7624L328.419 23.1453L328.396 23.3425L328.361 23.5397C328.315 23.795 328.269 24.0502 328.222 24.3055C327.399 28.3544 325.461 32.0321 322.677 34.7585C321.296 36.0811 319.823 37.2529 318.291 38.2622C317.908 38.5059 317.526 38.7611 317.131 38.9931C316.737 39.2136 316.342 39.4456 315.959 39.666C315.159 40.0721 314.37 40.4898 313.558 40.8262C311.945 41.5107 310.321 42.0792 308.685 42.462C308.279 42.578 307.873 42.6477 307.467 42.7289C307.061 42.8101 306.666 42.9029 306.26 42.9493C305.854 43.0073 305.46 43.0653 305.065 43.1233C304.671 43.1581 304.265 43.2046 303.882 43.2394C303.488 43.2858 303.093 43.2974 302.71 43.309C302.513 43.309 302.327 43.3205 302.13 43.3321C301.933 43.3321 301.747 43.3553 301.55 43.3437C301.167 43.3437 300.784 43.3437 300.413 43.3437H300.135L299.856 43.3205C299.671 43.3205 299.485 43.2974 299.299 43.2858C299.114 43.2858 298.928 43.2625 298.742 43.2509H298.464L298.186 43.2045C297.826 43.1697 297.466 43.1233 297.107 43.0885C296.747 43.0537 296.399 42.9841 296.051 42.9377C295.703 42.8797 295.355 42.8333 295.018 42.7637C292.292 42.2416 289.832 41.4527 287.663 40.5362C285.482 39.6196 283.591 38.5871 281.955 37.5778C278.695 35.5011 276.444 33.5287 274.982 32.1481C274.24 31.4636 273.718 30.9068 273.358 30.5355C272.998 30.1643 272.813 29.9786 272.813 29.9786C272.813 29.9786 272.998 30.1643 273.381 30.5239C273.752 30.8836 274.298 31.4288 275.063 32.0785C276.572 33.4127 278.869 35.3038 282.164 37.2645C283.823 38.2158 285.714 39.1904 287.883 40.0257C290.053 40.8726 292.489 41.5803 295.158 42.0211C295.494 42.0791 295.83 42.1139 296.178 42.1604C296.515 42.2068 296.863 42.2648 297.211 42.288C297.559 42.3112 297.907 42.346 298.267 42.3808L298.534 42.404H298.8C298.974 42.4156 299.16 42.4272 299.346 42.4272C299.531 42.4272 299.705 42.4388 299.891 42.4504H300.169H300.448C300.819 42.4504 301.179 42.4388 301.562 42.4272C301.747 42.4272 301.933 42.4272 302.119 42.404C302.304 42.3924 302.49 42.3808 302.675 42.3692C303.047 42.346 303.43 42.3228 303.812 42.2648C304.195 42.2184 304.578 42.172 304.961 42.1256C305.344 42.056 305.727 41.998 306.109 41.9284C306.504 41.8704 306.887 41.7775 307.27 41.6847C307.653 41.5919 308.047 41.5223 308.43 41.3947C309.984 40.9886 311.539 40.4201 313.07 39.724C316.145 38.3434 319.08 36.3015 321.656 33.7492C321.957 33.4243 322.282 33.1111 322.561 32.7514C322.7 32.5774 322.851 32.4034 322.99 32.2293C323.118 32.0437 323.257 31.8581 323.384 31.6725L323.582 31.3941C323.64 31.3012 323.709 31.1968 323.767 31.104C323.895 30.9068 324.011 30.7212 324.138 30.5239C324.254 30.3267 324.359 30.1179 324.475 29.9206C324.579 29.7118 324.707 29.5262 324.8 29.3058C324.997 28.8881 325.217 28.4704 325.38 28.0412C325.473 27.8207 325.565 27.6119 325.647 27.3915C325.728 27.171 325.797 26.9506 325.879 26.7302L325.995 26.3938L326.088 26.0573C326.157 25.8252 326.215 25.6048 326.285 25.3728C326.343 25.1408 326.389 24.9088 326.447 24.6767C326.494 24.4447 326.563 24.2126 326.586 23.9806C326.621 23.7486 326.668 23.5049 326.702 23.2729L326.737 23.0989L326.76 22.9249L326.795 22.5652C326.818 22.3216 326.853 22.0896 326.865 21.8459C326.865 21.6023 326.888 21.3586 326.888 21.1266C326.9 20.8829 326.888 20.6393 326.888 20.4073C326.888 20.1636 326.888 19.92 326.865 19.6764C326.842 19.4327 326.818 19.1891 326.795 18.9455C326.784 18.8295 326.784 18.7019 326.76 18.5859L326.702 18.2261C326.668 17.9825 326.633 17.7389 326.586 17.5068C326.528 17.2632 326.47 17.0312 326.424 16.7876C326.401 16.6715 326.378 16.5439 326.343 16.4279L326.238 16.0799C326.169 15.8478 326.099 15.6042 326.018 15.3722C325.925 15.1402 325.832 14.9081 325.739 14.6877C325.693 14.5716 325.658 14.4556 325.6 14.3396L325.438 14.0032C325.322 13.7828 325.229 13.5507 325.101 13.3419C324.974 13.1331 324.846 12.9127 324.719 12.7038C324.649 12.5994 324.591 12.4834 324.521 12.3789L324.301 12.0773C324.15 11.8801 324.011 11.6713 323.86 11.4624C323.698 11.2652 323.535 11.0796 323.373 10.8824C323.292 10.7895 323.21 10.6851 323.129 10.5923L322.862 10.3254C322.677 10.1514 322.503 9.96581 322.317 9.78018C322.12 9.61776 321.923 9.45534 321.725 9.28132L321.435 9.03766C321.342 8.95645 321.226 8.88682 321.122 8.80561C320.913 8.65479 320.704 8.50402 320.484 8.3532C320.426 8.3184 320.38 8.27195 320.322 8.23714L320.147 8.13277L319.811 7.93549C319.579 7.80787 319.359 7.65709 319.138 7.54107C318.906 7.42506 318.662 7.30905 318.43 7.19304C318.187 7.07702 317.955 6.94936 317.711 6.85654C317.468 6.75213 317.212 6.6593 316.969 6.55489C316.841 6.50848 316.725 6.45054 316.597 6.40413L316.215 6.27646C315.692 6.11404 315.194 5.92845 314.648 5.81244C314.115 5.68482 313.593 5.53399 313.047 5.44118C312.78 5.39477 312.502 5.33676 312.235 5.29035C312.096 5.26715 311.968 5.23234 311.829 5.22074L311.411 5.17429C311.133 5.13949 310.866 5.10472 310.588 5.06992L310.379 5.04669H310.17L309.752 5.01192C309.474 4.98872 309.196 4.97713 308.917 4.95393C308.639 4.95393 308.36 4.95393 308.07 4.95393C305.819 4.93072 303.522 5.17436 301.248 5.60362C298.963 6.04448 296.689 6.67093 294.427 7.44824C292.164 8.22555 289.925 9.13048 287.686 10.1282C283.231 12.1353 278.834 14.5137 274.425 17.0428C272.221 18.3074 270.005 19.6068 267.778 20.9177C266.664 21.5674 265.539 22.2287 264.402 22.8784C263.265 23.5165 262.128 24.1663 260.991 24.8159C256.478 27.4031 252.092 30.1643 247.591 32.6702C243.101 35.1762 238.46 37.4269 233.588 38.9003C231.151 39.6312 228.657 40.1417 226.162 40.4201C223.657 40.6753 221.151 40.687 218.703 40.4433C216.231 40.1997 213.83 39.6428 211.556 38.8771C209.282 38.0998 207.101 37.102 205.094 35.8491C204.096 35.2226 203.145 34.5381 202.252 33.784C201.358 33.0299 200.534 32.2062 199.792 31.3128C199.049 30.4311 198.377 29.4798 197.843 28.4704C197.298 27.4611 196.857 26.4169 196.52 25.338C196.207 24.259 196.01 23.1569 195.894 22.0664C195.882 21.7879 195.859 21.5211 195.847 21.2426C195.847 21.1034 195.836 20.9641 195.824 20.8365V20.4305C195.824 20.1637 195.824 19.8852 195.847 19.6184C195.871 19.3515 195.871 19.0847 195.905 18.8062C196.091 16.6599 196.694 14.5833 197.622 12.7038C198.539 10.8244 199.815 9.16529 201.242 7.74989C201.961 7.04219 202.739 6.40413 203.528 5.82405C204.317 5.23237 205.152 4.72184 205.987 4.24617C207.67 3.30644 209.421 2.56393 211.173 1.99545C212.925 1.42697 214.677 1.00933 216.406 0.707684C218.123 0.417642 219.828 0.220392 221.487 0.104375C221.905 0.0811719 222.311 0.0463698 222.728 0.0347681C223.135 0.0347681 223.541 0.0116016 223.947 0C224.353 0 224.759 0 225.153 0C225.548 0 225.954 0.0231665 226.337 0.0347681C227.903 0.104378 229.434 0.255205 230.896 0.475636C232.358 0.707669 233.762 0.997699 235.107 1.33415C236.442 1.6706 237.718 2.07665 238.924 2.49431C240.131 2.92357 241.279 3.37609 242.358 3.85176C244.516 4.79149 246.419 5.80084 248.078 6.76378C251.408 8.70126 253.844 10.4299 255.468 11.6249C256.28 12.2282 256.895 12.6806 257.301 13.0054C257.707 13.3186 257.928 13.4811 257.928 13.4811H257.881Z" fill="black"/>
<path d="M232.543 29.2128C232.543 29.2128 232.74 29.1779 233.123 29.1199C233.309 29.0851 233.552 29.062 233.831 29.0155C234.109 28.9691 234.422 28.9111 234.782 28.8415C236.209 28.5631 238.263 28.0642 240.687 27.1709C243.112 26.2891 245.885 25.0014 248.866 23.3655C251.848 21.7297 255.039 19.7458 258.438 17.6923C260.143 16.6714 261.814 15.6736 263.473 14.7571C264.297 14.293 265.12 13.8522 265.933 13.4345C266.721 13.0169 267.499 12.6108 268.264 12.2163C271.281 10.6037 273.984 9.07227 276.328 7.8773C276.618 7.72648 276.908 7.58726 277.186 7.43643C277.465 7.29721 277.743 7.16964 278.01 7.04202C278.544 6.78678 279.042 6.54315 279.518 6.32272C280.481 5.90506 281.293 5.53377 281.978 5.26693C283.358 4.74486 284.112 4.47803 284.112 4.47803C284.112 4.47803 283.416 4.88412 282.14 5.60342C281.514 5.97468 280.759 6.45035 279.878 6.98402C279.448 7.26246 278.984 7.56407 278.497 7.88892C278.254 8.05134 277.998 8.21374 277.743 8.37616C277.488 8.55019 277.221 8.72424 276.954 8.90987C275.875 9.64077 274.692 10.4297 273.427 11.2766C272.789 11.7058 272.128 12.1467 271.443 12.5876C270.747 13.0284 270.04 13.4925 269.309 13.945C268.566 14.3975 267.789 14.8615 267.023 15.314C266.257 15.7665 265.468 16.2305 264.668 16.7061C263.067 17.6807 261.42 18.6785 259.726 19.711C256.326 21.7645 252.997 23.6672 249.829 25.1406C246.662 26.6256 243.657 27.6929 241.07 28.3078C238.483 28.9343 236.337 29.1547 234.852 29.2011C234.481 29.2011 234.156 29.2128 233.866 29.2244C233.587 29.2244 233.344 29.2244 233.146 29.2244C232.763 29.2244 232.555 29.2128 232.555 29.2128H232.543Z" fill="black"/>
<path d="M238.564 37.4852C238.564 37.4852 238.762 37.4504 239.145 37.3924C239.33 37.3576 239.574 37.3344 239.852 37.288C240.131 37.2416 240.444 37.1836 240.804 37.114C242.231 36.8355 244.284 36.3366 246.697 35.4433C249.122 34.5616 251.895 33.2738 254.876 31.638C257.858 30.0022 261.048 28.0183 264.448 25.9648C266.153 24.9438 267.824 23.9461 269.483 23.0295C270.307 22.5655 271.13 22.1246 271.942 21.7069C272.731 21.2893 273.509 20.8832 274.274 20.4888C277.291 18.8761 279.994 17.3447 282.338 16.1498C282.628 15.9989 282.918 15.8597 283.196 15.7089C283.474 15.5697 283.753 15.4421 284.02 15.3145C284.553 15.0592 285.052 14.8156 285.528 14.5952C286.491 14.1775 287.303 13.8062 287.988 13.5394C289.368 13.0173 290.122 12.7505 290.122 12.7505C290.122 12.7505 289.426 13.1565 288.15 13.8758C287.523 14.2471 286.769 14.7227 285.888 15.2564C285.458 15.5349 284.994 15.8365 284.507 16.1614C284.263 16.3238 284.008 16.4862 283.753 16.6486C283.498 16.8227 283.231 16.9967 282.964 17.1823C281.885 17.9132 280.702 18.7021 279.437 19.549C278.799 19.9783 278.138 20.4192 277.453 20.86C276.757 21.3009 276.049 21.7649 275.319 22.2174C274.576 22.6699 273.799 23.134 273.033 23.5865C272.267 24.0389 271.478 24.5029 270.678 24.9786C269.077 25.9531 267.429 26.9509 265.736 27.9835C262.336 30.037 259.007 31.9396 255.839 33.413C252.672 34.898 249.667 35.9654 247.08 36.5803C244.493 37.2067 242.347 37.4272 240.862 37.4736C240.49 37.4736 240.165 37.4852 239.875 37.4968C239.597 37.4968 239.353 37.4968 239.156 37.4968C238.773 37.4968 238.564 37.4852 238.564 37.4852Z" fill="black"/>
<path d="M0 18.9918C0 18.9918 2.80753 33.9231 21.9735 18.9106C21.9735 18.9106 3.90976 3.74723 0 18.9918ZM4.40861 18.9106C4.40861 18.5161 4.73346 18.1913 5.13952 18.1913C5.54558 18.1913 5.87043 18.5045 5.87043 18.899C5.87043 19.2934 5.54558 19.6183 5.13952 19.6183C4.73346 19.6183 4.40861 19.305 4.40861 18.9106ZM17.2284 18.8758C17.2284 18.8758 15.9986 23.3656 7.20458 18.9106C7.20458 18.9106 15.407 14.3048 17.2284 18.8758Z" fill="black"/>
<path d="M23.3997 16.8569C24.5135 16.8569 25.4184 17.7387 25.43 18.8292C25.43 19.9198 24.5366 20.8131 23.4229 20.8131C22.3091 20.8131 21.4042 19.9314 21.3926 18.8408C21.3926 17.7503 22.286 16.8569 23.3997 16.8569Z" fill="black"/>
<path d="M38.9133 16.7993C40.0271 16.7993 40.932 17.6811 40.9436 18.7716C40.9436 19.8622 40.0503 20.7555 38.9365 20.7555C37.8228 20.7555 36.9179 19.8738 36.9062 18.7832C36.9062 17.6927 37.7996 16.7993 38.9133 16.7993Z" fill="black"/>
<path d="M31.1619 13.5625C31.1619 13.5625 24.2473 18.8064 24.3169 18.8296C24.2589 18.8528 31.2083 24.0388 31.2083 24.0388C32.0088 22.3217 38.0997 18.7832 38.0881 18.7716C38.1925 18.7136 31.9857 15.2679 31.1735 13.5625H31.1619Z" fill="black"/>
<path d="M211.359 18.8528C223.843 28.633 225.664 18.9108 225.664 18.9108C223.123 8.97979 211.359 18.8528 211.359 18.8528ZM222.323 19.3284C222.056 19.3284 221.847 19.1197 221.847 18.8644C221.847 18.6092 222.068 18.4003 222.323 18.4003C222.59 18.4003 222.799 18.6092 222.799 18.8644C222.799 19.1197 222.578 19.3284 222.323 19.3284ZM220.989 18.8644C215.258 21.7648 214.457 18.8412 214.457 18.8412C215.652 15.8596 220.989 18.8644 220.989 18.8644Z" fill="black"/>
<path d="M210.432 17.5186C209.701 17.5186 209.109 18.087 209.109 18.8063C209.109 19.514 209.689 20.0942 210.42 20.0942C211.151 20.0942 211.743 19.5256 211.743 18.8063C211.743 18.0986 211.163 17.5186 210.432 17.5186Z" fill="black"/>
<path d="M209.12 18.0757H38.9238V19.4794H209.12V18.0757Z" fill="black"/>
<path d="M502.027 18.8986C521.193 33.9112 524.001 18.9799 524.001 18.9799C520.091 3.72369 502.027 18.8986 502.027 18.8986ZM518.861 19.6179C518.455 19.6179 518.13 19.2931 518.13 18.8986C518.13 18.5042 518.455 18.1794 518.861 18.191C519.267 18.191 519.592 18.5158 519.592 18.9103C519.592 19.3047 519.267 19.6295 518.861 19.6179ZM516.808 18.9103C508.014 23.3653 506.784 18.8755 506.784 18.8755C508.617 14.3044 516.808 18.9103 516.808 18.9103Z" fill="black"/>
<path d="M500.61 16.8569C499.497 16.8569 498.592 17.7387 498.58 18.8292C498.58 19.9198 499.473 20.8131 500.587 20.8131C501.701 20.8131 502.606 19.9314 502.617 18.8408C502.617 17.7503 501.724 16.8569 500.61 16.8569Z" fill="black"/>
<path d="M485.101 16.7993C483.987 16.7993 483.082 17.6811 483.07 18.7716C483.07 19.8622 483.964 20.7555 485.077 20.7555C486.191 20.7555 487.096 19.8738 487.108 18.7832C487.108 17.6927 486.214 16.7993 485.101 16.7993Z" fill="black"/>
<path d="M492.838 13.5625C492.838 13.5625 499.752 18.8064 499.683 18.8296C499.741 18.8528 492.791 24.0388 492.791 24.0388C491.991 22.3217 485.9 18.7832 485.911 18.7716C485.807 18.7136 492.014 15.2679 492.826 13.5625H492.838Z" fill="black"/>
<path d="M298.336 18.9108C298.336 18.9108 300.169 28.633 312.641 18.8528C312.641 18.8528 300.877 8.97979 298.336 18.9108ZM301.202 18.8644C301.202 18.6092 301.41 18.4003 301.677 18.4003C301.944 18.4003 302.153 18.6092 302.153 18.8644C302.153 19.1197 301.944 19.3284 301.677 19.3284C301.41 19.3284 301.202 19.1197 301.202 18.8644ZM309.555 18.8412C309.555 18.8412 308.754 21.7648 303.023 18.8644C303.023 18.8644 308.36 15.8596 309.555 18.8412Z" fill="black"/>
<path d="M313.571 17.5186C314.302 17.5186 314.893 18.087 314.893 18.8063C314.893 19.514 314.313 20.0942 313.582 20.0942C312.851 20.0942 312.26 19.5256 312.26 18.8063C312.26 18.0986 312.84 17.5186 313.571 17.5186Z" fill="black"/>
<path d="M485.089 18.0757H314.893V19.4794H485.089V18.0757Z" fill="black"/>
</svg>
