<svg width="308" height="88" viewBox="0 0 308 88" fill="none" xmlns="http://www.w3.org/2000/svg">
<g clip-path="url(#clip0_550_4815)">
<path d="M43.3946 27.2273C43.2536 27.0981 43.1068 26.9748 42.9599 26.8515C42.7896 26.7105 42.6134 26.5695 42.4372 26.4345C42.3491 26.364 42.2552 26.2994 42.1671 26.2348C41.9497 26.0703 41.7266 25.9176 41.4975 25.7708C41.4799 25.7532 41.4564 25.7414 41.4329 25.7238C41.2684 25.6181 41.0981 25.5124 40.9278 25.4125C40.828 25.3479 40.7222 25.2892 40.6165 25.2304C40.411 25.113 40.2054 25.0014 39.994 24.8957C39.7473 24.7665 39.4947 24.649 39.2422 24.5374C39.0249 24.4375 38.8017 24.3436 38.5785 24.2613C38.3612 24.1732 38.1321 24.091 37.9031 24.0147C37.8913 24.0088 37.8854 24.0088 37.8737 24.0029C37.6564 23.9266 37.4332 23.862 37.21 23.7974C36.7402 23.6623 36.2585 23.5448 35.7711 23.4508C35.5361 23.4097 35.3012 23.3745 35.0663 23.3392C34.896 23.3158 34.7256 23.2923 34.5494 23.2805L34.2146 23.2453C33.7565 23.1983 33.2925 23.1807 32.8227 23.1807C32.4644 23.1807 32.1061 23.1924 31.7479 23.2159C31.5717 23.2277 31.3955 23.2453 31.2193 23.2629C30.9667 23.2864 30.7142 23.3216 30.4675 23.3569C30.4558 23.3569 30.444 23.3569 30.4323 23.3627C30.1915 23.398 29.9506 23.4391 29.7157 23.4861C29.4808 23.5331 29.2459 23.5859 29.0168 23.6447C28.8935 23.674 28.776 23.7093 28.6527 23.7386C28.5058 23.7739 28.359 23.8209 28.218 23.862C25.2227 24.7723 22.5914 26.5461 20.6356 28.8954C19.0968 30.7396 17.9692 32.9479 17.3936 35.3677C17.1117 36.5424 16.9648 37.7758 16.9648 39.0385C16.9648 40.3013 17.1117 41.5346 17.3936 42.7152C17.5522 43.373 17.746 44.019 17.9868 44.6416C18.0573 44.8354 18.1336 45.0234 18.2159 45.2113C18.3274 45.4815 18.4508 45.7458 18.58 46.0101C18.6857 46.2274 18.7973 46.4388 18.9148 46.6503C19.1673 47.1201 19.4434 47.5665 19.7488 48.007C19.8545 48.1656 19.9661 48.3241 20.0836 48.4769C20.3067 48.7823 20.5475 49.0818 20.8001 49.3696C20.9234 49.5164 21.0526 49.6574 21.1819 49.7983C21.3111 49.9393 21.4403 50.0744 21.5754 50.2095C21.7104 50.3504 21.8455 50.4796 21.9865 50.6089H21.9924C22.0922 50.7028 22.1921 50.7968 22.2919 50.8849C22.3917 50.9789 22.4975 51.0728 22.6032 51.1551C22.6913 51.2314 22.7794 51.3078 22.8734 51.3783C22.8969 51.4017 22.9262 51.4194 22.9497 51.4429C23.0378 51.5133 23.1318 51.5838 23.2258 51.6543C23.261 51.6895 23.3021 51.713 23.3373 51.7365C23.5194 51.8775 23.7074 52.0126 23.9012 52.1418C24.0774 52.2651 24.2595 52.3826 24.4415 52.4942C24.7176 52.6704 25.0054 52.8348 25.2931 52.9934C25.4752 53.0932 25.6632 53.1872 25.8511 53.2753C26.0273 53.3693 26.2094 53.4515 26.3914 53.5279C26.4913 53.5749 26.5911 53.616 26.6969 53.663C26.9846 53.7863 27.2724 53.892 27.5661 53.9977C28.083 54.1798 28.6115 54.3384 29.1519 54.4676C29.9213 54.6497 30.7201 54.773 31.5306 54.8376" stroke="white" stroke-width="1.17465" stroke-miterlimit="10"/>
<path d="M58.3659 39.068C58.3659 39.068 58.3542 39.0269 58.3424 39.0093C58.0194 38.099 57.6141 37.2238 57.1325 36.3957C56.9681 36.1138 56.7977 35.8319 56.6157 35.5617C55.441 33.7939 53.9257 32.2844 52.1637 31.1098C49.9906 29.6649 47.4416 28.7428 44.6929 28.5255C44.5696 28.5138 44.4463 28.502 44.317 28.4962C44.0175 28.4727 43.7062 28.4668 43.4008 28.4668C43.0954 28.4668 42.7841 28.4727 42.4846 28.4962C42.3554 28.502 42.232 28.5138 42.1087 28.5255C39.36 28.7428 36.811 29.6649 34.6379 31.1098C32.8759 32.2844 31.3606 33.7939 30.1859 35.5617C30.0039 35.8319 29.8335 36.1138 29.6691 36.3957C29.1875 37.2238 28.7822 38.099 28.4592 39.0093C28.4475 39.0269 28.4416 39.0504 28.4357 39.068C27.8601 40.7126 27.543 42.4804 27.543 44.3246C27.543 46.1688 27.8601 47.9602 28.4475 49.6106C28.4475 49.6223 28.4475 49.6282 28.4592 49.6399C28.8938 50.8675 29.4753 52.0186 30.1859 53.0817C30.5971 53.6984 31.0493 54.2857 31.5368 54.8378C32.4472 55.8656 33.4926 56.776 34.6438 57.5395C36.9108 59.0489 39.5949 59.9887 42.4846 60.159H42.5022C42.8017 60.1766 43.1013 60.1825 43.4008 60.1825C43.7003 60.1825 43.9999 60.1766 44.2994 60.159H44.317C47.2067 59.9887 49.8908 59.0489 52.1579 57.5395C53.309 56.776 54.3545 55.8656 55.2648 54.8378C55.7523 54.2857 56.2045 53.6984 56.6157 53.0817C57.3263 52.0186 57.9078 50.8675 58.3424 49.6399C58.3483 49.6282 58.3483 49.6223 58.3542 49.6106C58.9415 47.9602 59.2586 46.1806 59.2586 44.3246C59.2586 42.4687 58.9415 40.7126 58.3659 39.068ZM43.4008 54.8965C43.4008 49.0585 38.667 44.3246 32.8289 44.3246C38.667 44.3246 43.4008 39.5908 43.4008 33.7527C43.4008 39.5908 48.1347 44.3246 53.9727 44.3246C48.1347 44.3246 43.4008 49.0585 43.4008 54.8965Z" fill="white" stroke="white" stroke-width="1.17465" stroke-miterlimit="10"/>
<path d="M69.8264 39.0385C69.8264 40.3071 69.6796 41.5346 69.3977 42.7152C68.9983 44.3891 68.3405 45.9572 67.4536 47.3786C67.3068 47.6135 67.1541 47.8484 66.9955 48.0775C66.9192 48.1891 66.8428 48.3007 66.7547 48.4122C66.6784 48.5238 66.5903 48.6354 66.5022 48.747C66.3553 48.935 66.2085 49.117 66.0558 49.2991C65.6623 49.7631 65.2453 50.1977 64.8048 50.6089H64.7989C64.6991 50.7087 64.6051 50.7968 64.4994 50.8849C64.3995 50.9789 64.2938 51.0728 64.1881 51.1551C64.1 51.2314 64.0119 51.3078 63.9179 51.3783C63.8944 51.4017 63.8651 51.4194 63.8416 51.4429C63.7535 51.5133 63.6595 51.5838 63.5655 51.6543C63.5303 51.6895 63.4892 51.713 63.4539 51.7365C63.2719 51.8775 63.0839 52.0126 62.8901 52.1418C62.7139 52.2651 62.5318 52.3826 62.3498 52.4942C62.0737 52.6704 61.7859 52.8348 61.4981 52.9934C61.3161 53.0874 61.1281 53.1872 60.9402 53.2753C60.7816 53.3575 60.623 53.4339 60.4586 53.5044C60.3352 53.5572 60.2178 53.6101 60.0944 53.663C60.0592 53.6747 60.0239 53.6923 59.9946 53.7041C59.742 53.8098 59.4836 53.9038 59.2252 53.9977C58.7083 54.1798 58.1797 54.3384 57.6394 54.4676C56.87 54.6497 56.0712 54.773 55.2607 54.8376C55.7482 54.2855 56.2004 53.6982 56.6116 53.0815C57.3222 52.0184 57.9037 50.8673 58.3383 49.6398C58.3442 49.628 58.3442 49.6221 58.3501 49.6104C58.9374 47.96 59.2545 46.1804 59.2545 44.3245C59.2545 42.4685 58.9374 40.7124 58.3618 39.0679C58.3559 39.0502 58.3501 39.0268 58.3383 39.0091C58.0153 38.0988 57.61 37.2237 57.1284 36.3955C56.964 36.1136 56.7936 35.8317 56.6116 35.5615C55.4369 33.7937 53.9216 32.2842 52.1596 31.1096C49.9865 29.6648 47.4375 28.7427 44.6888 28.5253C44.5655 28.5136 44.4421 28.5018 44.3129 28.496C44.0134 28.4725 43.7021 28.4666 43.3967 28.4666C43.0913 28.4666 42.78 28.4725 42.4805 28.496C42.5568 28.3022 42.6214 28.0966 42.686 27.8969C42.9151 27.6678 43.1559 27.4447 43.3967 27.2273C43.5377 27.0981 43.6845 26.9748 43.8313 26.8515C46.58 24.555 50.1098 23.1807 53.9686 23.1807C55.4134 23.1807 56.8113 23.3745 58.1386 23.7386C58.2854 23.7739 58.4323 23.8209 58.5732 23.862C61.5686 24.7723 64.1998 26.5461 66.1556 28.8954C67.6944 30.7396 68.8221 32.9479 69.3977 35.3677C69.6796 36.5424 69.8264 37.7758 69.8264 39.0385Z" stroke="white" stroke-width="1.17465" stroke-miterlimit="10"/>
<path d="M42.6869 27.8965C42.4872 28.102 42.2934 28.3076 42.1055 28.5249" stroke="white" stroke-width="1.17465" stroke-miterlimit="10"/>
<path d="M59.2293 53.9971C59.2528 54.2966 59.2586 54.5961 59.2586 54.8957C59.2586 55.3009 59.241 55.7003 59.2117 56.0938C59.0296 58.5371 58.2954 60.8218 57.1325 62.8305C55.7406 65.2326 53.7319 67.2413 51.3297 68.6274C49.2388 69.8432 46.8543 70.5891 44.2994 70.7241C43.9999 70.7476 43.7003 70.7535 43.4008 70.7535C43.1013 70.7535 42.8017 70.7476 42.5022 70.7241C39.9473 70.5891 37.5628 69.8432 35.4719 68.6274C34.4206 68.0224 33.4456 67.2942 32.5646 66.4719C32.4413 66.3486 32.3179 66.2311 32.1946 66.1078C31.9421 65.8611 31.6954 65.5968 31.4663 65.3325C31.3547 65.2091 31.249 65.0858 31.1492 64.9625C30.7028 64.4221 30.2975 63.8524 29.9275 63.2592C29.8394 63.1183 29.7513 62.9773 29.6691 62.8305C29.5223 62.5779 29.3813 62.3254 29.2521 62.0669C29.2521 62.0552 29.2521 62.0434 29.2345 62.0376C29.1229 61.8085 29.0113 61.5736 28.9056 61.3387C28.8938 61.3034 28.8762 61.2623 28.8586 61.2271C28.747 60.9745 28.6413 60.7161 28.5473 60.4577C28.4651 60.2404 28.3828 60.0172 28.3182 59.7881C28.1597 59.3183 28.0305 58.8308 27.9189 58.3315C27.8895 58.2082 27.866 58.079 27.8366 57.9498C27.7485 57.4917 27.6781 57.0218 27.6311 56.5519C27.6134 56.3992 27.6017 56.2465 27.59 56.0938C27.5782 55.947 27.5665 55.8002 27.5665 55.6533C27.5488 55.4008 27.543 55.1482 27.543 54.8957C27.543 54.5961 27.5488 54.2966 27.5723 53.9971" stroke="white" stroke-width="1.17465" stroke-miterlimit="10"/>
<path d="M28.6573 23.7386C28.5104 23.7739 28.3636 23.8208 28.2227 23.862C28.2931 23.6329 28.3636 23.4097 28.4517 23.1865C28.5104 23.3745 28.5809 23.5565 28.6573 23.7386Z" stroke="white" stroke-width="1.17465" stroke-miterlimit="10"/>
<path d="M58.5713 23.862C58.4304 23.8208 58.2836 23.7739 58.1367 23.7386C58.2131 23.5565 58.2835 23.3745 58.3423 23.1865C58.4304 23.4097 58.5009 23.6329 58.5713 23.862Z" stroke="white" stroke-width="1.17465" stroke-miterlimit="10"/>
<path d="M28.4518 23.1801C28.5105 23.3739 28.581 23.556 28.6574 23.7381C28.5105 23.7733 28.3637 23.8203 28.2227 23.8614C25.2274 24.7718 22.5961 26.5455 20.6403 28.8948C19.1015 30.739 17.9739 32.9474 17.3983 35.3671C15.3779 33.6815 13.7804 31.5084 12.7995 29.024C12.0771 27.2209 11.6836 25.2475 11.6836 23.1801C11.6836 14.4231 18.7844 7.32227 27.5414 7.32227C28.8042 7.32227 30.0376 7.4691 31.2122 7.75689C34.6011 8.55566 37.5671 10.4468 39.7285 13.037C34.4719 14.2821 30.2255 18.1467 28.4518 23.1801Z" stroke="white" stroke-width="1.17465" stroke-miterlimit="10"/>
<path d="M20.638 28.8955C19.0992 30.7397 17.9715 32.9481 17.396 35.3679C17.114 36.5425 16.9672 37.7759 16.9672 39.0387C16.9672 40.3014 17.114 41.5348 17.396 42.7153C13.9014 45.6167 11.6813 49.9982 11.6813 54.8965C11.6813 56.4999 11.9162 58.0446 12.3626 59.5011C5.84911 57.5277 1.10938 51.4782 1.10938 44.3246C1.10938 37.171 6.06054 30.8513 12.7972 29.0247" stroke="white" stroke-width="1.17465" stroke-miterlimit="10"/>
<path d="M85.685 44.3243C85.685 51.4779 80.9453 57.5274 74.4318 59.5008C74.8782 58.0443 75.1131 56.4996 75.1131 54.8962C75.1131 49.9979 72.893 45.6164 69.3984 42.715C69.6804 41.5345 69.8272 40.307 69.8272 39.0383C69.8272 37.7697 69.6804 36.5422 69.3984 35.3676C71.4188 33.6819 73.0164 31.5088 73.9972 29.0244C80.7339 30.851 85.685 37.0121 85.685 44.3243Z" stroke="white" stroke-width="1.17465" stroke-miterlimit="10"/>
<path d="M75.1152 23.1801C75.1152 25.2475 74.7217 27.2209 73.9993 29.024C73.0184 31.5084 71.4209 33.6815 69.4005 35.3671C68.8249 32.9474 67.6972 30.739 66.1585 28.8948C64.2027 26.5455 61.5714 24.7718 58.5761 23.8614C58.5056 23.6323 58.4351 23.4092 58.347 23.186C56.5733 18.1467 52.3269 14.2821 47.0703 13.037C49.2317 10.4468 52.1977 8.55566 55.5866 7.75689C56.7612 7.4691 57.9946 7.32227 59.2574 7.32227C68.0144 7.32227 75.1152 14.4231 75.1152 23.1801Z" stroke="white" stroke-width="1.17465" stroke-miterlimit="10"/>
<path d="M58.5713 23.862C58.4304 23.8208 58.2836 23.7739 58.1367 23.7386C58.2131 23.5565 58.2835 23.3745 58.3423 23.1865C58.4304 23.4097 58.5009 23.6329 58.5713 23.862Z" stroke="white" stroke-width="1.17465" stroke-miterlimit="10"/>
<path d="M75.1139 65.4686C75.1139 74.2256 68.0132 81.3264 59.2561 81.3264C57.9933 81.3264 56.76 81.1796 55.5853 80.8918C50.317 79.6525 46.0647 75.7703 44.2969 70.7251C46.8517 70.5901 49.2363 69.8441 51.3272 68.6284C53.6589 69.9851 56.3665 70.7545 59.2561 70.7545C66.1572 70.7545 72.0305 66.3437 74.2095 60.1826C74.7968 61.833 75.1139 63.6126 75.1139 65.4686Z" stroke="white" stroke-width="1.17465" stroke-miterlimit="10"/>
<path d="M57.1325 62.8311C55.7406 65.2332 53.7319 67.2419 51.3297 68.628C49.2388 69.8437 46.8543 70.5897 44.2994 70.7247C43.9999 70.7482 43.7003 70.7541 43.4008 70.7541C43.1013 70.7541 42.8017 70.7482 42.5022 70.7247C39.9473 70.5897 37.5628 69.8437 35.4719 68.628C33.1402 69.9847 30.4326 70.7541 27.543 70.7541" stroke="white" stroke-width="1.17465" stroke-miterlimit="10"/>
<path d="M31.2109 80.8916C34.1182 84.3862 38.4997 86.6122 43.398 86.6122C48.2963 86.6122 52.6778 84.3862 55.585 80.8916" stroke="white" stroke-width="1.17465" stroke-miterlimit="10"/>
<path d="M47.0675 13.0381C45.8928 12.7562 44.6595 12.6094 43.3967 12.6094C42.1339 12.6094 40.9006 12.7562 39.7259 13.0381C34.4693 14.2833 30.2229 18.1479 28.4492 23.1813" stroke="white" stroke-width="1.17465" stroke-miterlimit="10"/>
<path d="M31.2109 7.75768C34.1182 4.26308 38.4997 2.03711 43.398 2.03711C48.2963 2.03711 52.6778 4.26308 55.585 7.75768" stroke="white" stroke-width="1.17465" stroke-miterlimit="10"/>
<path d="M42.5007 70.7251C40.7328 75.7703 36.4806 79.6525 31.2122 80.8918C30.0376 81.1796 28.8042 81.3264 27.5414 81.3264C18.7844 81.3264 11.6836 74.2256 11.6836 65.4686C11.6836 63.6126 12.0008 61.833 12.5881 60.1826C14.7671 66.3437 20.6403 70.7545 27.5414 70.7545C30.4311 70.7545 33.1387 69.9851 35.4704 68.6284C37.5612 69.8441 39.9458 70.5901 42.5007 70.7251Z" stroke="white" stroke-width="1.17465" stroke-miterlimit="10"/>
<path d="M53.968 44.3248C48.13 44.3248 43.3961 49.0587 43.3961 54.8967C43.3961 49.0587 38.6623 44.3248 32.8242 44.3248C38.6623 44.3248 43.3961 39.591 43.3961 33.7529C43.3961 39.591 48.13 44.3248 53.968 44.3248Z" stroke="white" stroke-width="1.17465" stroke-miterlimit="10"/>
<path d="M111.363 50.7065C113.617 50.667 115.811 50.4297 117.947 49.9948C120.082 49.5202 121.545 48.9073 122.336 48.156V51.7148H96.1193V51.1217C97.0683 51.0426 97.7405 50.8647 98.1359 50.5879C98.5709 50.2715 98.8279 49.8959 98.907 49.4609C99.0256 49.026 99.0849 48.4328 99.0849 47.6815V14.2287C99.0849 13.4774 99.0256 12.8842 98.907 12.4493C98.8279 12.0143 98.5709 11.6584 98.1359 11.3816C97.7405 11.0653 97.0683 10.8676 96.1193 10.7885V10.1953H105.609V10.7885C104.66 10.8676 103.968 11.0653 103.533 11.3816C103.138 11.6584 102.881 12.0143 102.762 12.4493C102.683 12.8842 102.644 13.4774 102.644 14.2287V50.5286L111.363 50.7065ZM137.812 51.7148C135.202 51.7148 132.79 51.0229 130.575 49.6389C128.401 48.2549 126.68 46.3964 125.415 44.0634C124.15 41.6908 123.517 39.1008 123.517 36.2933C123.517 33.5253 124.15 30.9749 125.415 28.6419C126.72 26.2693 128.46 24.3911 130.635 23.0071C132.809 21.6231 135.202 20.9311 137.812 20.9311C140.421 20.9311 142.814 21.6231 144.989 23.0071C147.203 24.3911 148.943 26.2693 150.208 28.6419C151.513 30.9749 152.165 33.5253 152.165 36.2933C152.165 39.1008 151.513 41.6908 150.208 44.0634C148.943 46.3964 147.203 48.2549 144.989 49.6389C142.814 51.0229 140.421 51.7148 137.812 51.7148ZM137.812 50.7658C139.749 50.7658 141.529 50.1331 143.15 48.8678C144.811 47.6024 146.115 45.8626 147.065 43.6482C148.053 41.4338 148.547 38.9822 148.547 36.2933C148.547 33.8021 148.053 31.4494 147.065 29.235C146.115 27.0206 144.811 25.2412 143.15 23.8968C141.529 22.5523 139.749 21.8801 137.812 21.8801C135.874 21.8801 134.075 22.5523 132.414 23.8968C130.793 25.2412 129.488 27.0206 128.499 29.235C127.55 31.4494 127.076 33.8021 127.076 36.2933C127.076 38.9822 127.55 41.4338 128.499 43.6482C129.488 45.8626 130.793 47.6024 132.414 48.8678C134.075 50.1331 135.874 50.7658 137.812 50.7658ZM181.654 22.6512C180.507 22.7303 179.618 22.9873 178.985 23.4223C178.392 23.8177 177.937 24.3911 177.621 25.1424C176.237 28.8989 175.13 32.003 174.299 34.4546C173.666 36.3131 173.093 37.6575 172.579 38.4879C172.105 39.3183 171.511 39.6346 170.8 39.4369C170.207 39.2788 169.91 38.7054 169.91 37.7168C169.91 36.8074 170.167 35.3838 170.681 33.4463C170.76 33.1299 170.8 32.9124 170.8 32.7938C170.8 32.4775 170.721 32.26 170.562 32.1414C170.444 31.9832 170.286 31.9041 170.088 31.9041C169.495 31.9041 169 32.695 168.605 34.2767C168.289 35.5816 167.992 38.0727 167.715 41.7502C167.478 45.4276 167.359 48.7492 167.359 51.7148H163.682L156.802 26.0914C156.525 24.9842 156.129 24.1736 155.615 23.6595C155.101 23.1059 154.152 22.7698 152.768 22.6512V22.0581H162.436V22.6512C161.567 22.6907 160.954 22.8687 160.598 23.185C160.242 23.4618 160.064 23.8572 160.064 24.3713C160.064 24.5295 160.103 24.8458 160.183 25.3203L166.233 47.9781C166.509 42.0863 167.122 37.2028 168.071 33.3276C168.348 32.2204 168.645 31.4296 168.961 30.9551C169.317 30.4806 169.732 30.2433 170.207 30.2433C170.602 30.2433 170.938 30.4213 171.215 30.7772C171.492 31.0935 171.63 31.5482 171.63 32.1414C171.63 32.6554 171.551 33.1497 171.393 33.6242C170.918 35.2059 170.681 36.3329 170.681 37.0051C170.681 37.5587 170.8 37.8355 171.037 37.8355C171.591 37.9146 172.045 37.5982 172.401 36.8865C172.757 36.1747 173.093 35.1664 173.409 33.8615C174.003 31.4889 174.477 28.5232 174.833 24.9644C174.833 24.2922 174.616 23.7584 174.181 23.363C173.785 22.9675 173.054 22.7303 171.986 22.6512V22.0581H181.654V22.6512ZM204.359 32.082C203.845 33.6242 202.995 34.7907 201.809 35.5816C200.622 36.3724 199.337 36.9062 197.953 37.183C196.569 37.4598 194.81 37.6971 192.674 37.8948C190.183 38.132 188.265 38.4484 186.921 38.8438C185.616 39.1997 184.707 39.9312 184.192 41.0384C184.548 43.6877 185.537 45.8428 187.158 47.5036C188.779 49.1248 190.618 50.0145 192.674 50.1727C194.493 50.2913 196.253 50.0343 197.953 49.4016C199.654 48.7689 201.097 47.6815 202.283 46.1394L202.995 46.4359C201.69 48.0967 200.227 49.4016 198.606 50.3506C197.024 51.2601 195.166 51.7148 193.03 51.7148C190.658 51.7148 188.522 51.2008 186.624 50.1727C184.726 49.1446 183.224 47.6815 182.117 45.7835C181.009 43.8459 180.456 41.5525 180.456 38.9031C180.456 37.44 180.673 35.7397 181.108 33.8021C182.018 29.9665 183.777 26.8822 186.387 24.5492C189.036 22.1767 192.061 20.9904 195.462 20.9904C196.292 20.9904 197.083 21.0497 197.835 21.1684C200.049 21.5638 201.789 22.4535 203.054 23.8375C204.32 25.2214 204.952 26.902 204.952 28.8791C204.952 29.7491 204.755 30.8167 204.359 32.082ZM184.074 39.7928C184.627 38.9229 185.418 38.3297 186.446 38.0134C187.475 37.6575 188.898 37.3412 190.717 37.0644C192.417 36.8271 193.841 36.5503 194.988 36.234C196.174 35.9177 197.281 35.3641 198.309 34.5732C199.377 33.7428 200.207 32.5763 200.8 31.0737C201.235 29.5316 201.453 28.1871 201.453 27.0404C201.453 23.6793 199.733 21.9987 196.292 21.9987C194.592 21.9987 192.931 22.5523 191.31 23.6595C189.728 24.7667 188.344 26.2693 187.158 28.1674C186.011 30.0654 185.161 32.1414 184.608 34.3953C184.133 36.3724 183.955 38.1716 184.074 39.7928ZM213.22 47.6815C213.22 48.4328 213.259 49.026 213.338 49.4609C213.457 49.8959 213.714 50.2715 214.109 50.5879C214.544 50.8647 215.236 51.0426 216.185 51.1217V51.7148H206.695V51.1217C207.644 51.0426 208.316 50.8647 208.712 50.5879C209.147 50.2715 209.404 49.8959 209.483 49.4609C209.601 49.026 209.661 48.4328 209.661 47.6815V14.8218C209.661 13.7937 209.601 13.1215 209.483 12.8051C209.364 12.4888 209.008 12.3306 208.415 12.3306C207.941 12.3306 207.367 12.4097 206.695 12.5679V11.9747L213.22 9.60221V47.6815ZM245.083 47.6815C245.083 48.4328 245.122 49.026 245.201 49.4609C245.32 49.8959 245.577 50.2715 245.972 50.5879C246.407 50.8647 247.099 51.0426 248.048 51.1217V51.7148H241.524V42.7585C238.598 47.8595 234.999 50.8449 230.729 51.7148C229.977 51.873 229.107 51.9521 228.119 51.9521C225.549 51.9521 223.314 51.3194 221.416 50.0541C219.518 48.7492 218.569 47.0686 218.569 45.0124C218.569 43.5493 219.281 42.1456 220.705 40.8011C222.168 39.4172 224.263 37.8157 226.992 35.9967C229.246 34.4151 230.907 33.1497 231.974 32.2007C233.081 31.2517 233.635 30.3224 233.635 29.4129C233.635 29.0175 233.477 28.7012 233.16 28.4639C232.844 28.2267 232.429 28.108 231.915 28.108C231.005 28.108 230.037 28.4244 229.009 29.0571C227.031 30.2829 225.311 30.8958 223.848 30.8958C222.939 30.8958 222.227 30.6783 221.713 30.2433C221.238 29.7688 221.001 29.1164 221.001 28.286C221.001 27.0997 221.555 25.9728 222.662 24.9051C223.809 23.7979 225.232 22.8884 226.933 22.1767C228.633 21.4649 230.294 21.0497 231.915 20.9311C232.35 20.8916 232.983 20.8718 233.813 20.8718C237.49 20.8718 240.278 21.9197 242.176 24.0154C244.114 26.1112 245.083 29.6502 245.083 34.6325V47.6815ZM230.729 50.9438C232.627 50.5879 234.406 49.6586 236.067 48.156C237.728 46.6139 239.052 44.8938 240.041 42.9957C241.029 41.0977 241.524 39.4369 241.524 38.0134V33.3276C241.524 28.9384 240.891 25.9134 239.626 24.2527C238.4 22.5919 236.502 21.7615 233.932 21.7615C233.536 21.7615 232.864 21.801 231.915 21.8801C230.729 21.9987 229.542 22.3744 228.356 23.0071C227.209 23.6002 226.26 24.3713 225.509 25.3203C224.797 26.2298 224.441 27.159 224.441 28.108C224.441 28.5035 224.58 28.8791 224.857 29.235C225.133 29.5513 225.509 29.7095 225.984 29.7095C226.735 29.7095 227.684 29.2745 228.831 28.4046C230.254 27.2579 231.737 26.6845 233.279 26.6845C234.07 26.6845 234.703 26.8822 235.177 27.2777C235.691 27.6335 235.948 28.1871 235.948 28.9384C235.948 30.0852 235.454 31.0935 234.465 31.9634C233.477 32.8334 231.954 33.9208 229.898 35.2257C228.198 36.2538 226.814 37.1632 225.746 37.9541C224.718 38.7449 223.848 39.694 223.136 40.8011C222.425 41.9083 222.089 43.1341 222.128 44.4786C222.207 46.4162 222.86 48.0176 224.086 49.283C225.311 50.5088 226.913 51.1217 228.89 51.1217C229.483 51.1217 230.096 51.0624 230.729 50.9438ZM263.002 51.7148C260.629 51.7148 258.494 51.2206 256.596 50.232C254.698 49.2039 253.195 47.7211 252.088 45.7835C250.981 43.8459 250.427 41.5525 250.427 38.9031C250.427 37.44 250.645 35.7397 251.08 33.8021C251.752 31.0737 252.918 28.7209 254.579 26.7438C256.24 24.7667 258.217 23.3036 260.511 22.3546C262.844 21.3661 265.275 20.9706 267.806 21.1684C270.455 21.3265 272.531 22.2558 274.034 23.9561C275.537 25.6169 276.288 27.6533 276.288 30.0654C276.288 30.6981 276.229 31.3703 276.11 32.082H272.551C272.868 31.0935 273.026 29.9863 273.026 28.7605C273.026 26.7834 272.512 25.1819 271.484 23.9561C270.455 22.7303 269.012 22.1174 267.154 22.1174C265.295 22.1174 263.496 22.6512 261.756 23.7188C260.056 24.7469 258.573 26.1902 257.308 28.0487C256.042 29.9072 255.133 32.0227 254.579 34.3953C254.223 35.977 254.045 37.4796 254.045 38.9031C254.045 41.0779 254.441 42.9957 255.232 44.6565C256.022 46.3173 257.07 47.6222 258.375 48.5712C259.72 49.5202 261.143 50.0541 262.646 50.1727C264.465 50.2913 266.224 50.0343 267.925 49.4016C269.625 48.7689 271.068 47.6815 272.255 46.1394L272.966 46.4359C271.661 48.0967 270.198 49.4016 268.577 50.3506C266.995 51.2601 265.137 51.7148 263.002 51.7148ZM303.756 32.082C303.242 33.6242 302.391 34.7907 301.205 35.5816C300.019 36.3724 298.734 36.9062 297.35 37.183C295.966 37.4598 294.206 37.6971 292.071 37.8948C289.58 38.132 287.662 38.4484 286.317 38.8438C285.013 39.1997 284.103 39.9312 283.589 41.0384C283.945 43.6877 284.934 45.8428 286.555 47.5036C288.176 49.1248 290.015 50.0145 292.071 50.1727C293.89 50.2913 295.649 50.0343 297.35 49.4016C299.05 48.7689 300.493 47.6815 301.68 46.1394L302.391 46.4359C301.087 48.0967 299.624 49.4016 298.002 50.3506C296.421 51.2601 294.562 51.7148 292.427 51.7148C290.054 51.7148 287.919 51.2008 286.021 50.1727C284.123 49.1446 282.62 47.6815 281.513 45.7835C280.406 43.8459 279.852 41.5525 279.852 38.9031C279.852 37.44 280.07 35.7397 280.505 33.8021C281.414 29.9665 283.174 26.8822 285.784 24.5492C288.433 22.1767 291.458 20.9904 294.859 20.9904C295.689 20.9904 296.48 21.0497 297.231 21.1684C299.446 21.5638 301.185 22.4535 302.451 23.8375C303.716 25.2214 304.349 26.902 304.349 28.8791C304.349 29.7491 304.151 30.8167 303.756 32.082ZM283.47 39.7928C284.024 38.9229 284.815 38.3297 285.843 38.0134C286.871 37.6575 288.295 37.3412 290.114 37.0644C291.814 36.8271 293.237 36.5503 294.384 36.234C295.57 35.9177 296.678 35.3641 297.706 34.5732C298.773 33.7428 299.604 32.5763 300.197 31.0737C300.632 29.5316 300.849 28.1871 300.849 27.0404C300.849 23.6793 299.129 21.9987 295.689 21.9987C293.989 21.9987 292.328 22.5523 290.707 23.6595C289.125 24.7667 287.741 26.2693 286.555 28.1674C285.408 30.0654 284.558 32.1414 284.004 34.3953C283.53 36.3724 283.352 38.1716 283.47 39.7928Z" fill="white"/>
<path d="M102.28 77.4742C103.102 77.4598 103.902 77.3733 104.68 77.2147C105.459 77.0417 105.992 76.8183 106.28 76.5444V77.8418H96.7229V77.6256C97.0689 77.5967 97.314 77.5319 97.4581 77.431C97.6167 77.3156 97.7104 77.1787 97.7392 77.0201C97.7825 76.8615 97.8041 76.6453 97.8041 76.3714V64.1759C97.8041 63.902 97.7825 63.6857 97.7392 63.5272C97.7104 63.3686 97.6167 63.2389 97.4581 63.1379C97.314 63.0226 97.0689 62.9505 96.7229 62.9217V62.7055H100.183V62.9217C99.8367 62.9505 99.5844 63.0226 99.4258 63.1379C99.2817 63.2389 99.188 63.3686 99.1447 63.5272C99.1159 63.6857 99.1015 63.902 99.1015 64.1759V77.4093L102.28 77.4742ZM105.897 62.7055C106.156 62.7055 106.351 62.7703 106.481 62.9001C106.625 63.0298 106.697 63.2028 106.697 63.419C106.697 63.4623 106.683 63.556 106.654 63.7002C106.466 64.3777 106.135 64.9615 105.659 65.4516C105.198 65.9418 104.6 66.3886 103.864 66.7923L103.691 66.4679C104.124 66.2373 104.463 65.9922 104.708 65.7327C104.953 65.4733 105.126 65.1345 105.227 64.7164C105.01 64.702 104.845 64.63 104.729 64.5002C104.614 64.3561 104.556 64.1903 104.556 64.0029C104.556 63.6569 104.679 63.3542 104.924 63.0947C105.183 62.8352 105.508 62.7055 105.897 62.7055ZM117.665 76.3714C117.665 76.6453 117.679 76.8615 117.708 77.0201C117.751 77.1787 117.845 77.3156 117.989 77.431C118.148 77.5319 118.4 77.5967 118.746 77.6256V77.8418H116.367V74.5767C115.301 76.4363 113.989 77.5247 112.432 77.8418C112.158 77.8995 111.841 77.9283 111.48 77.9283C110.543 77.9283 109.729 77.6976 109.037 77.2363C108.345 76.7606 107.999 76.148 107.999 75.3984C107.999 74.865 108.259 74.3532 108.778 73.8631C109.311 73.3586 110.075 72.7747 111.07 72.1116C111.891 71.535 112.497 71.0737 112.886 70.7277C113.29 70.3818 113.491 70.043 113.491 69.7114C113.491 69.5673 113.434 69.452 113.318 69.3655C113.203 69.279 113.052 69.2357 112.864 69.2357C112.533 69.2357 112.18 69.351 111.805 69.5817C111.084 70.0286 110.457 70.252 109.924 70.252C109.592 70.252 109.333 70.1727 109.145 70.0142C108.972 69.8412 108.886 69.6033 108.886 69.3006C108.886 68.8681 109.088 68.4573 109.491 68.0681C109.909 67.6644 110.428 67.3329 111.048 67.0734C111.668 66.8139 112.273 66.6625 112.864 66.6193C113.023 66.6049 113.254 66.5977 113.556 66.5977C114.897 66.5977 115.913 66.9797 116.605 67.7437C117.312 68.5077 117.665 69.7979 117.665 71.6143V76.3714ZM112.432 77.5607C113.124 77.431 113.773 77.0922 114.378 76.5444C114.983 75.9822 115.466 75.3551 115.827 74.6632C116.187 73.9712 116.367 73.3658 116.367 72.8468V71.1386C116.367 69.5384 116.137 68.4357 115.675 67.8302C115.229 67.2248 114.537 66.922 113.6 66.922C113.455 66.922 113.21 66.9364 112.864 66.9653C112.432 67.0085 111.999 67.1455 111.567 67.3761C111.149 67.5923 110.803 67.8735 110.529 68.2194C110.27 68.551 110.14 68.8897 110.14 69.2357C110.14 69.3799 110.19 69.5168 110.291 69.6466C110.392 69.7619 110.529 69.8195 110.702 69.8195C110.976 69.8195 111.322 69.661 111.74 69.3438C112.259 68.9258 112.8 68.7168 113.362 68.7168C113.65 68.7168 113.881 68.7888 114.054 68.933C114.241 69.0627 114.335 69.2646 114.335 69.5384C114.335 69.9565 114.155 70.3241 113.794 70.6412C113.434 70.9584 112.879 71.3548 112.129 71.8305C111.509 72.2053 111.005 72.5369 110.616 72.8252C110.241 73.1135 109.924 73.4595 109.664 73.8631C109.405 74.2667 109.282 74.7136 109.297 75.2038C109.325 75.9101 109.563 76.4939 110.01 76.9552C110.457 77.4021 111.041 77.6256 111.762 77.6256C111.978 77.6256 112.201 77.6039 112.432 77.5607ZM128.343 75.9389C128.343 76.2993 128.365 76.5444 128.408 76.6741C128.451 76.7895 128.581 76.8471 128.797 76.8471C128.97 76.8471 129.179 76.8183 129.424 76.7606V76.9769L127.046 77.8418V73.236C126.801 74.7641 126.339 75.9173 125.662 76.6958C124.999 77.4598 124.091 77.8418 122.937 77.8418C122.173 77.8418 121.561 77.6544 121.099 77.2796C120.652 76.9048 120.429 76.4075 120.429 75.7876C120.429 75.1389 120.667 74.4758 121.143 73.7982L121.597 73.1279C122.116 72.3783 122.433 71.9026 122.548 71.7008C122.663 71.499 122.692 71.3692 122.635 71.3116C122.476 71.1818 122.159 71.4485 121.683 72.1116C121.352 72.5729 121.027 72.8036 120.71 72.8036C120.422 72.8036 120.227 72.5873 120.126 72.1549C120.04 71.708 119.997 71.0305 119.997 70.1223L120.018 68.2194C120.004 68.0609 119.968 67.9527 119.91 67.8951C119.852 67.823 119.759 67.787 119.629 67.787C119.499 67.787 119.276 67.823 118.959 67.8951V67.6788L121.337 66.8139C121.337 67.0157 121.308 67.6788 121.251 68.8033C121.164 70.389 121.121 71.3908 121.121 71.8089C121.121 71.881 121.135 71.9458 121.164 72.0035C121.207 72.0467 121.258 72.0684 121.316 72.0684C121.445 72.0684 121.568 71.9747 121.683 71.7873C122.289 70.8791 122.728 70.5259 123.002 70.7277C123.074 70.7854 123.11 70.8575 123.11 70.944C123.11 71.0305 123.053 71.1818 122.937 71.3981C122.836 71.5999 122.699 71.8449 122.526 72.1332C122.224 72.609 121.892 73.1712 121.532 73.8199C121.2 74.3965 121.034 74.9154 121.034 75.3767C121.034 75.8236 121.2 76.1696 121.532 76.4147C121.863 76.6453 122.332 76.7606 122.937 76.7606C125.676 76.7606 127.046 74.5478 127.046 70.1223V68.7168C127.046 68.342 127.024 68.0969 126.981 67.9816C126.938 67.8662 126.808 67.8086 126.592 67.8086C126.419 67.8086 126.21 67.8374 125.965 67.8951V67.6788L128.343 66.8139V75.9389ZM137.628 66.8139C138.32 66.8139 138.911 66.9869 139.402 67.3329C139.906 67.6788 140.158 68.0969 140.158 68.587C140.158 68.9042 140.036 69.2285 139.791 69.5601L138.969 70.6196C138.306 71.4557 137.852 72.0467 137.607 72.3927C137.376 72.7387 137.261 73.0126 137.261 73.2144C137.261 73.2865 137.283 73.3586 137.326 73.4306C137.369 73.5027 137.427 73.5243 137.499 73.4955C137.571 73.4523 137.665 73.373 137.78 73.2577C137.938 73.1135 138.068 73.0126 138.169 72.9549C138.27 72.8829 138.378 72.8468 138.493 72.8468C138.854 72.8468 139.128 72.991 139.315 73.2793C139.502 73.5676 139.596 73.9424 139.596 74.4037C139.596 74.9082 139.481 75.42 139.25 75.9389C139.02 76.4579 138.695 76.876 138.277 77.1931C137.643 77.6688 136.929 77.9067 136.136 77.9067C135.372 77.9067 134.666 77.6832 134.017 77.2363C133.383 76.7895 132.936 76.1912 132.677 75.4416V77.8418H130.298V77.6256C130.644 77.5967 130.889 77.5319 131.033 77.431C131.192 77.3156 131.286 77.1787 131.314 77.0201C131.358 76.8615 131.379 76.6453 131.379 76.3714V64.3921C131.379 64.0173 131.358 63.7722 131.314 63.6569C131.271 63.5416 131.141 63.4839 130.925 63.4839C130.752 63.4839 130.543 63.5127 130.298 63.5704V63.3542L132.677 62.4892V71.8305C132.893 70.9079 133.246 70.0646 133.736 69.3006C134.226 68.5366 134.81 67.9311 135.488 67.4842C136.165 67.0373 136.879 66.8139 137.628 66.8139ZM138.753 69.3222C138.883 68.9762 138.947 68.6735 138.947 68.414C138.947 67.7797 138.508 67.4626 137.628 67.4626C136.836 67.4626 136.05 67.7653 135.272 68.3708C134.508 68.9618 133.88 69.7403 133.39 70.7061C132.915 71.6719 132.677 72.6738 132.677 73.7117V74.1442C132.677 74.7208 132.85 75.247 133.196 75.7227C133.542 76.1984 133.989 76.5732 134.536 76.8471C135.084 77.121 135.632 77.258 136.18 77.258C136.872 77.258 137.434 77.0489 137.866 76.6309C138.126 76.3714 138.32 76.0326 138.45 75.6146C138.594 75.1821 138.666 74.7497 138.666 74.3172C138.666 74.0145 138.63 73.7622 138.558 73.5604C138.501 73.3586 138.421 73.2577 138.32 73.2577C138.248 73.2577 138.111 73.373 137.91 73.6036C137.751 73.7622 137.614 73.8919 137.499 73.9928C137.383 74.0793 137.275 74.1226 137.174 74.1226C137.059 74.1226 136.965 74.0577 136.893 73.928C136.864 73.8847 136.85 73.8054 136.85 73.6901C136.85 73.4306 136.944 73.0775 137.131 72.6306C137.333 72.1693 137.614 71.5999 137.974 70.9223C138.378 70.1727 138.638 69.6394 138.753 69.3222ZM149.951 70.6845C149.763 71.2467 149.453 71.6719 149.021 71.9603C148.588 72.2486 148.12 72.4432 147.615 72.5441C147.111 72.645 146.469 72.7315 145.691 72.8036C144.783 72.8901 144.084 73.0054 143.593 73.1495C143.118 73.2793 142.786 73.546 142.599 73.9496C142.729 74.9154 143.089 75.7011 143.68 76.3065C144.271 76.8976 144.941 77.2219 145.691 77.2796C146.354 77.3228 146.996 77.2291 147.615 76.9985C148.235 76.7678 148.761 76.3714 149.194 75.8092L149.453 75.9173C148.978 76.5228 148.444 76.9985 147.853 77.3445C147.277 77.676 146.599 77.8418 145.821 77.8418C144.956 77.8418 144.177 77.6544 143.485 77.2796C142.793 76.9048 142.246 76.3714 141.842 75.6795C141.438 74.9731 141.237 74.137 141.237 73.1712C141.237 72.6378 141.316 72.0179 141.474 71.3116C141.806 69.9132 142.447 68.7888 143.399 67.9383C144.365 67.0734 145.467 66.6409 146.707 66.6409C147.01 66.6409 147.298 66.6625 147.572 66.7058C148.379 66.8499 149.014 67.1743 149.475 67.6788C149.936 68.1834 150.167 68.796 150.167 69.5168C150.167 69.834 150.095 70.2232 149.951 70.6845ZM142.556 73.4955C142.757 73.1784 143.046 72.9621 143.42 72.8468C143.795 72.7171 144.314 72.6017 144.977 72.5008C145.597 72.4143 146.116 72.3134 146.534 72.1981C146.967 72.0828 147.37 71.881 147.745 71.5927C148.134 71.2899 148.437 70.8647 148.653 70.3169C148.812 69.7547 148.891 69.2646 148.891 68.8465C148.891 67.6212 148.264 67.0085 147.01 67.0085C146.39 67.0085 145.785 67.2103 145.194 67.614C144.617 68.0176 144.112 68.5654 143.68 69.2573C143.262 69.9493 142.952 70.7061 142.75 71.5278C142.577 72.2486 142.512 72.9045 142.556 73.4955ZM166.524 76.3714C166.524 76.6453 166.539 76.8615 166.567 77.0201C166.611 77.1787 166.704 77.3156 166.848 77.431C167.007 77.5319 167.259 77.5967 167.605 77.6256V77.8418H165.227V73.236C164.982 74.7641 164.52 75.9173 163.843 76.6958C163.18 77.4598 162.272 77.8418 161.118 77.8418C160.325 77.8418 159.655 77.6256 159.107 77.1931C158.56 76.7462 158.286 76.2128 158.286 75.593C158.286 74.9875 158.56 74.3893 159.107 73.7982C160.304 72.5297 160.902 71.7512 160.902 71.4629C160.902 71.4197 160.873 71.3692 160.816 71.3116C160.657 71.1818 160.34 71.4485 159.864 72.1116C159.533 72.5729 159.208 72.8036 158.891 72.8036C158.646 72.8036 158.423 72.6594 158.221 72.3711C158.033 72.0828 157.94 71.7008 157.94 71.2251C157.94 70.8214 158.019 70.4034 158.178 69.9709C158.524 68.9762 159.064 68.2266 159.799 67.7221C160.534 67.2175 161.327 66.9653 162.178 66.9653C162.855 66.9653 163.475 67.1166 164.037 67.4194C164.6 67.7221 164.996 68.1257 165.227 68.6303V62.4892L167.605 63.3542V63.5704C167.36 63.5127 167.151 63.4839 166.978 63.4839C166.762 63.4839 166.632 63.5416 166.589 63.6569C166.546 63.7722 166.524 64.0173 166.524 64.3921V76.3714ZM161.118 76.7606C163.857 76.7606 165.227 74.5478 165.227 70.1223V69.4952C165.111 68.8465 164.801 68.3347 164.297 67.9599C163.792 67.5851 163.209 67.3977 162.545 67.3977C161.868 67.3977 161.234 67.614 160.643 68.0464C160.066 68.4789 159.648 69.106 159.388 69.9277C159.23 70.4178 159.151 70.8575 159.151 71.2467C159.151 71.4773 159.187 71.6864 159.259 71.8738C159.316 72.0323 159.41 72.1116 159.54 72.1116C159.641 72.1116 159.742 72.0323 159.843 71.8738C160.116 71.4269 160.369 71.1025 160.599 70.9007C160.844 70.6845 161.039 70.6268 161.183 70.7277C161.284 70.7998 161.335 70.9007 161.335 71.0305C161.335 71.4918 160.722 72.3855 159.497 73.7117C159.064 74.1875 158.848 74.6488 158.848 75.0956C158.848 75.5713 159.064 75.9678 159.497 76.2849C159.943 76.6021 160.484 76.7606 161.118 76.7606ZM177.191 70.6845C177.004 71.2467 176.694 71.6719 176.261 71.9603C175.829 72.2486 175.36 72.4432 174.856 72.5441C174.351 72.645 173.71 72.7315 172.931 72.8036C172.023 72.8901 171.324 73.0054 170.834 73.1495C170.358 73.2793 170.027 73.546 169.839 73.9496C169.969 74.9154 170.329 75.7011 170.92 76.3065C171.511 76.8976 172.182 77.2219 172.931 77.2796C173.594 77.3228 174.236 77.2291 174.856 76.9985C175.476 76.7678 176.002 76.3714 176.434 75.8092L176.694 75.9173C176.218 76.5228 175.685 76.9985 175.094 77.3445C174.517 77.676 173.839 77.8418 173.061 77.8418C172.196 77.8418 171.418 77.6544 170.726 77.2796C170.034 76.9048 169.486 76.3714 169.082 75.6795C168.679 74.9731 168.477 74.137 168.477 73.1712C168.477 72.6378 168.556 72.0179 168.715 71.3116C169.046 69.9132 169.688 68.7888 170.639 67.9383C171.605 67.0734 172.708 66.6409 173.948 66.6409C174.25 66.6409 174.539 66.6625 174.812 66.7058C175.62 66.8499 176.254 67.1743 176.715 67.6788C177.177 68.1834 177.407 68.796 177.407 69.5168C177.407 69.834 177.335 70.2232 177.191 70.6845ZM169.796 73.4955C169.998 73.1784 170.286 72.9621 170.661 72.8468C171.036 72.7171 171.555 72.6017 172.218 72.5008C172.838 72.4143 173.356 72.3134 173.775 72.1981C174.207 72.0828 174.611 71.881 174.985 71.5927C175.375 71.2899 175.677 70.8647 175.894 70.3169C176.052 69.7547 176.131 69.2646 176.131 68.8465C176.131 67.6212 175.504 67.0085 174.25 67.0085C173.63 67.0085 173.025 67.2103 172.434 67.614C171.857 68.0176 171.353 68.5654 170.92 69.2573C170.502 69.9493 170.192 70.7061 169.99 71.5278C169.817 72.2486 169.753 72.9045 169.796 73.4955ZM187.559 76.3714C187.559 76.6453 187.573 76.8615 187.602 77.0201C187.645 77.1787 187.739 77.3156 187.883 77.431C188.041 77.5319 188.294 77.5967 188.64 77.6256V77.8418H185.18V77.6256C185.526 77.5967 185.771 77.5319 185.915 77.431C186.074 77.3156 186.167 77.1787 186.196 77.0201C186.24 76.8615 186.261 76.6453 186.261 76.3714V64.3921C186.261 64.0173 186.24 63.7722 186.196 63.6569C186.153 63.5416 186.023 63.4839 185.807 63.4839C185.634 63.4839 185.425 63.5127 185.18 63.5704V63.3542L187.559 62.4892V76.3714ZM192.137 62.7055C192.396 62.7055 192.591 62.7703 192.721 62.9001C192.865 63.0298 192.937 63.2028 192.937 63.419C192.937 63.4623 192.922 63.556 192.894 63.7002C192.706 64.3777 192.375 64.9615 191.899 65.4516C191.438 65.9418 190.839 66.3886 190.104 66.7923L189.931 66.4679C190.364 66.2373 190.702 65.9922 190.948 65.7327C191.193 65.4733 191.366 65.1345 191.466 64.7164C191.25 64.702 191.084 64.63 190.969 64.5002C190.854 64.3561 190.796 64.1903 190.796 64.0029C190.796 63.6569 190.919 63.3542 191.164 63.0947C191.423 62.8352 191.748 62.7055 192.137 62.7055ZM195.666 65.4733C195.479 65.4733 195.327 65.4084 195.212 65.2787C195.111 65.1345 195.061 64.9615 195.061 64.7597C195.061 64.4426 195.176 64.147 195.407 63.8731C195.652 63.5992 195.911 63.4623 196.185 63.4623C196.358 63.4623 196.495 63.5272 196.596 63.6569C196.711 63.7866 196.769 63.9524 196.769 64.1542C196.769 64.4858 196.646 64.7885 196.401 65.0624C196.171 65.3363 195.926 65.4733 195.666 65.4733ZM196.618 76.3714C196.618 76.6453 196.632 76.8615 196.661 77.0201C196.704 77.1787 196.798 77.3156 196.942 77.431C197.1 77.5319 197.353 77.5967 197.699 77.6256V77.8418H194.239V77.6256C194.585 77.5967 194.83 77.5319 194.974 77.431C195.133 77.3156 195.226 77.1787 195.255 77.0201C195.299 76.8615 195.32 76.6453 195.32 76.3714V68.7168C195.32 68.342 195.299 68.0969 195.255 67.9816C195.212 67.8662 195.082 67.8086 194.866 67.8086C194.693 67.8086 194.484 67.8374 194.239 67.8951V67.6788L196.618 66.8139V76.3714ZM208.375 76.3714C208.375 76.6453 208.389 76.8615 208.418 77.0201C208.461 77.1787 208.555 77.3156 208.699 77.431C208.858 77.5319 209.11 77.5967 209.456 77.6256V77.8418H206.039V77.6256C206.486 77.5823 206.775 77.4814 206.904 77.3228C207.034 77.1499 207.106 76.8904 207.121 76.5444L207.229 72.6306C207.258 71.535 207.214 70.6412 207.099 69.9493C206.998 69.2573 206.818 68.724 206.558 68.3492C206.299 67.9888 205.996 67.7221 205.65 67.5491C205.304 67.3617 204.951 67.268 204.591 67.268C204.101 67.268 203.675 67.4338 203.315 67.7653C202.954 68.0969 202.774 68.5366 202.774 69.0844C202.774 69.4159 202.832 69.7619 202.947 70.1223C203.063 70.4682 203.25 70.9728 203.509 71.6359C203.769 72.1837 203.92 72.5873 203.964 72.8468C204.007 73.0486 203.971 73.2144 203.855 73.3441C203.755 73.4739 203.618 73.5388 203.445 73.5388C203.257 73.5388 203.077 73.4523 202.904 73.2793C202.745 73.1063 202.637 72.8396 202.58 72.4792C202.464 71.8161 202.291 71.4845 202.061 71.4845C201.902 71.4845 201.765 71.5999 201.65 71.8305C201.462 72.2197 201.369 72.8252 201.369 73.6469V76.3714C201.369 76.6453 201.383 76.8615 201.412 77.0201C201.455 77.1787 201.549 77.3156 201.693 77.431C201.852 77.5319 202.104 77.5967 202.45 77.6256V77.8418H198.99V77.6256C199.336 77.5967 199.581 77.5319 199.725 77.431C199.884 77.3156 199.978 77.1787 200.006 77.0201C200.05 76.8615 200.071 76.6453 200.071 76.3714V68.7168C200.071 68.342 200.05 68.0969 200.006 67.9816C199.963 67.8662 199.834 67.8086 199.617 67.8086C199.444 67.8086 199.235 67.8374 198.99 67.8951V67.6788L201.369 66.8139V71.7224C201.426 71.535 201.513 71.3908 201.628 71.2899C201.744 71.189 201.859 71.1386 201.974 71.1386C202.147 71.1386 202.306 71.2323 202.45 71.4197C202.594 71.6071 202.702 71.881 202.774 72.2414C202.89 72.7891 203.063 73.063 203.293 73.063C203.351 73.063 203.409 73.0414 203.466 72.9982C203.524 72.9405 203.56 72.8901 203.574 72.8468C203.603 72.7459 203.567 72.5801 203.466 72.3495C203.365 72.1044 203.25 71.8449 203.12 71.571C202.832 70.9368 202.616 70.4178 202.472 70.0142C202.327 69.5961 202.255 69.1997 202.255 68.8249C202.255 68.1329 202.544 67.5923 203.12 67.2031C203.711 66.8139 204.396 66.6193 205.174 66.6193C205.593 66.6193 205.982 66.6842 206.342 66.8139C206.717 66.9436 207.02 67.1238 207.25 67.3545C207.697 67.8158 207.993 68.4573 208.137 69.279C208.295 70.0862 208.375 71.1818 208.375 72.5657V76.3714ZM215.12 62.7271C215.581 62.7703 215.934 62.8713 216.18 63.0298C216.439 63.174 216.706 63.383 216.98 63.6569C217.196 63.8731 217.39 64.0317 217.563 64.1326C217.736 64.2335 217.96 64.284 218.234 64.284L217.996 65.5814C217.578 65.4228 217.268 65.221 217.066 64.9759C216.864 64.7309 216.677 64.4209 216.504 64.0461C216.316 63.6713 216.129 63.3974 215.942 63.2244C215.754 63.037 215.459 62.9433 215.055 62.9433C214.493 62.9433 214.075 63.1019 213.801 63.419C213.527 63.7218 213.347 64.1254 213.26 64.63C213.188 65.1201 213.145 65.7688 213.131 66.5761H215.012V67.0085H213.131V67.268V76.3714C213.131 76.6453 213.145 76.8615 213.174 77.0201C213.217 77.1787 213.311 77.3156 213.455 77.431C213.614 77.5319 213.866 77.5967 214.212 77.6256V77.8418H210.752V77.6256C211.098 77.5967 211.343 77.5319 211.487 77.431C211.646 77.3156 211.74 77.1787 211.768 77.0201C211.812 76.8615 211.833 76.6453 211.833 76.3714V67.268V67.0085H211.055V66.5761H211.877C211.977 65.2787 212.295 64.2912 212.828 63.6137C213.376 62.9217 214.14 62.6262 215.12 62.7271ZM221.496 77.8418C220.544 77.8418 219.665 77.5895 218.858 77.085C218.065 76.5804 217.438 75.9029 216.977 75.0524C216.515 74.1875 216.285 73.2432 216.285 72.2197C216.285 71.2106 216.515 70.2808 216.977 69.4303C217.452 68.5654 218.087 67.8807 218.879 67.3761C219.672 66.8716 220.544 66.6193 221.496 66.6193C222.447 66.6193 223.319 66.8716 224.112 67.3761C224.92 67.8807 225.554 68.5654 226.015 69.4303C226.491 70.2808 226.729 71.2106 226.729 72.2197C226.729 73.2432 226.491 74.1875 226.015 75.0524C225.554 75.9029 224.92 76.5804 224.112 77.085C223.319 77.5895 222.447 77.8418 221.496 77.8418ZM221.496 77.4958C222.202 77.4958 222.851 77.2652 223.442 76.8039C224.047 76.3426 224.523 75.7083 224.869 74.901C225.229 74.0938 225.41 73.2 225.41 72.2197C225.41 71.3116 225.229 70.4538 224.869 69.6466C224.523 68.8393 224.047 68.1906 223.442 67.7005C222.851 67.2103 222.202 66.9653 221.496 66.9653C220.789 66.9653 220.134 67.2103 219.528 67.7005C218.937 68.1906 218.461 68.8393 218.101 69.6466C217.755 70.4538 217.582 71.3116 217.582 72.2197C217.582 73.2 217.755 74.0938 218.101 74.901C218.461 75.7083 218.937 76.3426 219.528 76.8039C220.134 77.2652 220.789 77.4958 221.496 77.4958ZM229.982 71.8521C230.27 70.2088 230.847 68.9546 231.712 68.0897C232.576 67.2248 233.73 66.7923 235.171 66.7923V68.0897C234.782 68.0176 234.458 67.9816 234.198 67.9816C232.858 67.9816 231.82 68.5726 231.084 69.7547C230.349 70.9223 229.982 72.5441 229.982 74.6199V76.3714C229.982 76.6453 229.996 76.8615 230.025 77.0201C230.068 77.1787 230.162 77.3156 230.306 77.431C230.465 77.5319 230.717 77.5967 231.063 77.6256V77.8418H227.603V77.6256C227.949 77.5967 228.194 77.5319 228.338 77.431C228.497 77.3156 228.591 77.1787 228.619 77.0201C228.663 76.8615 228.684 76.6453 228.684 76.3714V68.7168C228.684 68.342 228.663 68.0969 228.619 67.9816C228.576 67.8662 228.446 67.8086 228.23 67.8086C228.057 67.8086 227.848 67.8374 227.603 67.8951V67.6788L229.982 66.8139V71.8521ZM252.862 76.3714C252.862 76.6453 252.877 76.8615 252.906 77.0201C252.949 77.1787 253.043 77.3156 253.187 77.431C253.345 77.5319 253.598 77.5967 253.944 77.6256V77.8418H250.527V77.6256C250.974 77.5823 251.262 77.4814 251.392 77.3228C251.522 77.1499 251.594 76.8904 251.608 76.5444L251.716 72.6306C251.745 71.535 251.702 70.6412 251.587 69.9493C251.486 69.2573 251.306 68.724 251.046 68.3492C250.787 67.9888 250.484 67.7221 250.138 67.5491C249.792 67.3617 249.439 67.268 249.078 67.268C248.588 67.268 248.163 67.4338 247.803 67.7653C247.442 68.0969 247.262 68.5366 247.262 69.0844C247.262 69.4159 247.32 69.7619 247.435 70.1223C247.55 70.4682 247.738 70.9728 247.997 71.6359C248.257 72.1837 248.408 72.5873 248.451 72.8468C248.495 73.0486 248.459 73.2144 248.343 73.3441C248.242 73.4739 248.105 73.5388 247.932 73.5388C247.745 73.5388 247.565 73.4523 247.392 73.2793C247.233 73.1063 247.125 72.8396 247.067 72.4792C246.952 71.8161 246.779 71.4845 246.548 71.4845C246.39 71.4845 246.253 71.5999 246.138 71.8305C245.95 72.2197 245.857 72.8252 245.857 73.6469V76.3714C245.857 76.6453 245.871 76.8615 245.9 77.0201C245.943 77.1787 246.037 77.3156 246.181 77.431C246.339 77.5319 246.592 77.5967 246.938 77.6256V77.8418H243.521V77.6256C243.968 77.5823 244.256 77.4814 244.386 77.3228C244.516 77.1499 244.588 76.8904 244.602 76.5444L244.71 72.6306C244.739 71.535 244.696 70.6412 244.581 69.9493C244.48 69.2573 244.3 68.724 244.04 68.3492C243.781 67.9888 243.478 67.7221 243.132 67.5491C242.786 67.3617 242.433 67.268 242.072 67.268C241.582 67.268 241.157 67.4338 240.797 67.7653C240.436 68.0969 240.256 68.5366 240.256 69.0844C240.256 69.4159 240.314 69.7619 240.429 70.1223C240.544 70.4682 240.732 70.9728 240.991 71.6359C241.251 72.1837 241.402 72.5873 241.445 72.8468C241.489 73.0486 241.453 73.2144 241.337 73.3441C241.236 73.4739 241.099 73.5388 240.926 73.5388C240.739 73.5388 240.559 73.4523 240.386 73.2793C240.227 73.1063 240.119 72.8396 240.061 72.4792C239.946 71.8161 239.773 71.4845 239.543 71.4845C239.384 71.4845 239.247 71.5999 239.132 71.8305C238.944 72.2197 238.851 72.8252 238.851 73.6469V76.3714C238.851 76.6453 238.865 76.8615 238.894 77.0201C238.937 77.1787 239.031 77.3156 239.175 77.431C239.333 77.5319 239.586 77.5967 239.932 77.6256V77.8418H236.472V77.6256C236.818 77.5967 237.063 77.5319 237.207 77.431C237.366 77.3156 237.459 77.1787 237.488 77.0201C237.532 76.8615 237.553 76.6453 237.553 76.3714V68.7168C237.553 68.342 237.532 68.0969 237.488 67.9816C237.445 67.8662 237.315 67.8086 237.099 67.8086C236.926 67.8086 236.717 67.8374 236.472 67.8951V67.6788L238.851 66.8139V71.7224C238.908 71.535 238.995 71.3908 239.11 71.2899C239.225 71.189 239.341 71.1386 239.456 71.1386C239.629 71.1386 239.788 71.2323 239.932 71.4197C240.076 71.6071 240.184 71.881 240.256 72.2414C240.371 72.7891 240.544 73.063 240.775 73.063C240.833 73.063 240.89 73.0414 240.948 72.9982C241.006 72.9405 241.042 72.8901 241.056 72.8468C241.085 72.7459 241.049 72.5801 240.948 72.3495C240.847 72.1044 240.732 71.8449 240.602 71.571C240.314 70.9368 240.098 70.4178 239.953 70.0142C239.809 69.5961 239.737 69.1997 239.737 68.8249C239.737 68.1329 240.025 67.5923 240.602 67.2031C241.193 66.8139 241.878 66.6193 242.656 66.6193C243.074 66.6193 243.464 66.6842 243.824 66.8139C244.199 66.9436 244.501 67.1238 244.732 67.3545C245.136 67.7725 245.417 68.3347 245.575 69.0411C245.734 69.7331 245.828 70.634 245.857 71.744C246.015 71.3404 246.224 71.1386 246.484 71.1386C246.642 71.1386 246.794 71.2323 246.938 71.4197C247.082 71.6071 247.19 71.881 247.262 72.2414C247.377 72.7891 247.55 73.063 247.781 73.063C247.839 73.063 247.896 73.0414 247.954 72.9982C248.012 72.9405 248.048 72.8901 248.062 72.8468C248.091 72.7459 248.055 72.5801 247.954 72.3495C247.853 72.1044 247.738 71.8449 247.608 71.571C247.32 70.9368 247.103 70.4178 246.959 70.0142C246.815 69.5961 246.743 69.1997 246.743 68.8249C246.743 68.1329 247.031 67.5923 247.608 67.2031C248.199 66.8139 248.884 66.6193 249.662 66.6193C250.08 66.6193 250.469 66.6842 250.83 66.8139C251.205 66.9436 251.507 67.1238 251.738 67.3545C252.185 67.8158 252.48 68.4573 252.625 69.279C252.783 70.0862 252.862 71.1818 252.862 72.5657V76.3714ZM264.488 76.3714C264.488 76.6453 264.502 76.8615 264.531 77.0201C264.574 77.1787 264.668 77.3156 264.812 77.431C264.971 77.5319 265.223 77.5967 265.569 77.6256V77.8418H263.19V74.5767C262.124 76.4363 260.812 77.5247 259.255 77.8418C258.981 77.8995 258.664 77.9283 258.304 77.9283C257.367 77.9283 256.552 77.6976 255.86 77.2363C255.168 76.7606 254.822 76.148 254.822 75.3984C254.822 74.865 255.082 74.3532 255.601 73.8631C256.134 73.3586 256.898 72.7747 257.893 72.1116C258.714 71.535 259.32 71.0737 259.709 70.7277C260.113 70.3818 260.315 70.043 260.315 69.7114C260.315 69.5673 260.257 69.452 260.142 69.3655C260.026 69.279 259.875 69.2357 259.687 69.2357C259.356 69.2357 259.003 69.351 258.628 69.5817C257.907 70.0286 257.28 70.252 256.747 70.252C256.415 70.252 256.156 70.1727 255.968 70.0142C255.795 69.8412 255.709 69.6033 255.709 69.3006C255.709 68.8681 255.911 68.4573 256.314 68.0681C256.732 67.6644 257.251 67.3329 257.871 67.0734C258.491 66.8139 259.096 66.6625 259.687 66.6193C259.846 66.6049 260.077 66.5977 260.379 66.5977C261.72 66.5977 262.736 66.9797 263.428 67.7437C264.135 68.5077 264.488 69.7979 264.488 71.6143V76.3714ZM259.255 77.5607C259.947 77.431 260.596 77.0922 261.201 76.5444C261.807 75.9822 262.29 75.3551 262.65 74.6632C263.01 73.9712 263.19 73.3658 263.19 72.8468V71.1386C263.19 69.5384 262.96 68.4357 262.499 67.8302C262.052 67.2248 261.36 66.922 260.423 66.922C260.279 66.922 260.033 66.9364 259.687 66.9653C259.255 67.0085 258.823 67.1455 258.39 67.3761C257.972 67.5923 257.626 67.8735 257.352 68.2194C257.093 68.551 256.963 68.8897 256.963 69.2357C256.963 69.3799 257.013 69.5168 257.114 69.6466C257.215 69.7619 257.352 69.8195 257.525 69.8195C257.799 69.8195 258.145 69.661 258.563 69.3438C259.082 68.9258 259.623 68.7168 260.185 68.7168C260.473 68.7168 260.704 68.7888 260.877 68.933C261.064 69.0627 261.158 69.2646 261.158 69.5384C261.158 69.9565 260.978 70.3241 260.617 70.6412C260.257 70.9584 259.702 71.3548 258.952 71.8305C258.332 72.2053 257.828 72.5369 257.439 72.8252C257.064 73.1135 256.747 73.4595 256.487 73.8631C256.228 74.2667 256.105 74.7136 256.12 75.2038C256.148 75.9101 256.386 76.4939 256.833 76.9552C257.28 77.4021 257.864 77.6256 258.585 77.6256C258.801 77.6256 259.024 77.6039 259.255 77.5607ZM268.16 67.0085V73.3441C268.16 74.31 268.189 75.0812 268.247 75.6578C268.304 76.22 268.434 76.6741 268.636 77.0201C268.852 77.3517 269.177 77.5174 269.609 77.5174V77.8418C268.629 77.8418 267.922 77.4958 267.49 76.8039C267.072 76.0975 266.863 74.9443 266.863 73.3441V67.0085H266.084V66.5761H266.863V65.9057C266.863 65.5309 266.841 65.2859 266.798 65.1705C266.755 65.0552 266.625 64.9975 266.409 64.9975C266.236 64.9975 266.027 65.0264 265.782 65.084V64.8678L268.16 64.0029V66.5761H270.042V67.0085H268.16ZM272.763 65.4733C272.575 65.4733 272.424 65.4084 272.308 65.2787C272.208 65.1345 272.157 64.9615 272.157 64.7597C272.157 64.4426 272.272 64.147 272.503 63.8731C272.748 63.5992 273.008 63.4623 273.281 63.4623C273.454 63.4623 273.591 63.5272 273.692 63.6569C273.808 63.7866 273.865 63.9524 273.865 64.1542C273.865 64.4858 273.743 64.7885 273.498 65.0624C273.267 65.3363 273.022 65.4733 272.763 65.4733ZM273.714 76.3714C273.714 76.6453 273.728 76.8615 273.757 77.0201C273.8 77.1787 273.894 77.3156 274.038 77.431C274.197 77.5319 274.449 77.5967 274.795 77.6256V77.8418H271.335V77.6256C271.681 77.5967 271.926 77.5319 272.071 77.431C272.229 77.3156 272.323 77.1787 272.352 77.0201C272.395 76.8615 272.417 76.6453 272.417 76.3714V68.7168C272.417 68.342 272.395 68.0969 272.352 67.9816C272.308 67.8662 272.179 67.8086 271.962 67.8086C271.789 67.8086 271.58 67.8374 271.335 67.8951V67.6788L273.714 66.8139V76.3714ZM284.038 80.2636C284.038 80.6384 284.06 80.8835 284.103 80.9988C284.146 81.1141 284.276 81.1718 284.492 81.1718C284.665 81.1718 284.874 81.143 285.119 81.0853V81.3015L282.741 82.1665V73.2144C282.251 76.2993 280.874 77.8418 278.611 77.8418C277.818 77.8418 277.147 77.6256 276.6 77.1931C276.052 76.7462 275.778 76.2128 275.778 75.593C275.778 74.9875 276.052 74.3893 276.6 73.7982C277.796 72.5297 278.394 71.7512 278.394 71.4629C278.394 71.4197 278.366 71.3692 278.308 71.3116C278.149 71.1818 277.832 71.4485 277.356 72.1116C277.025 72.5729 276.701 72.8036 276.383 72.8036C276.138 72.8036 275.915 72.6594 275.713 72.3711C275.526 72.0828 275.432 71.7008 275.432 71.2251C275.432 70.8214 275.511 70.4034 275.67 69.9709C276.016 68.9618 276.607 68.1978 277.443 67.6788C278.293 67.1455 279.216 66.8788 280.211 66.8788C280.888 66.8788 281.515 67.0085 282.092 67.268C282.669 67.5131 283.137 67.8735 283.497 68.3492C283.858 68.8249 284.038 69.3871 284.038 70.0358V80.2636ZM278.611 76.7606C281.306 76.7606 282.683 74.6343 282.741 70.3818C282.712 69.3727 282.445 68.6014 281.941 68.0681C281.45 67.5203 280.852 67.2464 280.146 67.2464C279.454 67.2464 278.798 67.4842 278.178 67.9599C277.573 68.4357 277.14 69.0916 276.881 69.9277C276.737 70.4034 276.665 70.8286 276.665 71.2034C276.665 71.4773 276.701 71.708 276.773 71.8954C276.845 72.0107 276.924 72.0684 277.01 72.0684C277.155 72.0684 277.27 71.9891 277.356 71.8305C277.63 71.398 277.883 71.0809 278.113 70.8791C278.344 70.6773 278.531 70.6268 278.675 70.7277C278.791 70.7998 278.848 70.9151 278.848 71.0737C278.848 71.535 278.25 72.4143 277.054 73.7117C276.607 74.2019 276.383 74.6704 276.383 75.1173C276.383 75.593 276.6 75.9894 277.032 76.3065C277.465 76.6093 277.991 76.7606 278.611 76.7606ZM294.72 75.9389C294.72 76.2993 294.742 76.5444 294.785 76.6741C294.828 76.7895 294.958 76.8471 295.174 76.8471C295.347 76.8471 295.556 76.8183 295.801 76.7606V76.9769L293.423 77.8418V73.236C293.178 74.7641 292.716 75.9173 292.039 76.6958C291.376 77.4598 290.468 77.8418 289.314 77.8418C288.55 77.8418 287.938 77.6544 287.476 77.2796C287.029 76.9048 286.806 76.4075 286.806 75.7876C286.806 75.1389 287.044 74.4758 287.52 73.7982L287.974 73.1279C288.493 72.3783 288.81 71.9026 288.925 71.7008C289.04 71.499 289.069 71.3692 289.012 71.3116C288.853 71.1818 288.536 71.4485 288.06 72.1116C287.729 72.5729 287.404 72.8036 287.087 72.8036C286.799 72.8036 286.604 72.5873 286.503 72.1549C286.417 71.708 286.374 71.0305 286.374 70.1223L286.395 68.2194C286.381 68.0609 286.345 67.9527 286.287 67.8951C286.229 67.823 286.136 67.787 286.006 67.787C285.876 67.787 285.653 67.823 285.336 67.8951V67.6788L287.714 66.8139C287.714 67.0157 287.685 67.6788 287.628 68.8033C287.541 70.389 287.498 71.3908 287.498 71.8089C287.498 71.881 287.512 71.9458 287.541 72.0035C287.584 72.0467 287.635 72.0684 287.693 72.0684C287.822 72.0684 287.945 71.9747 288.06 71.7873C288.666 70.8791 289.105 70.5259 289.379 70.7277C289.451 70.7854 289.487 70.8575 289.487 70.944C289.487 71.0305 289.43 71.1818 289.314 71.3981C289.213 71.5999 289.076 71.8449 288.903 72.1332C288.601 72.609 288.269 73.1712 287.909 73.8199C287.577 74.3965 287.411 74.9154 287.411 75.3767C287.411 75.8236 287.577 76.1696 287.909 76.4147C288.24 76.6453 288.709 76.7606 289.314 76.7606C292.053 76.7606 293.423 74.5478 293.423 70.1223V68.7168C293.423 68.342 293.401 68.0969 293.358 67.9816C293.315 67.8662 293.185 67.8086 292.969 67.8086C292.796 67.8086 292.587 67.8374 292.342 67.8951V67.6788L294.72 66.8139V75.9389ZM305.389 70.6845C305.202 71.2467 304.892 71.6719 304.46 71.9603C304.027 72.2486 303.559 72.4432 303.054 72.5441C302.55 72.645 301.908 72.7315 301.13 72.8036C300.221 72.8901 299.522 73.0054 299.032 73.1495C298.556 73.2793 298.225 73.546 298.037 73.9496C298.167 74.9154 298.528 75.7011 299.119 76.3065C299.71 76.8976 300.38 77.2219 301.13 77.2796C301.793 77.3228 302.434 77.2291 303.054 76.9985C303.674 76.7678 304.2 76.3714 304.633 75.8092L304.892 75.9173C304.416 76.5228 303.883 76.9985 303.292 77.3445C302.715 77.676 302.038 77.8418 301.259 77.8418C300.394 77.8418 299.616 77.6544 298.924 77.2796C298.232 76.9048 297.684 76.3714 297.281 75.6795C296.877 74.9731 296.675 74.137 296.675 73.1712C296.675 72.6378 296.754 72.0179 296.913 71.3116C297.245 69.9132 297.886 68.7888 298.838 67.9383C299.803 67.0734 300.906 66.6409 302.146 66.6409C302.449 66.6409 302.737 66.6625 303.011 66.7058C303.818 66.8499 304.452 67.1743 304.914 67.6788C305.375 68.1834 305.606 68.796 305.606 69.5168C305.606 69.834 305.534 70.2232 305.389 70.6845ZM297.994 73.4955C298.196 73.1784 298.484 72.9621 298.859 72.8468C299.234 72.7171 299.753 72.6017 300.416 72.5008C301.036 72.4143 301.555 72.3134 301.973 72.1981C302.405 72.0828 302.809 71.881 303.184 71.5927C303.573 71.2899 303.876 70.8647 304.092 70.3169C304.251 69.7547 304.33 69.2646 304.33 68.8465C304.33 67.6212 303.703 67.0085 302.449 67.0085C301.829 67.0085 301.223 67.2103 300.632 67.614C300.056 68.0176 299.551 68.5654 299.119 69.2573C298.701 69.9493 298.391 70.7061 298.189 71.5278C298.016 72.2486 297.951 72.9045 297.994 73.4955Z" fill="white"/>
</g>
<defs>
<clipPath id="clip0_550_4815">
<rect width="308" height="87.4054" fill="white"/>
</clipPath>
</defs>
</svg>
