<svg width="151" height="210" viewBox="0 0 151 210" fill="none" xmlns="http://www.w3.org/2000/svg">
<path d="M36.6659 153.111C38.9004 155.119 41.8844 156.222 45.1159 156.031C48.1847 155.861 50.8717 154.829 53.2052 153.188C53.8062 154.581 54.6053 156.088 55.4891 157.664C54.1386 159.666 52.5476 161.412 50.6242 162.897C50.1293 163.279 50.7091 164.071 51.1899 163.675C53.0496 162.183 54.6194 160.458 55.9417 158.485C56.4862 159.468 57.0589 160.479 57.6105 161.497C56.3377 163.491 54.7396 165.16 52.7809 166.496C52.286 166.836 52.8375 167.585 53.3254 167.239C55.2275 165.902 56.7973 164.248 58.0559 162.31C58.6923 163.512 59.2793 164.736 59.7884 165.952C59.753 165.987 59.7035 165.994 59.6752 166.051C58.558 168.073 57.1084 169.48 55.171 170.711C54.7467 170.979 55.1497 171.722 55.5952 171.488C57.5539 170.435 59.1237 168.681 60.0783 166.68C60.5945 168.002 60.9763 169.332 61.1884 170.633C61.0894 170.661 60.9904 170.732 60.9339 170.859C59.6752 173.829 57.3488 175.773 54.2941 176.721C53.6648 176.912 54.0466 177.817 54.6689 177.661C57.6388 176.884 60.05 174.741 61.344 172.005C61.4783 174.289 60.9904 176.488 59.4277 178.475C58.9893 178.432 58.5226 178.885 58.6216 179.38C57.9782 180.023 57.2428 180.645 56.3377 181.239C52.9294 183.474 48.5878 182.88 45.7311 180.08C43.7582 178.149 43.8431 174.416 42.3723 172.125C41.0924 170.138 39.9752 169.388 37.7691 168.851C37.1397 168.702 36.8286 169.749 37.4508 169.961C43.9562 172.111 41.9268 181.112 48.2696 183.495C51.6495 184.768 55.7508 183.877 58.4236 181.501C58.763 181.204 59.0459 180.879 59.3358 180.546C61.4713 183.587 64.3068 185.956 67.9342 187.094C73.8669 188.954 80.8531 186.069 85.3573 191.733C85.4705 191.874 85.6048 191.938 85.7392 191.945C86.0644 192.072 86.5099 191.938 86.6089 191.485C88.1363 184.612 95.6174 184.485 99.8601 180.78C101.656 179.21 103 177.202 103.834 174.982C104.223 173.956 104.456 172.931 104.591 171.906C110.509 171.701 113.564 165.082 119.291 164.036C119.694 163.958 119.864 163.618 119.765 163.251C119.291 161.419 119.164 159.963 119.214 158.188C120.522 157.997 121.844 157.862 123.202 157.862C123.442 157.862 123.598 157.707 123.661 157.516C124.036 157.367 124.305 156.915 124.001 156.469C123.195 155.282 122.537 154.044 121.971 152.771C124.496 143.643 133.172 128.107 120.713 123.186C120.868 122.733 121.01 122.253 121.123 121.772C122.374 116.348 120.734 110.819 122.961 105.537C123.138 105.119 122.883 104.54 122.388 104.511C115.883 104.073 108.296 93.1622 101.522 97.2351C101.501 95.2623 100.984 93.346 99.7611 91.6985C94.6063 84.8042 86.3756 92.2288 79.9763 88.4316C79.7217 88.2761 79.4601 88.3821 79.2904 88.5801C79.0429 88.3326 78.5408 88.3114 78.4135 88.7074C77.6216 91.3237 76.0023 93.1551 74.0507 94.6542C73.6335 83.9839 58.4236 89.4499 52.6819 85.9144C52.3142 85.6881 51.6778 85.6739 51.5081 86.1972C48.213 96.6058 37.0124 102.22 34.0992 113.195C33.8517 114.135 33.689 115.075 33.5618 116.009C6.52906 100.502 -16.862 82.895 -36.9085 58.7756C-37.1984 58.4291 -37.6085 58.4432 -37.9055 58.6271C-39.2844 59.1433 -40.6632 59.6736 -42.035 60.211C-42.3532 60.3312 -42.5441 60.7201 -42.4027 61.0454C-36.364 74.6643 -24.6331 84.0476 -13.1921 93.0561C-0.789464 102.828 12.2991 111.646 25.72 119.947C25.5008 120.096 25.2674 120.23 25.0482 120.379C24.5603 120.711 24.9987 121.56 25.5502 121.291C25.9745 121.079 26.3846 120.838 26.8018 120.605C27.7706 121.206 28.7393 121.807 29.7151 122.401C21.9652 129.953 29.2343 142.794 25.126 152.531C24.9704 152.913 25.133 153.358 25.5149 153.528C29.9626 155.529 29.7575 160.868 34.9477 161.207C35.7467 161.257 35.9376 160.104 35.1245 159.955C33.7385 159.715 28.7534 154.985 27.9544 152.969C26.9362 150.381 28.0746 148.069 28.0675 145.262C28.0534 137.045 25.225 129.041 31.0727 123.08C31.3627 123.059 31.5818 122.811 31.6526 122.514C32.2112 122.012 32.8052 121.517 33.5052 121.043C33.9931 124.869 35.6336 128.447 38.5256 131.41C38.66 131.544 38.8156 131.586 38.9711 131.558C36.3831 136.536 31.5394 141.238 33.2082 147.56C33.6678 149.278 34.4952 150.756 35.5487 152.008C35.5205 152.036 35.4992 152.057 35.471 152.085C31.8294 157.721 39.5934 163.477 36.0861 168.922C35.8669 169.268 36.27 169.841 36.6377 169.501C41.7642 164.714 33.3496 158.209 36.5882 153.089L36.6659 153.111ZM59.159 160.868C60.354 161.851 61.6693 162.699 63.1118 163.35C63.7835 163.654 64.2431 162.614 63.5714 162.296C60.6793 160.917 58.2751 159.065 56.3377 156.519C55.5245 155.253 54.7467 153.938 54.0961 152.524C54.2446 152.404 54.3719 152.262 54.5204 152.142C54.5345 152.156 54.5416 152.163 54.5558 152.177C56.8185 154.256 59.4843 155.875 62.4895 156.632C63.0693 156.773 63.3451 155.805 62.7794 155.621C59.9651 154.688 57.462 153.471 55.1922 151.541C55.9417 150.834 56.6629 150.084 57.3418 149.25C58.7418 150.339 60.2904 151.166 62.0228 151.597C62.5319 151.725 62.7865 150.862 62.2774 150.692C60.6935 150.169 59.2298 149.512 57.865 148.557C58.756 147.369 59.5904 146.096 60.347 144.731C61.2238 145.835 62.3339 146.789 63.4865 147.574C64.0522 147.956 64.7027 147.107 64.1441 146.761C62.8431 145.969 61.8107 145.007 60.7712 143.94C61.747 142.059 62.6168 140.057 63.3593 137.972C65.9826 139.831 69.3343 141.245 72.5729 140.355C76.1296 144.703 74.5527 148.84 72.5375 153.613C71.5122 156.038 70.9465 158.527 72.2617 160.945C72.5021 161.384 73.0183 161.377 73.2729 161.108C74.7932 163.038 76.6529 164.403 78.9297 165.393C76.5185 170.76 66.1028 168.448 62.2844 166.482C62.1006 166.383 61.938 166.404 61.8036 166.482C61.2026 164.41 60.248 162.593 59.1732 160.839L59.159 160.868ZM67.6231 133.92C66.8453 133.241 65.9826 132.689 65.0634 132.265C65.2826 131.395 65.5089 130.533 65.6998 129.663C66.8877 130.554 68.2595 131.247 69.6737 131.643C70.2465 131.806 70.5293 130.816 69.9636 130.632C68.4928 130.137 67.1918 129.529 65.9119 128.701C66.0675 127.938 66.223 127.174 66.3644 126.424C68.2524 127.167 70.197 127.867 72.1486 128.419C72.7284 128.588 73.0042 127.605 72.4385 127.393C70.5222 126.665 68.4999 126.071 66.5129 125.541C66.6473 124.756 66.7816 123.971 66.9018 123.2C69.1716 123.037 71.1869 123.285 73.3153 124.197C73.9022 124.445 74.2911 123.561 73.7113 123.292C71.6536 122.352 69.2494 122.012 67.0079 122.429C67.0928 121.835 67.1847 121.22 67.2554 120.64C73.3365 123.313 76.3488 119.509 81.3268 116.483C82.5148 115.761 83.6886 115.224 84.827 114.778C85.725 115.083 86.3473 115.464 86.7574 115.903C86.2271 115.981 86.3544 116.787 86.9059 116.787C87.0191 116.787 87.1393 116.78 87.2524 116.78C88.2636 119.926 82.0622 124.812 81.1642 125.753C80.5914 126.354 80.0753 126.912 79.6015 127.513C79.4389 127.549 79.3187 127.726 79.3187 127.895C79.0358 128.291 78.76 128.694 78.5196 129.161C77.5155 131.056 77.3741 133.404 76.2922 135.221C72.8486 140.998 67.9979 139.739 63.7835 136.755C63.7835 136.755 63.7765 136.748 63.7694 136.741C64.1583 135.574 64.5118 134.387 64.8371 133.199C65.6078 133.602 66.322 134.104 66.9726 134.712C67.4605 135.171 68.1322 134.344 67.6302 133.899L67.6231 133.92ZM103.261 171.637C103.12 172.881 102.795 174.126 102.229 175.342C100.002 180.158 95.5185 181.572 91.2122 183.912C88.3343 185.475 86.4321 187.264 85.619 190.269C83.533 187.504 80.4924 186.585 76.9428 186.331C70.1263 185.836 64.4199 185.404 60.2692 179.316C62.2986 176.198 62.8077 172.139 62.242 168.533C62.1996 168.25 62.136 167.988 62.0865 167.712C63.9179 168.625 66.6968 169.508 69.5535 169.876C70.2535 171.071 70.9819 172.238 71.7031 173.412C72.0496 173.97 72.9052 173.355 72.5304 172.811C71.8657 171.863 71.1869 170.916 70.5152 169.975C74.9134 170.357 79.2762 169.402 80.4571 165.337C80.5561 164.997 80.4925 164.566 80.0965 164.424C77.459 163.456 75.2457 161.992 73.2446 160.062C72.9335 158.944 72.9405 157.891 73.1173 156.865C73.881 158.817 75.4296 160.422 77.2256 161.469C77.7913 161.794 78.2226 160.839 77.6357 160.521C75.5568 159.404 74.3477 157.686 73.4638 155.543C73.4497 155.529 73.4426 155.522 73.4355 155.515C73.6971 154.673 74.0436 153.86 74.4043 153.033C75.7902 155.324 77.6004 157.346 79.7924 158.902C80.2803 159.248 80.8813 158.534 80.3864 158.167C78.1236 156.484 76.3064 154.511 74.779 152.177C74.9912 151.696 75.1962 151.223 75.3942 150.742C75.4296 150.777 75.4296 150.82 75.4649 150.855C78.456 153.973 81.8925 156.533 85.6685 158.4C87.0615 160.359 88.5322 162.296 90.0879 164.035C90.4909 164.481 91.2193 163.993 90.8586 163.477C89.8546 162.034 88.7232 160.62 87.5494 159.234C89.5151 160.069 91.5728 160.698 93.687 161.158C94.1749 161.942 94.6699 162.706 95.2003 163.463C95.5821 164 96.3387 163.413 96.0205 162.869C95.7377 162.388 95.4336 161.928 95.1366 161.462C96.0205 161.61 96.9185 161.73 97.8307 161.808C98.8419 161.9 99.8318 161.914 100.808 161.872C102.498 164.651 103.48 167.783 103.297 170.937C103.162 171.156 103.134 171.425 103.247 171.637L103.261 171.637ZM118.344 163.031C117.969 163.548 115.325 164.269 114.632 164.707C111.45 166.758 108.699 170.414 104.704 170.59C104.789 167.465 103.777 164.446 101.889 161.808C107.603 161.37 112.892 159.234 118.478 158.315C118.514 159.892 118.726 162.522 118.344 163.031ZM120.571 153.521C120.536 153.712 120.508 153.91 120.472 154.101C120.409 154.574 120.826 154.794 121.179 154.723C121.568 155.395 121.985 156.066 122.466 156.717C115.996 156.342 110.212 159.538 103.806 160.189C100.419 160.535 97.0883 160.288 93.8851 159.56C93.6376 159.199 93.3971 158.831 93.1426 158.463C92.8032 157.969 92.0961 158.506 92.4001 159.008C92.4355 159.072 92.4708 159.121 92.5062 159.185C89.7697 158.428 87.1322 157.332 84.6573 155.918C84.523 155.784 84.4027 155.635 84.2825 155.501C84.3037 155.324 84.0916 155.225 83.9573 155.331C83.8865 155.345 83.8371 155.38 83.7946 155.437C81.1359 153.825 78.6752 151.859 76.469 149.625C76.271 149.427 76.0518 149.377 75.8609 149.427C76.1508 148.486 76.3417 147.517 76.3205 146.506C76.3064 145.347 76.0589 144.265 75.6629 143.232C79.4459 145.516 82.4087 148.338 84.424 152.404C84.5159 152.595 84.6644 152.686 84.827 152.722C84.8624 153.224 85.124 153.712 85.6826 154.03C86.9483 154.744 88.1221 153.457 87.7049 152.191C87.6696 151.59 87.3019 151.067 86.6726 151.004C86.1847 150.784 85.6048 150.784 85.0674 151.138C85.0674 151.138 85.0604 151.145 85.0533 151.152C82.8188 147.164 79.4035 143.749 75.0972 142.073C74.6942 141.33 74.2346 140.63 73.6547 139.994C75.1679 139.287 76.1013 138.141 76.8013 136.805C81.3763 140.008 85.2866 143.522 88.8151 147.744C88.6171 148.012 88.5252 148.373 88.6666 148.684C89.1333 149.702 89.7838 150.763 90.8869 151.159C91.792 151.484 92.9375 151.3 93.5669 150.544C94.8609 148.967 92.7042 146.358 91.0778 147.8C91.0566 147.822 91.0495 147.829 91.0283 147.85C90.7455 147.525 90.3354 147.284 89.904 147.263C86.4251 142.766 82.0622 138.884 77.169 136.013C77.3175 135.666 77.466 135.32 77.6004 134.959C77.6145 134.973 77.6216 134.98 77.6357 134.995C84.7209 139.068 92.8032 141.323 100.857 142.561C100.892 142.752 100.942 142.928 101.02 143.105C101.635 144.526 103.396 144.873 104.534 143.862C105.616 142.907 105.814 141.111 104.605 140.156C103.318 139.152 101.479 139.577 100.716 140.963C100.673 141.033 100.666 141.111 100.652 141.182C92.7042 139.966 85.3715 137.427 77.9186 134.344C77.8903 134.33 77.862 134.344 77.8337 134.344C78.2863 133.057 78.6964 131.728 79.2692 130.504C79.552 129.896 79.948 129.317 80.3934 128.758C85.7957 131.968 92.2233 131.622 98.2974 130.639C98.3398 130.738 98.3752 130.844 98.4388 130.936C99.4358 132.47 101.776 131.996 102.512 130.455C102.865 129.72 102.745 128.793 102.095 128.284C102.073 128.221 102.052 128.157 102.024 128.086C101.663 127.273 100.793 126.927 99.9591 127.167C98.9409 127.464 98.1984 128.489 98.1135 129.536C92.2163 130.356 86.3402 130.886 80.9026 128.15C82.1259 126.799 83.6603 125.548 84.9896 124.19C84.9967 124.197 85.0109 124.211 85.025 124.211C86.8847 124.388 88.8575 124.65 90.7455 124.614C90.8728 124.911 91.0354 125.187 91.29 125.413C92.0607 126.113 93.1709 126.135 93.9982 125.519C94.8043 124.925 95.2144 123.596 94.4083 122.832C94.0194 122.472 93.5315 122.38 93.0648 122.465C92.6618 122.189 92.2092 121.991 91.6859 121.878C91.3182 121.793 90.9223 122.062 90.7808 122.387C90.6253 122.74 90.5687 123.122 90.5546 123.504C88.907 123.398 87.1887 123.504 85.5412 123.582C86.616 122.408 87.4928 121.149 87.8322 119.679C93.4679 118.781 99.7965 119.042 105.128 121.305C112.539 124.445 114.992 131.311 116.47 138.615C117.517 143.819 118.245 148.918 120.55 153.528L120.571 153.521ZM121.215 150.841C118.825 144.18 118.627 136.699 115.897 130.25C117.891 128.426 119.475 126.375 120.451 123.943C131.312 129.387 123.866 141.726 121.208 150.848L121.215 150.841ZM115.706 103.74C116.894 104.49 120.409 105.515 120.96 106.562C121.349 107.304 120.161 112.862 120.154 114.213C120.119 120.046 119.758 124.706 115.332 129.005C114.695 127.69 113.932 126.417 112.991 125.222C109.696 120.994 104.414 118.767 98.9338 118.052C100.956 117.628 102.908 116.893 104.569 115.839C105.079 115.514 104.612 114.651 104.06 114.906C100.398 116.56 97.06 117.593 93.0082 117.784C92.9446 117.791 92.9092 117.826 92.8668 117.854C91.1839 117.967 89.5505 118.201 88.009 118.554C88.0373 117.904 87.91 117.324 87.7261 116.787C92.6193 116.688 97.6186 115.577 101.925 113.223C102.519 112.898 102.179 111.922 101.529 112.219C96.9185 114.269 92.3365 115.57 87.3019 115.867C86.9271 115.28 86.4392 114.778 85.8169 114.439C90.8586 112.678 95.3912 112.403 98.7994 106.534C100.115 104.271 101.232 101.414 101.486 98.5857C106.938 95.6088 111.372 101.004 115.706 103.74ZM79.3045 89.4569C79.3045 89.4569 79.3399 89.4923 79.354 89.5064C81.4895 90.9065 83.0522 91.3237 85.6755 91.1894C87.7261 91.0904 89.897 89.8671 91.9334 90.0085C98.7004 90.454 100.355 94.4138 99.8742 98.614C99.8389 98.6776 99.8318 98.7413 99.846 98.812C99.5278 101.237 98.5095 103.726 97.3569 105.657C96.2397 107.524 94.9669 108.655 93.6093 109.404C94.2669 107.799 94.5356 106.06 94.2174 104.327C94.1396 103.896 93.5244 103.974 93.5456 104.405C93.6588 106.413 93.3264 108.259 92.3435 109.991C91.4667 110.331 90.5546 110.578 89.6212 110.79C89.8828 108.676 90.102 106.548 90.2929 104.419C90.3354 103.995 89.699 103.896 89.6353 104.327C89.3313 106.512 89.0626 108.704 88.8292 110.903C88.8292 110.932 88.8505 110.939 88.8434 110.96C88.1221 111.116 87.3938 111.264 86.6443 111.448C86.6938 110.182 86.715 108.917 86.7503 107.665C86.7645 107.17 86.0008 107.043 85.9725 107.552C85.9018 108.924 85.8099 110.302 85.7604 111.681C85.124 111.865 84.4805 112.084 83.83 112.353C82.6986 112.834 81.7087 113.513 80.7965 114.255C80.6904 112.721 80.5844 111.172 80.4642 109.638C80.4288 109.221 79.8207 109.305 79.8278 109.708C79.8843 111.434 79.9692 113.159 80.054 114.884C78.5762 116.193 77.2398 117.642 75.7124 118.703C76.2357 115.761 76.1154 112.615 75.4861 109.694C75.4083 109.305 74.8073 109.355 74.8639 109.765C75.2528 112.756 75.2174 115.592 74.878 118.59C74.8497 118.83 75.0124 118.979 75.1891 119.028C73.1951 120.259 70.8334 120.782 67.3968 119.537C67.6867 116.843 67.8282 114.368 67.8706 112.289C67.8847 111.794 67.3685 111.547 67.0221 111.695C66.5695 108.98 64.6038 107.043 62.1713 106.166C65.6856 98.3665 76.8791 98.0059 79.3116 89.4499L79.3045 89.4569ZM-37.9833 59.7797C-37.2762 60.6565 -36.5408 61.5333 -35.8125 62.403C-36.8095 63.2021 -37.8277 63.994 -38.7823 64.8496C-38.8601 64.9274 -38.9096 65.0193 -38.9308 65.1112C-39.8218 62.8909 -39.7794 60.9535 -37.9833 59.7797ZM-11.1062 92.8935C-16.7418 88.4882 -22.4128 84.0193 -27.5605 79.0413C-29.7667 76.9058 -36.357 70.6974 -38.6763 65.6911C-38.5419 65.7547 -38.3793 65.7618 -38.2096 65.6345C-37.1772 64.8426 -36.2014 63.9799 -35.2114 63.1314C-34.476 64.0082 -33.7194 64.8779 -32.9628 65.7477C-33.3942 66.0941 -33.8184 66.4335 -34.2498 66.78C-34.2639 66.7942 -34.2922 66.7942 -34.3134 66.8154C-34.6387 67.0841 -34.964 67.3528 -35.2821 67.6144C-35.7135 67.9609 -35.2044 68.6539 -34.773 68.3074C-34.4478 68.0387 -34.1225 67.7841 -33.7972 67.5154C-33.7407 67.4589 -33.6912 67.4094 -33.6629 67.3387C-33.274 66.9922 -32.8709 66.6457 -32.482 66.2992C-31.5416 67.3811 -30.5799 68.4559 -29.6111 69.5236C-30.3465 69.6509 -31.1809 69.7075 -31.8385 70.0257C-32.0719 70.1317 -32.284 70.3297 -32.1709 70.6126C-32.0224 70.959 -31.5133 70.8883 -31.2163 70.8742C-30.9829 70.8671 -30.891 70.6903 -30.9052 70.5065C-30.8415 70.4853 -30.7779 70.4499 -30.7142 70.4287C-30.2263 70.2802 -29.7243 70.1459 -29.2364 69.9974C-29.2293 69.9903 -29.2152 69.9761 -29.2081 69.9691C-28.1262 71.1641 -27.0302 72.345 -25.9201 73.5117C-26.712 73.837 -27.8858 74.4026 -27.504 75.039C-27.4898 75.0532 -27.504 75.0673 -27.4969 75.0885C-27.4828 75.1027 -27.4686 75.131 -27.4616 75.1522C-27.4616 75.1522 -27.4545 75.1451 -27.4474 75.138C-27.4191 75.1663 -27.4191 75.1946 -27.3909 75.2229C-27.0656 75.534 -26.6201 75.0461 -26.8464 74.7067L-26.8888 74.6643C-26.5777 74.9047 -26.3231 74.5794 -26.0191 74.3885C-25.8282 74.2683 -25.6372 74.1481 -25.4463 74.0279C-24.0675 75.4774 -22.6532 76.9058 -21.2319 78.3271C-22.0098 78.6524 -23.0209 79.1968 -22.731 79.7979C-22.7169 79.8262 -22.7169 79.8544 -22.6957 79.8898C-22.6815 79.9039 -22.6674 79.9181 -22.6532 79.9464C-22.6532 79.9464 -22.6462 79.9393 -22.6391 79.9322C-22.6108 79.9605 -22.6108 79.9888 -22.5825 80.0171C-22.2431 80.3423 -21.7764 79.8332 -22.0098 79.4726C-21.9108 79.614 -21.7906 79.6352 -21.6492 79.4655C-21.4936 79.3665 -21.3451 79.2746 -21.1895 79.1756C-21.0269 79.0696 -20.8642 78.9635 -20.6945 78.8503C-19.0682 80.4626 -17.4065 82.0394 -15.7236 83.595C-16.0559 83.7294 -16.3953 83.8567 -16.7206 84.0264C-17.2014 84.2668 -16.8974 85.0517 -16.4095 84.8042C-15.9923 84.585 -15.5892 84.3375 -15.1862 84.09C-13.7861 85.3769 -12.3507 86.6427 -10.9153 87.8943C-11.5516 88.163 -12.1386 88.5094 -12.6689 89.0115C-13.178 89.4923 -12.4921 90.2206 -12.0042 89.7044C-11.5022 89.1741 -10.9152 88.7711 -10.2576 88.4811C-8.66664 89.86 -7.06152 91.2106 -5.4281 92.5329C-6.56654 92.9218 -7.71206 93.3177 -8.77272 93.8976C-9.02021 94.0319 -9.09092 94.2723 -9.03435 94.4703C-9.71317 93.9471 -10.3991 93.4309 -11.0708 92.9006L-11.1062 92.8935ZM-8.61008 94.8097C-8.61008 94.8097 -8.50403 94.8027 -8.44746 94.7885C-7.15345 94.3855 -5.94428 93.7137 -4.73513 93.1127C-2.99564 94.5128 -1.22789 95.8845 0.554018 97.228C-0.520783 97.5816 -1.52486 98.1473 -2.28147 98.9746C-2.42996 99.1372 -2.42998 99.3494 -2.34512 99.5191C-4.44523 97.9705 -6.53826 96.4007 -8.61008 94.8097ZM-1.87135 99.8655C-1.76529 99.8726 -1.63803 99.8443 -1.53903 99.7453C-0.633938 98.911 0.278249 98.2392 1.35305 97.8008C2.92283 98.9746 4.50676 100.106 6.11189 101.23C5.07951 101.782 3.98347 102.227 2.83796 102.439C2.54098 102.496 2.42786 102.708 2.42079 102.927C0.992434 101.909 -0.443011 100.898 -1.8643 99.8585L-1.87135 99.8655ZM3.07839 103.415C4.3724 102.97 5.57447 102.418 6.6917 101.64C8.6716 103.012 10.6727 104.349 12.695 105.65C11.9879 106.102 11.2737 106.548 10.5808 107.029C9.90903 107.488 10.6444 108.464 11.3162 108.033C12.1647 107.495 12.992 106.922 13.8264 106.357C15.0497 107.128 16.2801 107.863 17.5175 108.605C16.8387 108.945 16.1599 109.284 15.474 109.631C14.7739 109.977 15.3043 110.96 15.9902 110.571C16.8175 110.112 17.6448 109.652 18.4721 109.192C20.1479 110.175 21.845 111.123 23.5421 112.042C22.4743 113.11 21.2581 113.902 20.0136 114.778C14.2648 111.151 8.60796 107.361 3.07132 103.422L3.07839 103.415ZM30.9596 121.411C30.0687 120.902 29.1918 120.365 28.308 119.848C29.5737 119.12 30.8253 118.378 32.0839 117.642C32.7557 117.253 32.0415 116.285 31.3768 116.666C29.9626 117.487 28.513 118.286 27.0988 119.134C25.1543 117.967 23.2097 116.787 21.2864 115.585C22.6723 114.962 23.8532 113.895 24.8148 112.735C27.6786 114.255 30.5707 115.691 33.5052 117.013C33.4345 117.96 33.4133 118.901 33.4698 119.834C32.5153 120.322 31.6879 120.852 30.9525 121.418L30.9596 121.411ZM39.5156 130.575C27.1483 117.402 41.0924 104.264 49.1252 93.8976C49.3373 93.6147 53.0638 88.7286 52.1304 89.2802C54.8386 87.6892 52.9436 88.9761 55.6871 88.9054C60.8702 88.7852 72.0001 87.7669 73.1032 94.7673C73.1315 94.9794 73.2658 95.0997 73.4214 95.1562C68.9242 98.3665 63.0057 100.24 60.8631 105.805C59.4348 105.522 57.9145 105.586 56.4791 106.046C48.5666 108.584 47.3504 118.371 40.5621 122.104C40.2156 121.758 39.5439 122.062 39.7065 122.564C39.1974 122.832 39.5014 123.561 40.053 123.433C40.9793 126.014 40.5338 128.341 39.5297 130.589C39.5297 130.589 39.5227 130.582 39.5156 130.575ZM36.8852 136.402C38.0377 134.797 39.7136 133.63 40.6753 131.862C42.2733 128.935 42.1673 126.029 41.0147 123.08C44.6846 121.602 46.6998 118.314 48.8847 115.04C50.7162 112.289 52.7739 109.468 55.8851 108.04C59.8025 106.244 65.1765 107.799 65.6503 112.671C65.7068 113.237 66.223 113.4 66.6331 113.244C66.3998 115.655 66.0533 118.547 65.5583 121.673C64.2502 118.837 62.044 116.574 59.1378 115.323C58.6146 115.097 58.261 115.903 58.7772 116.136C61.6975 117.473 63.9108 119.615 65.2048 122.564C65.2401 122.656 65.3179 122.705 65.3816 122.74C65.2189 123.752 65.028 124.777 64.83 125.823C63.628 123.179 61.443 121.135 58.664 120.068C58.1054 119.848 57.7236 120.711 58.2893 120.923C61.2379 122.019 63.3946 124.176 64.5825 127.033C64.3351 128.228 64.0805 129.43 63.7764 130.639C61.3016 127.598 58.0277 125.145 54.478 123.532C53.9901 123.313 53.679 124.049 54.1456 124.289C57.8297 126.219 60.7571 128.581 63.5502 131.586C63.5431 131.622 63.5289 131.664 63.5219 131.699C63.0693 131.699 62.8006 132.364 63.2956 132.534C63.1118 133.199 62.942 133.863 62.7511 134.521C61.0116 132.598 58.7772 131.113 56.4084 130.087C55.8144 129.833 55.4184 130.738 56.0053 130.999C58.5085 132.103 60.5025 133.658 62.4541 135.497C62.1289 136.529 61.7824 137.554 61.4076 138.566C60.0288 137.286 58.3954 136.26 56.7266 135.412C56.0053 135.044 55.4962 136.204 56.2245 136.564C57.964 137.441 59.4348 138.558 60.9551 139.711C57.7165 147.772 52.7385 154.235 44.9886 154.688C33.8941 155.331 31.3627 144.13 36.9064 136.381L36.8852 136.402Z" fill="#232321"/>
<path d="M59.153 142.165C59.556 142.2 59.655 141.592 59.2449 141.535C56.3387 141.09 53.7012 140.149 51.1909 138.615C50.7101 138.318 50.1303 139.011 50.6182 139.315C53.2133 140.934 56.0982 141.924 59.1459 142.172L59.153 142.165Z" fill="#232321"/>
<path d="M58.3168 145.036C58.6632 144.788 58.2885 144.286 57.9349 144.512C55.4388 146.089 52.5114 146.358 49.7678 145.269C49.2516 145.064 48.8981 145.856 49.4213 146.068C52.3841 147.277 55.7146 146.902 58.3238 145.043L58.3168 145.036Z" fill="#232321"/>
<path d="M54.4714 149.264C54.8391 148.967 54.4361 148.423 54.0401 148.677C51.841 150.056 49.3449 150.275 46.962 149.236C46.3821 148.981 45.9932 149.865 46.566 150.141C49.1045 151.35 52.2652 151.032 54.4643 149.257L54.4714 149.264Z" fill="#232321"/>
<path d="M46.3946 159.545C49.2442 159.383 51.8746 157.785 53.3313 155.352C53.5151 155.041 52.9989 154.737 52.7868 155.02C51.1746 157.155 48.9543 158.4 46.2814 158.598C45.6662 158.647 45.7794 159.581 46.3946 159.545Z" fill="#232321"/>
<path d="M71.1591 119.014C72.2693 115.783 72.1703 112.417 70.5864 109.362C70.4096 109.03 69.8651 109.221 70.0278 109.581C71.343 112.466 71.5339 115.684 70.3177 118.639C70.0914 119.191 70.9753 119.566 71.1662 119.007L71.1591 119.014Z" fill="#232321"/>
<path d="M67.5958 174.692C66.521 173.108 65.6159 171.425 64.8946 169.657C64.64 169.049 63.7137 169.41 63.94 170.032C64.633 171.927 65.5381 173.709 66.6412 175.392C67.0583 176.035 68.0271 175.321 67.5958 174.692Z" fill="#232321"/>
</svg>
